<?xml version="1.0" encoding="UTF-8"?><svg id="Capa_4" xmlns="http://www.w3.org/2000/svg" viewBox="0 0 1403 1493"><defs><style>.cls-1{opacity:.12;}.cls-1,.cls-2{fill:#ffcfb9;}.cls-2{opacity:.06;}</style></defs><ellipse class="cls-1" cx="1314.75" cy="140.56" rx="62.31" ry="62.46"/><ellipse class="cls-1" cx="978.75" cy="861.56" rx="62.31" ry="62.46"/><path class="cls-2" d="M1403,1178.55c-9.4-3.58-19.6-5.55-30.25-5.55-47.14,0-85.35,38.31-85.35,85.56s38.21,85.56,85.35,85.56c10.66,0,20.85-1.97,30.25-5.55v-160.02Z"/><path class="cls-2" d="M159.05,1090C95.01,1090,37.79,1119.29,0,1165.23v262.63c24.66,29.98,57.6,52.85,95.3,65.14h127.49c82.59-26.91,142.3-104.69,142.3-196.45,0-114.07-92.25-206.55-206.05-206.55Z"/><ellipse class="cls-1" cx="134.98" cy="243.73" rx="29.53" ry="29.6"/></svg>