<?xml version="1.0" encoding="UTF-8"?><svg id="Gráficos" xmlns="http://www.w3.org/2000/svg" viewBox="0 0 480 240"><defs><style>.cls-1{fill:#fff;}.cls-2{fill:#ff7b54;}.cls-3{fill:#483e35;}.cls-4{fill:#2ead80;}</style></defs><rect class="cls-2" x="17.67" y="230.26" width="368" height="8"/><rect class="cls-4" x="385.67" y="230.26" width="92" height="8"/><g id="Icono_2.psd"><g><path class="cls-2" d="M24.67,89.12c-1.34-.5-2.65-.8-3.77-1.43-4.69-2.65-9.06-5.71-12.36-10.09-1.21-1.61-2.73-3.01-3.8-4.7-1.85-2.95-3.31-6.11-1.77-9.68,.8-1.85,1.79-3.61,2.78-5.36,2.46-4.35,5.76-7.92,9.93-10.72,1.56-1.04,3.09-2.26,4.26-3.71,1.04-1.29,1.63-2.97,2.29-4.53,1.97-4.68,3.93-9.38,5.79-14.11,.48-1.23,.76-2.6,.84-3.93,.26-3.91,.31-7.83,.56-11.74,.23-3.62,1.93-5.72,5.42-6.53,4.34-1,8.72-1.15,13.13-.28,3.28,.65,5.3,2.63,5.79,5.84,.44,2.92,.43,5.91,.63,9.08,1.43,.99,1.78,2.98,.81,4.79-.15,.29-.16,.77-.04,1.08,1.24,3,2.46,6.01,3.8,8.97,1.48,3.28,3.04,6.52,4.63,9.75,.25,.51,.79,.89,1.25,1.27,4.02,3.33,8.33,6.35,11.98,10.05,3.35,3.39,5.94,7.52,7.29,12.21,.32,1.12,.3,2.45,.05,3.6-.76,3.51-2.84,6.28-5.27,8.82-3,3.14-5.92,6.38-9.66,8.68-2.27,1.39-4.57,2.74-7,4.19,.66,1.29,1.3,2.72,2.1,4.05,2.84,4.72,5.2,9.7,6.86,14.91,1.44,4.53,2.39,9.24,3.22,13.93,.64,3.6,1.11,7.3,1,10.93-.13,4.22-.83,8.45-1.57,12.62-.95,5.42-2.2,10.78-3.26,16.17-1.02,5.25-1.94,10.53-2.95,15.78-.22,1.15-.49,2.35-1.06,3.34-.37,.65-1.28,1.18-2.05,1.36-1.17,.27-2.43,.14-3.63,.31-.32,.05-.8,.55-.83,.87-.25,2.82-.38,5.65-.61,8.47-.24,2.96-.53,5.91-.8,8.87-.25,2.76-.51,5.53-.75,8.29-.1,1.17-.24,2.35-.25,3.53,0,.49,.12,1.16,.44,1.43,1.4,1.13,2.8,2.36,4.39,3.16,2.82,1.41,5.79,2.51,8.67,3.8,.44,.2,.73,.71,1.09,1.08l-.2,.32h-1.27c-16.95,0-33.91,0-50.86,0-.35,0-.74,.07-1.04-.06-.2-.09-.42-.52-.37-.72,.09-.32,.34-.71,.64-.85,3.14-1.6,6.36-3.06,9.44-4.77,2.18-1.21,2.37-2.32,1.91-4.79-.55-2.95-.87-5.94-1.28-8.91-.53-3.84-1.01-7.68-1.57-11.52-.38-2.62-.88-5.23-1.3-7.85-.16-1.01-1.13-1.59-2.37-1.35-.17,.03-.32,.14-.49,.17-2.19,.37-3.37-.43-3.74-2.47-.65-3.59-1.32-7.18-1.99-10.77-.9-4.82-1.87-9.64-2.72-14.47-1.04-5.94-2.18-11.87-2.93-17.85-.55-4.38-.85-8.84-.69-13.25,.25-7.01,2.13-13.69,5.38-19.95,1.04-2,1.85-4.11,2.89-6.11,1.59-3.07,3.29-6.08,4.98-9.19Zm-11.29,38.19c0,1.23-.13,2.48,.03,3.69,.44,3.39,1.04,6.75,1.51,10.14,.6,4.39,1.07,8.8,1.72,13.19,.45,3.03,1.1,6.03,1.67,9.04,1.05,5.6,2.12,11.19,3.12,16.8,.18,.99,.59,1.26,1.56,1.27,6.67,.07,13.34,.2,20.01,.31,4.03,.07,8.06,.1,12.09,.22,2.75,.08,5.5,.29,8.25,.46,1.18,.07,2.01-.48,2.3-1.63,.22-.87,.44-1.74,.6-2.63,.65-3.4,1.27-6.81,1.9-10.22,1.33-7.15,2.75-14.28,3.95-21.45,.54-3.22,.81-6.51,.85-9.77,.04-4.15-.22-8.31-.45-12.45-.38-6.68-2.36-12.99-4.93-19.09-1.42-3.38-3.24-6.6-4.99-9.83-1.01-1.87-2.12-3.66-3.71-5.19-1.17-1.13-1.94-2.79-2.53-4.35-.34-.9-.64-1.02-1.45-.95-7.85,.63-15.69,.6-23.51-.32-.43-.05-1.08,.04-1.31,.33-1.21,1.54-2.49,3.07-3.42,4.79-3.01,5.54-6.02,11.09-8.75,16.77-3.15,6.56-4.9,13.51-4.5,20.87Zm66.74-52.75c1.71-1.78,2.62-3.82,3-6.05,.18-1.04,.22-2.28-.19-3.2-1.13-2.55-2.29-5.15-3.88-7.42-1.71-2.46-3.69-4.84-5.97-6.77-3.47-2.94-7.24-5.53-10.99-8.11-2.51-1.73-5.18-3.25-7.86-4.72-1.44-.79-3.04-1.26-4.57-1.88l-.36,.24,2.09,8c-2.78-.83-5.27-1.53-7.73-2.32-.99-.32-1.85-.28-2.78,.21-1.74,.93-3.52,1.8-5.29,2.67-.57,.28-1.16,.51-2.13,.92l2.55-9.74c-.99,.4-1.73,.63-2.4,1-3.55,1.92-7.19,3.7-10.58,5.87-3.46,2.22-6.81,4.67-9.94,7.34-3.69,3.16-6.35,7.2-8.59,11.54-1.79,3.47-1.04,6.57,.84,9.84,3.13-1.97,6.2-3.9,9.25-5.83l-.35-1.89c1.08,.72,1.7,1.7,2.87,.82,1.72-1.29,3.53-2.46,5.31-3.66,.9-.6,1.25-1.37,1.04-2.46-.09-.5,.07-1.04,.12-1.56l.38-.02c.34,1.61,.63,3.23,1.03,4.82,1.51,5.98,2.21,12.2,5.39,17.68,.45,.78,.89,1.21,1.79,1.25,4.15,.23,8.3,.69,12.45,.67,3.44-.01,6.89-.55,10.33-.9,.44-.04,1.09-.26,1.23-.58,.6-1.3,1.21-2.63,1.52-4.02,1.27-5.69,2.44-11.41,3.64-17.12,.17-.83,.3-1.67,.46-2.59,.21,.15,.33,.19,.34,.25,.04,.3,.07,.6,.06,.9-.07,1.9,.19,3.6,2.08,4.69,1.44,.82,2.77,1.85,4.13,2.81,1.18,.83,2.31,1.86,3.68,.3,.01-.02,.08,.02,.32,.07-.15,.48-.37,.94-.42,1.41-.05,.42-.07,1.06,.18,1.26,2.57,2.11,5.2,4.16,7.9,6.28ZM39.11,10.03c-.92,1.45-1.77,2.77-2.61,4.09-.72,1.13-1.45,2.25-2.13,3.4-.43,.72-.86,1.22-1.77,.68-.73-.43-1.22-.11-1.61,.57-.68,1.18-.62,2.73,.56,3.23,1.57,.66,1.4,1.86,1.61,3.06,.55,3.18,1.76,6,5.12,7.04,2.99,.93,6.03,.68,9.03-.29,2.39-.78,3.63-2.52,4.14-4.83,.22-1.01,.18-2.09,.26-3.14,.04-.6,.07-1.2,.1-1.8,1.95,.12,2.53-.27,2.87-1.81,.28-1.25-.25-1.95-1.77-2.6-.37-.16-.66-.63-.86-1.02-.31-.62-.45-1.34-.78-1.95-.47-.86-1.04-1.7-2.2-1.6-3.69,.3-7.02-.61-9.96-3.02Zm7.86,174.04c0,1.35-.07,2.87,.01,4.38,.28,5,.6,9.99,.92,14.98,.23,3.54,.5,7.08,.72,10.63,.05,.88,.49,1.25,1.32,1.3,1.35,.08,2.71,.13,4.06,.29,1.03,.12,1.5-.34,1.58-1.26,.08-.83,.01-1.67,.09-2.5,.33-3.56,.68-7.13,1.03-10.69,.25-2.52,.48-5.05,.77-7.57,.31-2.73,.66-5.45,1.03-8.18,.14-1.06-.14-1.54-1.32-1.46-1.48,.11-2.97,.06-4.46,.07-1.9,0-3.81,0-5.76,0Zm-19-.58c.03,.37,.05,.68,.09,.98,.63,4.29,1.28,8.58,1.89,12.88,.88,6.16,1.73,12.33,2.65,18.49,.05,.35,.59,.84,.96,.9,.99,.15,2.01,.07,3.02,.15,.82,.07,1.26-.22,1.28-1.07,.05-1.53,.08-3.07,.16-4.6,.3-5.87,.62-11.74,.92-17.61,.15-2.98,.27-5.96,.46-8.94,.04-.72-.1-1.08-.88-1.08-1.54-.01-3.08-.08-4.63-.1-1.92-.02-3.84,0-5.92,0Zm15.02,38.78c.39-.03,.62-.11,.81-.06,1.31,.38,1.76-.21,1.8-1.45,.01-.47,.23-.92,.34-1.39,.37-1.5,1.42-2.77,1.22-4.49-.37-3.21-.56-6.45-.78-9.68-.15-2.25-.23-4.51-.36-6.77-.26-4.71-.53-9.42-.82-14.12-.02-.27-.31-.72-.52-.74-.91-.09-1.83-.13-2.73-.03-.29,.03-.72,.51-.76,.82-.2,1.51-.32,3.04-.4,4.57-.13,2.52-.18,5.05-.31,7.57-.3,6.04-.63,12.07-.94,18.11-.01,.24,.08,.54,.23,.72,1.62,2,2.88,4.18,3.22,6.93ZM62.15,62.45c-.39,4.91-.9,9.71-2.59,14.3-.08,.21,.29,.78,.57,.89,1.22,.47,2.47,.9,3.74,1.2,.37,.09,1.06-.17,1.26-.48,1.48-2.32,2.97-4.65,4.24-7.08,.5-.96,.72-2.26,.54-3.31-.1-.6-1.28-1.01-1.97-1.5-.11-.08-.21-.16-.32-.23-1.78-1.23-3.56-2.46-5.47-3.78Zm-38.48-.1c-2.08,1.32-4.08,2.65-6.15,3.87-.79,.47-.82,1.03-.66,1.76,.82,3.59,2.66,6.66,4.9,9.52,.2,.26,.69,.54,.95,.47,1.29-.37,2.55-.86,3.62-1.23-.91-4.89-1.79-9.64-2.67-14.38Zm23.33-28.29h-8.66c.14,.89,.05,1.78,.42,2.39,.79,1.31,1.82,2.47,2.74,3.7,.51,.69,1.04,.7,1.64,.11,1.12-1.12,2.24-2.23,3.37-3.33,.95-.93,1.07-1.93,.49-2.86Z"/><path class="cls-1" d="M13.39,127.31c-.4-7.36,1.35-14.31,4.5-20.87,2.73-5.68,5.74-11.23,8.75-16.77,.93-1.71,2.21-3.24,3.42-4.79,.22-.28,.88-.38,1.31-.33,7.83,.92,15.67,.95,23.51,.32,.82-.07,1.11,.05,1.45,.95,.6,1.56,1.36,3.22,2.53,4.35,1.6,1.54,2.7,3.33,3.71,5.19,1.75,3.23,3.57,6.45,4.99,9.83,2.57,6.1,4.55,12.41,4.93,19.09,.24,4.15,.5,8.3,.45,12.45-.03,3.26-.31,6.56-.85,9.77-1.19,7.17-2.62,14.3-3.95,21.45-.63,3.41-1.26,6.81-1.9,10.22-.17,.88-.39,1.75-.6,2.63-.29,1.15-1.12,1.71-2.3,1.63-2.75-.17-5.5-.38-8.25-.46-4.03-.12-8.06-.15-12.09-.22-6.67-.11-13.34-.24-20.01-.31-.97-.01-1.39-.28-1.56-1.27-1.01-5.61-2.08-11.2-3.12-16.8-.56-3.01-1.22-6.01-1.67-9.04-.65-4.39-1.12-8.8-1.72-13.19-.47-3.39-1.07-6.75-1.51-10.14-.16-1.21-.03-2.46-.03-3.69Zm8.2,2.29c0,1.45-.01,2.9,0,4.35,0,1.07,.27,2.12,1.42,2.42,4.06,1.04,8.11,2.31,12.24,2.89,4.39,.61,8.85,.89,13.33,.14,4.61-.78,9.08-1.83,13.26-3.98,1.91-.98,3.1-2.04,2.96-4.59-.36-6.51-1.09-12.97-2.86-19.23-2.19-7.74-4.82-15.37-7.24-23.04-.27-.87-.72-1.04-1.65-.97-6.74,.47-13.49,.97-20.23-.04-2.31-.34-2.41-.27-3.36,1.9-2.31,5.29-3.68,10.87-4.88,16.48-.85,3.97-1.13,8.06-1.93,12.05-.78,3.86-1.13,7.71-1.06,11.63Z"/><path class="cls-1" d="M80.13,74.56c-2.69-2.12-5.32-4.17-7.9-6.28-.25-.2-.22-.84-.18-1.26,.05-.48,.27-.93,.42-1.41-.24-.05-.31-.08-.32-.07-1.36,1.56-2.5,.53-3.68-.3-1.36-.96-2.69-1.99-4.13-2.81-1.9-1.08-2.15-2.78-2.08-4.69,.01-.3-.02-.6-.06-.9,0-.06-.13-.1-.34-.25-.16,.91-.28,1.75-.46,2.59-1.2,5.71-2.37,11.43-3.64,17.12-.31,1.39-.92,2.72-1.52,4.02-.15,.32-.79,.53-1.23,.58-3.44,.35-6.88,.89-10.33,.9-4.15,.01-8.3-.45-12.45-.67-.9-.05-1.34-.48-1.79-1.25-3.18-5.48-3.88-11.7-5.39-17.68-.4-1.59-.69-3.21-1.03-4.82l-.38,.02c-.05,.52-.21,1.07-.12,1.56,.21,1.09-.15,1.86-1.04,2.46-1.78,1.2-3.6,2.37-5.31,3.66-1.17,.88-1.79-.1-2.87-.82l.35,1.89c-3.06,1.93-6.13,3.86-9.25,5.83-1.88-3.27-2.63-6.37-.84-9.84,2.24-4.33,4.89-8.37,8.59-11.54,3.12-2.67,6.48-5.12,9.94-7.34,3.39-2.18,7.03-3.95,10.58-5.87,.67-.36,1.41-.59,2.4-1l-2.55,9.74c.97-.42,1.57-.64,2.13-.92,1.77-.88,3.55-1.74,5.29-2.67,.92-.49,1.78-.53,2.78-.21,2.46,.79,4.94,1.49,7.73,2.32l-2.09-8,.36-.24c1.53,.62,3.13,1.09,4.57,1.88,2.68,1.47,5.34,2.99,7.86,4.72,3.75,2.58,7.52,5.18,10.99,8.11,2.28,1.93,4.25,4.31,5.97,6.77,1.59,2.27,2.75,4.87,3.88,7.42,.41,.92,.37,2.17,.19,3.2-.39,2.23-1.29,4.27-3,6.05Z"/><path class="cls-1" d="M39.11,10.03c2.94,2.42,6.26,3.33,9.96,3.02,1.16-.1,1.73,.74,2.2,1.6,.33,.61,.47,1.32,.78,1.95,.2,.39,.49,.86,.86,1.02,1.52,.65,2.05,1.35,1.77,2.6-.35,1.55-.92,1.93-2.87,1.81-.03,.6-.06,1.2-.1,1.8-.07,1.05-.03,2.12-.26,3.14-.51,2.32-1.75,4.05-4.14,4.83-2.99,.98-6.03,1.22-9.03,.29-3.36-1.04-4.57-3.86-5.12-7.04-.21-1.2-.04-2.4-1.61-3.06-1.18-.5-1.24-2.04-.56-3.23,.39-.68,.89-1,1.61-.57,.91,.54,1.34,.04,1.77-.68,.69-1.15,1.42-2.27,2.13-3.4,.84-1.32,1.69-2.65,2.61-4.09Z"/><path class="cls-1" d="M46.97,184.08c1.95,0,3.86,0,5.76,0,1.49,0,2.98,.04,4.46-.07,1.18-.09,1.46,.4,1.32,1.46-.37,2.72-.72,5.45-1.03,8.18-.29,2.52-.52,5.04-.77,7.57-.35,3.56-.7,7.12-1.03,10.69-.08,.83-.01,1.67-.09,2.5-.09,.93-.55,1.39-1.58,1.26-1.34-.16-2.7-.21-4.06-.29-.83-.05-1.26-.42-1.32-1.3-.22-3.54-.49-7.09-.72-10.63-.32-4.99-.64-9.99-.92-14.98-.08-1.51-.01-3.02-.01-4.38Z"/><path class="cls-1" d="M27.97,183.5c2.08,0,4-.01,5.92,0,1.54,.01,3.08,.09,4.63,.1,.78,0,.93,.36,.88,1.08-.18,2.98-.3,5.96-.46,8.94-.3,5.87-.62,11.74-.92,17.61-.08,1.53-.11,3.06-.16,4.6-.03,.85-.46,1.13-1.28,1.07-1-.08-2.03,0-3.02-.15-.37-.06-.9-.55-.96-.9-.92-6.16-1.77-12.33-2.65-18.49-.62-4.29-1.26-8.58-1.89-12.88-.04-.3-.06-.6-.09-.98Z"/><path class="cls-1" d="M43,222.27c-.33-2.76-1.59-4.93-3.22-6.93-.15-.19-.25-.48-.23-.72,.3-6.04,.63-12.07,.94-18.11,.13-2.52,.18-5.05,.31-7.57,.08-1.53,.2-3.05,.4-4.57,.04-.32,.47-.79,.76-.82,.9-.1,1.83-.06,2.73,.03,.2,.02,.5,.47,.52,.74,.3,4.71,.56,9.42,.82,14.12,.13,2.26,.2,4.51,.36,6.77,.22,3.23,.41,6.46,.78,9.68,.2,1.72-.85,2.99-1.22,4.49-.11,.46-.33,.92-.34,1.39-.04,1.23-.49,1.83-1.8,1.45-.19-.06-.42,.02-.81,.06Z"/><path class="cls-1" d="M62.15,62.45c1.91,1.32,3.69,2.55,5.47,3.78,.11,.07,.21,.16,.32,.23,.69,.49,1.87,.9,1.97,1.5,.18,1.05-.04,2.35-.54,3.31-1.27,2.44-2.76,4.76-4.24,7.08-.2,.32-.88,.57-1.26,.48-1.27-.3-2.52-.73-3.74-1.2-.28-.11-.65-.68-.57-.89,1.68-4.59,2.2-9.39,2.59-14.3Z"/><path class="cls-1" d="M23.67,62.35c.88,4.74,1.76,9.49,2.67,14.38-1.07,.38-2.33,.86-3.62,1.23-.26,.07-.75-.21-.95-.47-2.24-2.86-4.07-5.93-4.9-9.52-.17-.73-.14-1.29,.66-1.76,2.07-1.22,4.07-2.55,6.15-3.87Z"/><path class="cls-1" d="M47,34.06c.57,.93,.45,1.93-.49,2.86-1.13,1.11-2.25,2.22-3.37,3.33-.6,.6-1.12,.58-1.64-.11-.92-1.23-1.95-2.39-2.74-3.7-.37-.61-.28-1.5-.42-2.39h8.66Z"/><path class="cls-2" d="M21.59,129.61c-.07-3.92,.29-7.77,1.06-11.63,.8-3.98,1.08-8.08,1.93-12.05,1.2-5.61,2.57-11.19,4.88-16.48,.95-2.17,1.05-2.24,3.36-1.9,6.74,1,13.49,.5,20.23,.04,.93-.06,1.37,.11,1.65,.97,2.42,7.68,5.05,15.3,7.24,23.04,1.77,6.25,2.5,12.71,2.86,19.23,.14,2.55-1.04,3.61-2.96,4.59-4.18,2.15-8.65,3.2-13.26,3.98-4.49,.76-8.94,.48-13.33-.14-4.13-.58-8.18-1.85-12.24-2.89-1.15-.3-1.41-1.35-1.42-2.42-.01-1.45,0-2.9,0-4.35Z"/></g></g><g id="Icono_2.psd-2"><g><path class="cls-2" d="M122.67,89.12c-1.34-.5-2.65-.8-3.77-1.43-4.69-2.65-9.06-5.71-12.36-10.09-1.21-1.61-2.73-3.01-3.8-4.7-1.85-2.95-3.31-6.11-1.77-9.68,.8-1.85,1.79-3.61,2.78-5.36,2.46-4.35,5.76-7.92,9.93-10.72,1.56-1.04,3.09-2.26,4.26-3.71,1.04-1.29,1.63-2.97,2.29-4.53,1.97-4.68,3.93-9.38,5.79-14.11,.48-1.23,.76-2.6,.84-3.93,.26-3.91,.31-7.83,.56-11.74,.23-3.62,1.93-5.72,5.42-6.53,4.34-1,8.72-1.15,13.13-.28,3.28,.65,5.3,2.63,5.79,5.84,.44,2.92,.43,5.91,.63,9.08,1.43,.99,1.78,2.98,.81,4.79-.15,.29-.16,.77-.04,1.08,1.24,3,2.46,6.01,3.8,8.97,1.48,3.28,3.04,6.52,4.63,9.75,.25,.51,.79,.89,1.25,1.27,4.02,3.33,8.33,6.35,11.98,10.05,3.35,3.39,5.94,7.52,7.29,12.21,.32,1.12,.3,2.45,.05,3.6-.76,3.51-2.84,6.28-5.27,8.82-3,3.14-5.92,6.38-9.66,8.68-2.27,1.39-4.57,2.74-7,4.19,.66,1.29,1.3,2.72,2.1,4.05,2.84,4.72,5.2,9.7,6.86,14.91,1.44,4.53,2.39,9.24,3.22,13.93,.64,3.6,1.11,7.3,1,10.93-.13,4.22-.83,8.45-1.57,12.62-.95,5.42-2.2,10.78-3.26,16.17-1.02,5.25-1.94,10.53-2.95,15.78-.22,1.15-.49,2.35-1.06,3.34-.37,.65-1.28,1.18-2.05,1.36-1.17,.27-2.43,.14-3.63,.31-.32,.05-.8,.55-.83,.87-.25,2.82-.38,5.65-.61,8.47-.24,2.96-.53,5.91-.8,8.87-.25,2.76-.51,5.53-.75,8.29-.1,1.17-.24,2.35-.25,3.53,0,.49,.12,1.16,.44,1.43,1.4,1.13,2.8,2.36,4.39,3.16,2.82,1.41,5.79,2.51,8.67,3.8,.44,.2,.73,.71,1.09,1.08l-.2,.32h-1.27c-16.95,0-33.91,0-50.86,0-.35,0-.74,.07-1.04-.06-.2-.09-.42-.52-.37-.72,.09-.32,.34-.71,.64-.85,3.14-1.6,6.36-3.06,9.44-4.77,2.18-1.21,2.37-2.32,1.91-4.79-.55-2.95-.87-5.94-1.28-8.91-.53-3.84-1.01-7.68-1.57-11.52-.38-2.62-.88-5.23-1.3-7.85-.16-1.01-1.13-1.59-2.37-1.35-.17,.03-.32,.14-.49,.17-2.19,.37-3.37-.43-3.74-2.47-.65-3.59-1.32-7.18-1.99-10.77-.9-4.82-1.87-9.64-2.72-14.47-1.04-5.94-2.18-11.87-2.93-17.85-.55-4.38-.85-8.84-.69-13.25,.25-7.01,2.13-13.69,5.38-19.95,1.04-2,1.85-4.11,2.89-6.11,1.59-3.07,3.29-6.08,4.98-9.19Zm-11.29,38.19c0,1.23-.13,2.48,.03,3.69,.44,3.39,1.04,6.75,1.51,10.14,.6,4.39,1.07,8.8,1.72,13.19,.45,3.03,1.1,6.03,1.67,9.04,1.05,5.6,2.12,11.19,3.12,16.8,.18,.99,.59,1.26,1.56,1.27,6.67,.07,13.34,.2,20.01,.31,4.03,.07,8.06,.1,12.09,.22,2.75,.08,5.5,.29,8.25,.46,1.18,.07,2.01-.48,2.3-1.63,.22-.87,.44-1.74,.6-2.63,.65-3.4,1.27-6.81,1.9-10.22,1.33-7.15,2.75-14.28,3.95-21.45,.54-3.22,.81-6.51,.85-9.77,.04-4.15-.22-8.31-.45-12.45-.38-6.68-2.36-12.99-4.93-19.09-1.42-3.38-3.24-6.6-4.99-9.83-1.01-1.87-2.12-3.66-3.71-5.19-1.17-1.13-1.94-2.79-2.53-4.35-.34-.9-.64-1.02-1.45-.95-7.85,.63-15.69,.6-23.51-.32-.43-.05-1.08,.04-1.31,.33-1.21,1.54-2.49,3.07-3.42,4.79-3.01,5.54-6.02,11.09-8.75,16.77-3.15,6.56-4.9,13.51-4.5,20.87Zm66.74-52.75c1.71-1.78,2.62-3.82,3-6.05,.18-1.04,.22-2.28-.19-3.2-1.13-2.55-2.29-5.15-3.88-7.42-1.71-2.46-3.69-4.84-5.97-6.77-3.47-2.94-7.24-5.53-10.99-8.11-2.51-1.73-5.18-3.25-7.86-4.72-1.44-.79-3.04-1.26-4.57-1.88l-.36,.24,2.09,8c-2.78-.83-5.27-1.53-7.73-2.32-.99-.32-1.85-.28-2.78,.21-1.74,.93-3.52,1.8-5.29,2.67-.57,.28-1.16,.51-2.13,.92l2.55-9.74c-.99,.4-1.73,.63-2.4,1-3.55,1.92-7.19,3.7-10.58,5.87-3.46,2.22-6.81,4.67-9.94,7.34-3.69,3.16-6.35,7.2-8.59,11.54-1.79,3.47-1.04,6.57,.84,9.84,3.13-1.97,6.2-3.9,9.25-5.83l-.35-1.89c1.08,.72,1.7,1.7,2.87,.82,1.72-1.29,3.53-2.46,5.31-3.66,.9-.6,1.25-1.37,1.04-2.46-.09-.5,.07-1.04,.12-1.56l.38-.02c.34,1.61,.63,3.23,1.03,4.82,1.51,5.98,2.21,12.2,5.39,17.68,.45,.78,.89,1.21,1.79,1.25,4.15,.23,8.3,.69,12.45,.67,3.44-.01,6.89-.55,10.33-.9,.44-.04,1.09-.26,1.23-.58,.6-1.3,1.21-2.63,1.52-4.02,1.27-5.69,2.44-11.41,3.64-17.12,.17-.83,.3-1.67,.46-2.59,.21,.15,.33,.19,.34,.25,.04,.3,.07,.6,.06,.9-.07,1.9,.19,3.6,2.08,4.69,1.44,.82,2.77,1.85,4.13,2.81,1.18,.83,2.31,1.86,3.68,.3,.01-.02,.08,.02,.32,.07-.15,.48-.37,.94-.42,1.41-.05,.42-.07,1.06,.18,1.26,2.57,2.11,5.2,4.16,7.9,6.28ZM137.11,10.03c-.92,1.45-1.77,2.77-2.61,4.09-.72,1.13-1.45,2.25-2.13,3.4-.43,.72-.86,1.22-1.77,.68-.73-.43-1.22-.11-1.61,.57-.68,1.18-.62,2.73,.56,3.23,1.57,.66,1.4,1.86,1.61,3.06,.55,3.18,1.76,6,5.12,7.04,2.99,.93,6.03,.68,9.03-.29,2.39-.78,3.63-2.52,4.14-4.83,.22-1.01,.18-2.09,.26-3.14,.04-.6,.07-1.2,.1-1.8,1.95,.12,2.53-.27,2.87-1.81,.28-1.25-.25-1.95-1.77-2.6-.37-.16-.66-.63-.86-1.02-.31-.62-.45-1.34-.78-1.95-.47-.86-1.04-1.7-2.2-1.6-3.69,.3-7.02-.61-9.96-3.02Zm7.86,174.04c0,1.35-.07,2.87,.01,4.38,.28,5,.6,9.99,.92,14.98,.23,3.54,.5,7.08,.72,10.63,.05,.88,.49,1.25,1.32,1.3,1.35,.08,2.71,.13,4.06,.29,1.03,.12,1.5-.34,1.58-1.26,.08-.83,.01-1.67,.09-2.5,.33-3.56,.68-7.13,1.03-10.69,.25-2.52,.48-5.05,.77-7.57,.31-2.73,.66-5.45,1.03-8.18,.14-1.06-.14-1.54-1.32-1.46-1.48,.11-2.97,.06-4.46,.07-1.9,0-3.81,0-5.76,0Zm-19-.58c.03,.37,.05,.68,.09,.98,.63,4.29,1.28,8.58,1.89,12.88,.88,6.16,1.73,12.33,2.65,18.49,.05,.35,.59,.84,.96,.9,.99,.15,2.01,.07,3.02,.15,.82,.07,1.26-.22,1.28-1.07,.05-1.53,.08-3.07,.16-4.6,.3-5.87,.62-11.74,.92-17.61,.15-2.98,.27-5.96,.46-8.94,.04-.72-.1-1.08-.88-1.08-1.54-.01-3.08-.08-4.63-.1-1.92-.02-3.84,0-5.92,0Zm15.02,38.78c.39-.03,.62-.11,.81-.06,1.31,.38,1.76-.21,1.8-1.45,.01-.47,.23-.92,.34-1.39,.37-1.5,1.42-2.77,1.22-4.49-.37-3.21-.56-6.45-.78-9.68-.15-2.25-.23-4.51-.36-6.77-.26-4.71-.53-9.42-.82-14.12-.02-.27-.31-.72-.52-.74-.91-.09-1.83-.13-2.73-.03-.29,.03-.72,.51-.76,.82-.2,1.51-.32,3.04-.4,4.57-.13,2.52-.18,5.05-.31,7.57-.3,6.04-.63,12.07-.94,18.11-.01,.24,.08,.54,.23,.72,1.62,2,2.88,4.18,3.22,6.93Zm19.15-159.82c-.39,4.91-.9,9.71-2.59,14.3-.08,.21,.29,.78,.57,.89,1.22,.47,2.47,.9,3.74,1.2,.37,.09,1.06-.17,1.26-.48,1.48-2.32,2.97-4.65,4.24-7.08,.5-.96,.72-2.26,.54-3.31-.1-.6-1.28-1.01-1.97-1.5-.11-.08-.21-.16-.32-.23-1.78-1.23-3.56-2.46-5.47-3.78Zm-38.48-.1c-2.08,1.32-4.08,2.65-6.15,3.87-.79,.47-.82,1.03-.66,1.76,.82,3.59,2.66,6.66,4.9,9.52,.2,.26,.69,.54,.95,.47,1.29-.37,2.55-.86,3.62-1.23-.91-4.89-1.79-9.64-2.67-14.38Zm23.33-28.29h-8.66c.14,.89,.05,1.78,.42,2.39,.79,1.31,1.82,2.47,2.74,3.7,.51,.69,1.04,.7,1.64,.11,1.12-1.12,2.24-2.23,3.37-3.33,.95-.93,1.07-1.93,.49-2.86Z"/><path class="cls-1" d="M111.39,127.31c-.4-7.36,1.35-14.31,4.5-20.87,2.73-5.68,5.74-11.23,8.75-16.77,.93-1.71,2.21-3.24,3.42-4.79,.22-.28,.88-.38,1.31-.33,7.83,.92,15.67,.95,23.51,.32,.82-.07,1.11,.05,1.45,.95,.6,1.56,1.36,3.22,2.53,4.35,1.6,1.54,2.7,3.33,3.71,5.19,1.75,3.23,3.57,6.45,4.99,9.83,2.57,6.1,4.55,12.41,4.93,19.09,.24,4.15,.5,8.3,.45,12.45-.03,3.26-.31,6.56-.85,9.77-1.19,7.17-2.62,14.3-3.95,21.45-.63,3.41-1.26,6.81-1.9,10.22-.17,.88-.39,1.75-.6,2.63-.29,1.15-1.12,1.71-2.3,1.63-2.75-.17-5.5-.38-8.25-.46-4.03-.12-8.06-.15-12.09-.22-6.67-.11-13.34-.24-20.01-.31-.97-.01-1.39-.28-1.56-1.27-1.01-5.61-2.08-11.2-3.12-16.8-.56-3.01-1.22-6.01-1.67-9.04-.65-4.39-1.12-8.8-1.72-13.19-.47-3.39-1.07-6.75-1.51-10.14-.16-1.21-.03-2.46-.03-3.69Zm8.2,2.29c0,1.45-.01,2.9,0,4.35,0,1.07,.27,2.12,1.42,2.42,4.06,1.04,8.11,2.31,12.24,2.89,4.39,.61,8.85,.89,13.33,.14,4.61-.78,9.08-1.83,13.26-3.98,1.91-.98,3.1-2.04,2.96-4.59-.36-6.51-1.09-12.97-2.86-19.23-2.19-7.74-4.82-15.37-7.24-23.04-.27-.87-.72-1.04-1.65-.97-6.74,.47-13.49,.97-20.23-.04-2.31-.34-2.41-.27-3.36,1.9-2.31,5.29-3.68,10.87-4.88,16.48-.85,3.97-1.13,8.06-1.93,12.05-.78,3.86-1.13,7.71-1.06,11.63Z"/><path class="cls-1" d="M178.13,74.56c-2.69-2.12-5.32-4.17-7.9-6.28-.25-.2-.22-.84-.18-1.26,.05-.48,.27-.93,.42-1.41-.24-.05-.31-.08-.32-.07-1.36,1.56-2.5,.53-3.68-.3-1.36-.96-2.69-1.99-4.13-2.81-1.9-1.08-2.15-2.78-2.08-4.69,.01-.3-.02-.6-.06-.9,0-.06-.13-.1-.34-.25-.16,.91-.28,1.75-.46,2.59-1.2,5.71-2.37,11.43-3.64,17.12-.31,1.39-.92,2.72-1.52,4.02-.15,.32-.79,.53-1.23,.58-3.44,.35-6.88,.89-10.33,.9-4.15,.01-8.3-.45-12.45-.67-.9-.05-1.34-.48-1.79-1.25-3.18-5.48-3.88-11.7-5.39-17.68-.4-1.59-.69-3.21-1.03-4.82l-.38,.02c-.05,.52-.21,1.07-.12,1.56,.21,1.09-.15,1.86-1.04,2.46-1.78,1.2-3.6,2.37-5.31,3.66-1.17,.88-1.79-.1-2.87-.82l.35,1.89c-3.06,1.93-6.13,3.86-9.25,5.83-1.88-3.27-2.63-6.37-.84-9.84,2.24-4.33,4.89-8.37,8.59-11.54,3.12-2.67,6.48-5.12,9.94-7.34,3.39-2.18,7.03-3.95,10.58-5.87,.67-.36,1.41-.59,2.4-1l-2.55,9.74c.97-.42,1.57-.64,2.13-.92,1.77-.88,3.55-1.74,5.29-2.67,.92-.49,1.78-.53,2.78-.21,2.46,.79,4.94,1.49,7.73,2.32l-2.09-8,.36-.24c1.53,.62,3.13,1.09,4.57,1.88,2.68,1.47,5.34,2.99,7.86,4.72,3.75,2.58,7.52,5.18,10.99,8.11,2.28,1.93,4.25,4.31,5.97,6.77,1.59,2.27,2.75,4.87,3.88,7.42,.41,.92,.37,2.17,.19,3.2-.39,2.23-1.29,4.27-3,6.05Z"/><path class="cls-1" d="M137.11,10.03c2.94,2.42,6.26,3.33,9.96,3.02,1.16-.1,1.73,.74,2.2,1.6,.33,.61,.47,1.32,.78,1.95,.2,.39,.49,.86,.86,1.02,1.52,.65,2.05,1.35,1.77,2.6-.35,1.55-.92,1.93-2.87,1.81-.03,.6-.06,1.2-.1,1.8-.07,1.05-.03,2.12-.26,3.14-.51,2.32-1.75,4.05-4.14,4.83-2.99,.98-6.03,1.22-9.03,.29-3.36-1.04-4.57-3.86-5.12-7.04-.21-1.2-.04-2.4-1.61-3.06-1.18-.5-1.24-2.04-.56-3.23,.39-.68,.89-1,1.61-.57,.91,.54,1.34,.04,1.77-.68,.69-1.15,1.42-2.27,2.13-3.4,.84-1.32,1.69-2.65,2.61-4.09Z"/><path class="cls-1" d="M144.97,184.08c1.95,0,3.86,0,5.76,0,1.49,0,2.98,.04,4.46-.07,1.18-.09,1.46,.4,1.32,1.46-.37,2.72-.72,5.45-1.03,8.18-.29,2.52-.52,5.04-.77,7.57-.35,3.56-.7,7.12-1.03,10.69-.08,.83-.01,1.67-.09,2.5-.09,.93-.55,1.39-1.58,1.26-1.34-.16-2.7-.21-4.06-.29-.83-.05-1.26-.42-1.32-1.3-.22-3.54-.49-7.09-.72-10.63-.32-4.99-.64-9.99-.92-14.98-.08-1.51-.01-3.02-.01-4.38Z"/><path class="cls-1" d="M125.97,183.5c2.08,0,4-.01,5.92,0,1.54,.01,3.08,.09,4.63,.1,.78,0,.93,.36,.88,1.08-.18,2.98-.3,5.96-.46,8.94-.3,5.87-.62,11.74-.92,17.61-.08,1.53-.11,3.06-.16,4.6-.03,.85-.46,1.13-1.28,1.07-1-.08-2.03,0-3.02-.15-.37-.06-.9-.55-.96-.9-.92-6.16-1.77-12.33-2.65-18.49-.62-4.29-1.26-8.58-1.89-12.88-.04-.3-.06-.6-.09-.98Z"/><path class="cls-1" d="M141,222.27c-.33-2.76-1.59-4.93-3.22-6.93-.15-.19-.25-.48-.23-.72,.3-6.04,.63-12.07,.94-18.11,.13-2.52,.18-5.05,.31-7.57,.08-1.53,.2-3.05,.4-4.57,.04-.32,.47-.79,.76-.82,.9-.1,1.83-.06,2.73,.03,.2,.02,.5,.47,.52,.74,.3,4.71,.56,9.42,.82,14.12,.13,2.26,.2,4.51,.36,6.77,.22,3.23,.41,6.46,.78,9.68,.2,1.72-.85,2.99-1.22,4.49-.11,.46-.33,.92-.34,1.39-.04,1.23-.49,1.83-1.8,1.45-.19-.06-.42,.02-.81,.06Z"/><path class="cls-1" d="M160.15,62.45c1.91,1.32,3.69,2.55,5.47,3.78,.11,.07,.21,.16,.32,.23,.69,.49,1.87,.9,1.97,1.5,.18,1.05-.04,2.35-.54,3.31-1.27,2.44-2.76,4.76-4.24,7.08-.2,.32-.88,.57-1.26,.48-1.27-.3-2.52-.73-3.74-1.2-.28-.11-.65-.68-.57-.89,1.68-4.59,2.2-9.39,2.59-14.3Z"/><path class="cls-1" d="M121.67,62.35c.88,4.74,1.76,9.49,2.67,14.38-1.07,.38-2.33,.86-3.62,1.23-.26,.07-.75-.21-.95-.47-2.24-2.86-4.07-5.93-4.9-9.52-.17-.73-.14-1.29,.66-1.76,2.07-1.22,4.07-2.55,6.15-3.87Z"/><path class="cls-1" d="M145,34.06c.57,.93,.45,1.93-.49,2.86-1.13,1.11-2.25,2.22-3.37,3.33-.6,.6-1.12,.58-1.64-.11-.92-1.23-1.95-2.39-2.74-3.7-.37-.61-.28-1.5-.42-2.39h8.66Z"/><path class="cls-2" d="M119.59,129.61c-.07-3.92,.29-7.77,1.06-11.63,.8-3.98,1.08-8.08,1.93-12.05,1.2-5.61,2.57-11.19,4.88-16.48,.95-2.17,1.05-2.24,3.36-1.9,6.74,1,13.49,.5,20.23,.04,.93-.06,1.37,.11,1.65,.97,2.42,7.68,5.05,15.3,7.24,23.04,1.77,6.25,2.5,12.71,2.86,19.23,.14,2.55-1.04,3.61-2.96,4.59-4.18,2.15-8.65,3.2-13.26,3.98-4.49,.76-8.94,.48-13.33-.14-4.13-.58-8.18-1.85-12.24-2.89-1.15-.3-1.41-1.35-1.42-2.42-.01-1.45,0-2.9,0-4.35Z"/></g></g><g id="Icono_2.psd-3"><g><path class="cls-2" d="M215.67,89.12c-1.34-.5-2.65-.8-3.77-1.43-4.69-2.65-9.06-5.71-12.36-10.09-1.21-1.61-2.73-3.01-3.8-4.7-1.85-2.95-3.31-6.11-1.77-9.68,.8-1.85,1.79-3.61,2.78-5.36,2.46-4.35,5.76-7.92,9.93-10.72,1.56-1.04,3.09-2.26,4.26-3.71,1.04-1.29,1.63-2.97,2.29-4.53,1.97-4.68,3.93-9.38,5.79-14.11,.48-1.23,.76-2.6,.84-3.93,.26-3.91,.31-7.83,.56-11.74,.23-3.62,1.93-5.72,5.42-6.53,4.34-1,8.72-1.15,13.13-.28,3.28,.65,5.3,2.63,5.79,5.84,.44,2.92,.43,5.91,.63,9.08,1.43,.99,1.78,2.98,.81,4.79-.15,.29-.16,.77-.04,1.08,1.24,3,2.46,6.01,3.8,8.97,1.48,3.28,3.04,6.52,4.63,9.75,.25,.51,.79,.89,1.25,1.27,4.02,3.33,8.33,6.35,11.98,10.05,3.35,3.39,5.94,7.52,7.29,12.21,.32,1.12,.3,2.45,.05,3.6-.76,3.51-2.84,6.28-5.27,8.82-3,3.14-5.92,6.38-9.66,8.68-2.27,1.39-4.57,2.74-7,4.19,.66,1.29,1.3,2.72,2.1,4.05,2.84,4.72,5.2,9.7,6.86,14.91,1.44,4.53,2.39,9.24,3.22,13.93,.64,3.6,1.11,7.3,1,10.93-.13,4.22-.83,8.45-1.57,12.62-.95,5.42-2.2,10.78-3.26,16.17-1.02,5.25-1.94,10.53-2.95,15.78-.22,1.15-.49,2.35-1.06,3.34-.37,.65-1.28,1.18-2.05,1.36-1.17,.27-2.43,.14-3.63,.31-.32,.05-.8,.55-.83,.87-.25,2.82-.38,5.65-.61,8.47-.24,2.96-.53,5.91-.8,8.87-.25,2.76-.51,5.53-.75,8.29-.1,1.17-.24,2.35-.25,3.53,0,.49,.12,1.16,.44,1.43,1.4,1.13,2.8,2.36,4.39,3.16,2.82,1.41,5.79,2.51,8.67,3.8,.44,.2,.73,.71,1.09,1.08l-.2,.32h-1.27c-16.95,0-33.91,0-50.86,0-.35,0-.74,.07-1.04-.06-.2-.09-.42-.52-.37-.72,.09-.32,.34-.71,.64-.85,3.14-1.6,6.36-3.06,9.44-4.77,2.18-1.21,2.37-2.32,1.91-4.79-.55-2.95-.87-5.94-1.28-8.91-.53-3.84-1.01-7.68-1.57-11.52-.38-2.62-.88-5.23-1.3-7.85-.16-1.01-1.13-1.59-2.37-1.35-.17,.03-.32,.14-.49,.17-2.19,.37-3.37-.43-3.74-2.47-.65-3.59-1.32-7.18-1.99-10.77-.9-4.82-1.87-9.64-2.72-14.47-1.04-5.94-2.18-11.87-2.93-17.85-.55-4.38-.85-8.84-.69-13.25,.25-7.01,2.13-13.69,5.38-19.95,1.04-2,1.85-4.11,2.89-6.11,1.59-3.07,3.29-6.08,4.98-9.19Zm-11.29,38.19c0,1.23-.13,2.48,.03,3.69,.44,3.39,1.04,6.75,1.51,10.14,.6,4.39,1.07,8.8,1.72,13.19,.45,3.03,1.1,6.03,1.67,9.04,1.05,5.6,2.12,11.19,3.12,16.8,.18,.99,.59,1.26,1.56,1.27,6.67,.07,13.34,.2,20.01,.31,4.03,.07,8.06,.1,12.09,.22,2.75,.08,5.5,.29,8.25,.46,1.18,.07,2.01-.48,2.3-1.63,.22-.87,.44-1.74,.6-2.63,.65-3.4,1.27-6.81,1.9-10.22,1.33-7.15,2.75-14.28,3.95-21.45,.54-3.22,.81-6.51,.85-9.77,.04-4.15-.22-8.31-.45-12.45-.38-6.68-2.36-12.99-4.93-19.09-1.42-3.38-3.24-6.6-4.99-9.83-1.01-1.87-2.12-3.66-3.71-5.19-1.17-1.13-1.94-2.79-2.53-4.35-.34-.9-.64-1.02-1.45-.95-7.85,.63-15.69,.6-23.51-.32-.43-.05-1.08,.04-1.31,.33-1.21,1.54-2.49,3.07-3.42,4.79-3.01,5.54-6.02,11.09-8.75,16.77-3.15,6.56-4.9,13.51-4.5,20.87Zm66.74-52.75c1.71-1.78,2.62-3.82,3-6.05,.18-1.04,.22-2.28-.19-3.2-1.13-2.55-2.29-5.15-3.88-7.42-1.71-2.46-3.69-4.84-5.97-6.77-3.47-2.94-7.24-5.53-10.99-8.11-2.51-1.73-5.18-3.25-7.86-4.72-1.44-.79-3.04-1.26-4.57-1.88l-.36,.24,2.09,8c-2.78-.83-5.27-1.53-7.73-2.32-.99-.32-1.85-.28-2.78,.21-1.74,.93-3.52,1.8-5.29,2.67-.57,.28-1.16,.51-2.13,.92l2.55-9.74c-.99,.4-1.73,.63-2.4,1-3.55,1.92-7.19,3.7-10.58,5.87-3.46,2.22-6.81,4.67-9.94,7.34-3.69,3.16-6.35,7.2-8.59,11.54-1.79,3.47-1.04,6.57,.84,9.84,3.13-1.97,6.2-3.9,9.25-5.83l-.35-1.89c1.08,.72,1.7,1.7,2.87,.82,1.72-1.29,3.53-2.46,5.31-3.66,.9-.6,1.25-1.37,1.04-2.46-.09-.5,.07-1.04,.12-1.56l.38-.02c.34,1.61,.63,3.23,1.03,4.82,1.51,5.98,2.21,12.2,5.39,17.68,.45,.78,.89,1.21,1.79,1.25,4.15,.23,8.3,.69,12.45,.67,3.44-.01,6.89-.55,10.33-.9,.44-.04,1.09-.26,1.23-.58,.6-1.3,1.21-2.63,1.52-4.02,1.27-5.69,2.44-11.41,3.64-17.12,.17-.83,.3-1.67,.46-2.59,.21,.15,.33,.19,.34,.25,.04,.3,.07,.6,.06,.9-.07,1.9,.19,3.6,2.08,4.69,1.44,.82,2.77,1.85,4.13,2.81,1.18,.83,2.31,1.86,3.68,.3,.01-.02,.08,.02,.32,.07-.15,.48-.37,.94-.42,1.41-.05,.42-.07,1.06,.18,1.26,2.57,2.11,5.2,4.16,7.9,6.28ZM230.11,10.03c-.92,1.45-1.77,2.77-2.61,4.09-.72,1.13-1.45,2.25-2.13,3.4-.43,.72-.86,1.22-1.77,.68-.73-.43-1.22-.11-1.61,.57-.68,1.18-.62,2.73,.56,3.23,1.57,.66,1.4,1.86,1.61,3.06,.55,3.18,1.76,6,5.12,7.04,2.99,.93,6.03,.68,9.03-.29,2.39-.78,3.63-2.52,4.14-4.83,.22-1.01,.18-2.09,.26-3.14,.04-.6,.07-1.2,.1-1.8,1.95,.12,2.53-.27,2.87-1.81,.28-1.25-.25-1.95-1.77-2.6-.37-.16-.66-.63-.86-1.02-.31-.62-.45-1.34-.78-1.95-.47-.86-1.04-1.7-2.2-1.6-3.69,.3-7.02-.61-9.96-3.02Zm7.86,174.04c0,1.35-.07,2.87,.01,4.38,.28,5,.6,9.99,.92,14.98,.23,3.54,.5,7.08,.72,10.63,.05,.88,.49,1.25,1.32,1.3,1.35,.08,2.71,.13,4.06,.29,1.03,.12,1.5-.34,1.58-1.26,.08-.83,.01-1.67,.09-2.5,.33-3.56,.68-7.13,1.03-10.69,.25-2.52,.48-5.05,.77-7.57,.31-2.73,.66-5.45,1.03-8.18,.14-1.06-.14-1.54-1.32-1.46-1.48,.11-2.97,.06-4.46,.07-1.9,0-3.81,0-5.76,0Zm-19-.58c.03,.37,.05,.68,.09,.98,.63,4.29,1.28,8.58,1.89,12.88,.88,6.16,1.73,12.33,2.65,18.49,.05,.35,.59,.84,.96,.9,.99,.15,2.01,.07,3.02,.15,.82,.07,1.26-.22,1.28-1.07,.05-1.53,.08-3.07,.16-4.6,.3-5.87,.62-11.74,.92-17.61,.15-2.98,.27-5.96,.46-8.94,.04-.72-.1-1.08-.88-1.08-1.54-.01-3.08-.08-4.63-.1-1.92-.02-3.84,0-5.92,0Zm15.02,38.78c.39-.03,.62-.11,.81-.06,1.31,.38,1.76-.21,1.8-1.45,.01-.47,.23-.92,.34-1.39,.37-1.5,1.42-2.77,1.22-4.49-.37-3.21-.56-6.45-.78-9.68-.15-2.25-.23-4.51-.36-6.77-.26-4.71-.53-9.42-.82-14.12-.02-.27-.31-.72-.52-.74-.91-.09-1.83-.13-2.73-.03-.29,.03-.72,.51-.76,.82-.2,1.51-.32,3.04-.4,4.57-.13,2.52-.18,5.05-.31,7.57-.3,6.04-.63,12.07-.94,18.11-.01,.24,.08,.54,.23,.72,1.62,2,2.88,4.18,3.22,6.93Zm19.15-159.82c-.39,4.91-.9,9.71-2.59,14.3-.08,.21,.29,.78,.57,.89,1.22,.47,2.47,.9,3.74,1.2,.37,.09,1.06-.17,1.26-.48,1.48-2.32,2.97-4.65,4.24-7.08,.5-.96,.72-2.26,.54-3.31-.1-.6-1.28-1.01-1.97-1.5-.11-.08-.21-.16-.32-.23-1.78-1.23-3.56-2.46-5.47-3.78Zm-38.48-.1c-2.08,1.32-4.08,2.65-6.15,3.87-.79,.47-.82,1.03-.66,1.76,.82,3.59,2.66,6.66,4.9,9.52,.2,.26,.69,.54,.95,.47,1.29-.37,2.55-.86,3.62-1.23-.91-4.89-1.79-9.64-2.67-14.38Zm23.33-28.29h-8.66c.14,.89,.05,1.78,.42,2.39,.79,1.31,1.82,2.47,2.74,3.7,.51,.69,1.04,.7,1.64,.11,1.12-1.12,2.24-2.23,3.37-3.33,.95-.93,1.07-1.93,.49-2.86Z"/><path class="cls-1" d="M204.39,127.31c-.4-7.36,1.35-14.31,4.5-20.87,2.73-5.68,5.74-11.23,8.75-16.77,.93-1.71,2.21-3.24,3.42-4.79,.22-.28,.88-.38,1.31-.33,7.83,.92,15.67,.95,23.51,.32,.82-.07,1.11,.05,1.45,.95,.6,1.56,1.36,3.22,2.53,4.35,1.6,1.54,2.7,3.33,3.71,5.19,1.75,3.23,3.57,6.45,4.99,9.83,2.57,6.1,4.55,12.41,4.93,19.09,.24,4.15,.5,8.3,.45,12.45-.03,3.26-.31,6.56-.85,9.77-1.19,7.17-2.62,14.3-3.95,21.45-.63,3.41-1.26,6.81-1.9,10.22-.17,.88-.39,1.75-.6,2.63-.29,1.15-1.12,1.71-2.3,1.63-2.75-.17-5.5-.38-8.25-.46-4.03-.12-8.06-.15-12.09-.22-6.67-.11-13.34-.24-20.01-.31-.97-.01-1.39-.28-1.56-1.27-1.01-5.61-2.08-11.2-3.12-16.8-.56-3.01-1.22-6.01-1.67-9.04-.65-4.39-1.12-8.8-1.72-13.19-.47-3.39-1.07-6.75-1.51-10.14-.16-1.21-.03-2.46-.03-3.69Zm8.2,2.29c0,1.45-.01,2.9,0,4.35,0,1.07,.27,2.12,1.42,2.42,4.06,1.04,8.11,2.31,12.24,2.89,4.39,.61,8.85,.89,13.33,.14,4.61-.78,9.08-1.83,13.26-3.98,1.91-.98,3.1-2.04,2.96-4.59-.36-6.51-1.09-12.97-2.86-19.23-2.19-7.74-4.82-15.37-7.24-23.04-.27-.87-.72-1.04-1.65-.97-6.74,.47-13.49,.97-20.23-.04-2.31-.34-2.41-.27-3.36,1.9-2.31,5.29-3.68,10.87-4.88,16.48-.85,3.97-1.13,8.06-1.93,12.05-.78,3.86-1.13,7.71-1.06,11.63Z"/><path class="cls-1" d="M271.13,74.56c-2.69-2.12-5.32-4.17-7.9-6.28-.25-.2-.22-.84-.18-1.26,.05-.48,.27-.93,.42-1.41-.24-.05-.31-.08-.32-.07-1.36,1.56-2.5,.53-3.68-.3-1.36-.96-2.69-1.99-4.13-2.81-1.9-1.08-2.15-2.78-2.08-4.69,.01-.3-.02-.6-.06-.9,0-.06-.13-.1-.34-.25-.16,.91-.28,1.75-.46,2.59-1.2,5.71-2.37,11.43-3.64,17.12-.31,1.39-.92,2.72-1.52,4.02-.15,.32-.79,.53-1.23,.58-3.44,.35-6.88,.89-10.33,.9-4.15,.01-8.3-.45-12.45-.67-.9-.05-1.34-.48-1.79-1.25-3.18-5.48-3.88-11.7-5.39-17.68-.4-1.59-.69-3.21-1.03-4.82l-.38,.02c-.05,.52-.21,1.07-.12,1.56,.21,1.09-.15,1.86-1.04,2.46-1.78,1.2-3.6,2.37-5.31,3.66-1.17,.88-1.79-.1-2.87-.82l.35,1.89c-3.06,1.93-6.13,3.86-9.25,5.83-1.88-3.27-2.63-6.37-.84-9.84,2.24-4.33,4.89-8.37,8.59-11.54,3.12-2.67,6.48-5.12,9.94-7.34,3.39-2.18,7.03-3.95,10.58-5.87,.67-.36,1.41-.59,2.4-1l-2.55,9.74c.97-.42,1.57-.64,2.13-.92,1.77-.88,3.55-1.74,5.29-2.67,.92-.49,1.78-.53,2.78-.21,2.46,.79,4.94,1.49,7.73,2.32l-2.09-8,.36-.24c1.53,.62,3.13,1.09,4.57,1.88,2.68,1.47,5.34,2.99,7.86,4.72,3.75,2.58,7.52,5.18,10.99,8.11,2.28,1.93,4.25,4.31,5.97,6.77,1.59,2.27,2.75,4.87,3.88,7.42,.41,.92,.37,2.17,.19,3.2-.39,2.23-1.29,4.27-3,6.05Z"/><path class="cls-1" d="M230.11,10.03c2.94,2.42,6.26,3.33,9.96,3.02,1.16-.1,1.73,.74,2.2,1.6,.33,.61,.47,1.32,.78,1.95,.2,.39,.49,.86,.86,1.02,1.52,.65,2.05,1.35,1.77,2.6-.35,1.55-.92,1.93-2.87,1.81-.03,.6-.06,1.2-.1,1.8-.07,1.05-.03,2.12-.26,3.14-.51,2.32-1.75,4.05-4.14,4.83-2.99,.98-6.03,1.22-9.03,.29-3.36-1.04-4.57-3.86-5.12-7.04-.21-1.2-.04-2.4-1.61-3.06-1.18-.5-1.24-2.04-.56-3.23,.39-.68,.89-1,1.61-.57,.91,.54,1.34,.04,1.77-.68,.69-1.15,1.42-2.27,2.13-3.4,.84-1.32,1.69-2.65,2.61-4.09Z"/><path class="cls-1" d="M237.97,184.08c1.95,0,3.86,0,5.76,0,1.49,0,2.98,.04,4.46-.07,1.18-.09,1.46,.4,1.32,1.46-.37,2.72-.72,5.45-1.03,8.18-.29,2.52-.52,5.04-.77,7.57-.35,3.56-.7,7.12-1.03,10.69-.08,.83-.01,1.67-.09,2.5-.09,.93-.55,1.39-1.58,1.26-1.34-.16-2.7-.21-4.06-.29-.83-.05-1.26-.42-1.32-1.3-.22-3.54-.49-7.09-.72-10.63-.32-4.99-.64-9.99-.92-14.98-.08-1.51-.01-3.02-.01-4.38Z"/><path class="cls-1" d="M218.97,183.5c2.08,0,4-.01,5.92,0,1.54,.01,3.08,.09,4.63,.1,.78,0,.93,.36,.88,1.08-.18,2.98-.3,5.96-.46,8.94-.3,5.87-.62,11.74-.92,17.61-.08,1.53-.11,3.06-.16,4.6-.03,.85-.46,1.13-1.28,1.07-1-.08-2.03,0-3.02-.15-.37-.06-.9-.55-.96-.9-.92-6.16-1.77-12.33-2.65-18.49-.62-4.29-1.26-8.58-1.89-12.88-.04-.3-.06-.6-.09-.98Z"/><path class="cls-1" d="M234,222.27c-.33-2.76-1.59-4.93-3.22-6.93-.15-.19-.25-.48-.23-.72,.3-6.04,.63-12.07,.94-18.11,.13-2.52,.18-5.05,.31-7.57,.08-1.53,.2-3.05,.4-4.57,.04-.32,.47-.79,.76-.82,.9-.1,1.83-.06,2.73,.03,.2,.02,.5,.47,.52,.74,.3,4.71,.56,9.42,.82,14.12,.13,2.26,.2,4.51,.36,6.77,.22,3.23,.41,6.46,.78,9.68,.2,1.72-.85,2.99-1.22,4.49-.11,.46-.33,.92-.34,1.39-.04,1.23-.49,1.83-1.8,1.45-.19-.06-.42,.02-.81,.06Z"/><path class="cls-1" d="M253.15,62.45c1.91,1.32,3.69,2.55,5.47,3.78,.11,.07,.21,.16,.32,.23,.69,.49,1.87,.9,1.97,1.5,.18,1.05-.04,2.35-.54,3.31-1.27,2.44-2.76,4.76-4.24,7.08-.2,.32-.88,.57-1.26,.48-1.27-.3-2.52-.73-3.74-1.2-.28-.11-.65-.68-.57-.89,1.68-4.59,2.2-9.39,2.59-14.3Z"/><path class="cls-1" d="M214.67,62.35c.88,4.74,1.76,9.49,2.67,14.38-1.07,.38-2.33,.86-3.62,1.23-.26,.07-.75-.21-.95-.47-2.24-2.86-4.07-5.93-4.9-9.52-.17-.73-.14-1.29,.66-1.76,2.07-1.22,4.07-2.55,6.15-3.87Z"/><path class="cls-1" d="M238,34.06c.57,.93,.45,1.93-.49,2.86-1.13,1.11-2.25,2.22-3.37,3.33-.6,.6-1.12,.58-1.64-.11-.92-1.23-1.95-2.39-2.74-3.7-.37-.61-.28-1.5-.42-2.39h8.66Z"/><path class="cls-2" d="M212.59,129.61c-.07-3.92,.29-7.77,1.06-11.63,.8-3.98,1.08-8.08,1.93-12.05,1.2-5.61,2.57-11.19,4.88-16.48,.95-2.17,1.05-2.24,3.36-1.9,6.74,1,13.49,.5,20.23,.04,.93-.06,1.37,.11,1.65,.97,2.42,7.68,5.05,15.3,7.24,23.04,1.77,6.25,2.5,12.71,2.86,19.23,.14,2.55-1.04,3.61-2.96,4.59-4.18,2.15-8.65,3.2-13.26,3.98-4.49,.76-8.94,.48-13.33-.14-4.13-.58-8.18-1.85-12.24-2.89-1.15-.3-1.41-1.35-1.42-2.42-.01-1.45,0-2.9,0-4.35Z"/></g></g><g id="Icono_2.psd-4"><g><path class="cls-2" d="M313.67,89.12c-1.34-.5-2.65-.8-3.77-1.43-4.69-2.65-9.06-5.71-12.36-10.09-1.21-1.61-2.73-3.01-3.8-4.7-1.85-2.95-3.31-6.11-1.77-9.68,.8-1.85,1.79-3.61,2.78-5.36,2.46-4.35,5.76-7.92,9.93-10.72,1.56-1.04,3.09-2.26,4.26-3.71,1.04-1.29,1.63-2.97,2.29-4.53,1.97-4.68,3.93-9.38,5.79-14.11,.48-1.23,.76-2.6,.84-3.93,.26-3.91,.31-7.83,.56-11.74,.23-3.62,1.93-5.72,5.42-6.53,4.34-1,8.72-1.15,13.13-.28,3.28,.65,5.3,2.63,5.79,5.84,.44,2.92,.43,5.91,.63,9.08,1.43,.99,1.78,2.98,.81,4.79-.15,.29-.16,.77-.04,1.08,1.24,3,2.46,6.01,3.8,8.97,1.48,3.28,3.04,6.52,4.63,9.75,.25,.51,.79,.89,1.25,1.27,4.02,3.33,8.33,6.35,11.98,10.05,3.35,3.39,5.94,7.52,7.29,12.21,.32,1.12,.3,2.45,.05,3.6-.76,3.51-2.84,6.28-5.27,8.82-3,3.14-5.92,6.38-9.66,8.68-2.27,1.39-4.57,2.74-7,4.19,.66,1.29,1.3,2.72,2.1,4.05,2.84,4.72,5.2,9.7,6.86,14.91,1.44,4.53,2.39,9.24,3.22,13.93,.64,3.6,1.11,7.3,1,10.93-.13,4.22-.83,8.45-1.57,12.62-.95,5.42-2.2,10.78-3.26,16.17-1.02,5.25-1.94,10.53-2.95,15.78-.22,1.15-.49,2.35-1.06,3.34-.37,.65-1.28,1.18-2.05,1.36-1.17,.27-2.43,.14-3.63,.31-.32,.05-.8,.55-.83,.87-.25,2.82-.38,5.65-.61,8.47-.24,2.96-.53,5.91-.8,8.87-.25,2.76-.51,5.53-.75,8.29-.1,1.17-.24,2.35-.25,3.53,0,.49,.12,1.16,.44,1.43,1.4,1.13,2.8,2.36,4.39,3.16,2.82,1.41,5.79,2.51,8.67,3.8,.44,.2,.73,.71,1.09,1.08l-.2,.32h-1.27c-16.95,0-33.91,0-50.86,0-.35,0-.74,.07-1.04-.06-.2-.09-.42-.52-.37-.72,.09-.32,.34-.71,.64-.85,3.14-1.6,6.36-3.06,9.44-4.77,2.18-1.21,2.37-2.32,1.91-4.79-.55-2.95-.87-5.94-1.28-8.91-.53-3.84-1.01-7.68-1.57-11.52-.38-2.62-.88-5.23-1.3-7.85-.16-1.01-1.13-1.59-2.37-1.35-.17,.03-.32,.14-.49,.17-2.19,.37-3.37-.43-3.74-2.47-.65-3.59-1.32-7.18-1.99-10.77-.9-4.82-1.87-9.64-2.72-14.47-1.04-5.94-2.18-11.87-2.93-17.85-.55-4.38-.85-8.84-.69-13.25,.25-7.01,2.13-13.69,5.38-19.95,1.04-2,1.85-4.11,2.89-6.11,1.59-3.07,3.29-6.08,4.98-9.19Zm-11.29,38.19c0,1.23-.13,2.48,.03,3.69,.44,3.39,1.04,6.75,1.51,10.14,.6,4.39,1.07,8.8,1.72,13.19,.45,3.03,1.1,6.03,1.67,9.04,1.05,5.6,2.12,11.19,3.12,16.8,.18,.99,.59,1.26,1.56,1.27,6.67,.07,13.34,.2,20.01,.31,4.03,.07,8.06,.1,12.09,.22,2.75,.08,5.5,.29,8.25,.46,1.18,.07,2.01-.48,2.3-1.63,.22-.87,.44-1.74,.6-2.63,.65-3.4,1.27-6.81,1.9-10.22,1.33-7.15,2.75-14.28,3.95-21.45,.54-3.22,.81-6.51,.85-9.77,.04-4.15-.22-8.31-.45-12.45-.38-6.68-2.36-12.99-4.93-19.09-1.42-3.38-3.24-6.6-4.99-9.83-1.01-1.87-2.12-3.66-3.71-5.19-1.17-1.13-1.94-2.79-2.53-4.35-.34-.9-.64-1.02-1.45-.95-7.85,.63-15.69,.6-23.51-.32-.43-.05-1.08,.04-1.31,.33-1.21,1.54-2.49,3.07-3.42,4.79-3.01,5.54-6.02,11.09-8.75,16.77-3.15,6.56-4.9,13.51-4.5,20.87Zm66.74-52.75c1.71-1.78,2.62-3.82,3-6.05,.18-1.04,.22-2.28-.19-3.2-1.13-2.55-2.29-5.15-3.88-7.42-1.71-2.46-3.69-4.84-5.97-6.77-3.47-2.94-7.24-5.53-10.99-8.11-2.51-1.73-5.18-3.25-7.86-4.72-1.44-.79-3.04-1.26-4.57-1.88l-.36,.24,2.09,8c-2.78-.83-5.27-1.53-7.73-2.32-.99-.32-1.85-.28-2.78,.21-1.74,.93-3.52,1.8-5.29,2.67-.57,.28-1.16,.51-2.13,.92l2.55-9.74c-.99,.4-1.73,.63-2.4,1-3.55,1.92-7.19,3.7-10.58,5.87-3.46,2.22-6.81,4.67-9.94,7.34-3.69,3.16-6.35,7.2-8.59,11.54-1.79,3.47-1.04,6.57,.84,9.84,3.13-1.97,6.2-3.9,9.25-5.83l-.35-1.89c1.08,.72,1.7,1.7,2.87,.82,1.72-1.29,3.53-2.46,5.31-3.66,.9-.6,1.25-1.37,1.04-2.46-.09-.5,.07-1.04,.12-1.56l.38-.02c.34,1.61,.63,3.23,1.03,4.82,1.51,5.98,2.21,12.2,5.39,17.68,.45,.78,.89,1.21,1.79,1.25,4.15,.23,8.3,.69,12.45,.67,3.44-.01,6.89-.55,10.33-.9,.44-.04,1.09-.26,1.23-.58,.6-1.3,1.21-2.63,1.52-4.02,1.27-5.69,2.44-11.41,3.64-17.12,.17-.83,.3-1.67,.46-2.59,.21,.15,.33,.19,.34,.25,.04,.3,.07,.6,.06,.9-.07,1.9,.19,3.6,2.08,4.69,1.44,.82,2.77,1.85,4.13,2.81,1.18,.83,2.31,1.86,3.68,.3,.01-.02,.08,.02,.32,.07-.15,.48-.37,.94-.42,1.41-.05,.42-.07,1.06,.18,1.26,2.57,2.11,5.2,4.16,7.9,6.28ZM328.11,10.03c-.92,1.45-1.77,2.77-2.61,4.09-.72,1.13-1.45,2.25-2.13,3.4-.43,.72-.86,1.22-1.77,.68-.73-.43-1.22-.11-1.61,.57-.68,1.18-.62,2.73,.56,3.23,1.57,.66,1.4,1.86,1.61,3.06,.55,3.18,1.76,6,5.12,7.04,2.99,.93,6.03,.68,9.03-.29,2.39-.78,3.63-2.52,4.14-4.83,.22-1.01,.18-2.09,.26-3.14,.04-.6,.07-1.2,.1-1.8,1.95,.12,2.53-.27,2.87-1.81,.28-1.25-.25-1.95-1.77-2.6-.37-.16-.66-.63-.86-1.02-.31-.62-.45-1.34-.78-1.95-.47-.86-1.04-1.7-2.2-1.6-3.69,.3-7.02-.61-9.96-3.02Zm7.86,174.04c0,1.35-.07,2.87,.01,4.38,.28,5,.6,9.99,.92,14.98,.23,3.54,.5,7.08,.72,10.63,.05,.88,.49,1.25,1.32,1.3,1.35,.08,2.71,.13,4.06,.29,1.03,.12,1.5-.34,1.58-1.26,.08-.83,.01-1.67,.09-2.5,.33-3.56,.68-7.13,1.03-10.69,.25-2.52,.48-5.05,.77-7.57,.31-2.73,.66-5.45,1.03-8.18,.14-1.06-.14-1.54-1.32-1.46-1.48,.11-2.97,.06-4.46,.07-1.9,0-3.81,0-5.76,0Zm-19-.58c.03,.37,.05,.68,.09,.98,.63,4.29,1.28,8.58,1.89,12.88,.88,6.16,1.73,12.33,2.65,18.49,.05,.35,.59,.84,.96,.9,.99,.15,2.01,.07,3.02,.15,.82,.07,1.26-.22,1.28-1.07,.05-1.53,.08-3.07,.16-4.6,.3-5.87,.62-11.74,.92-17.61,.15-2.98,.27-5.96,.46-8.94,.04-.72-.1-1.08-.88-1.08-1.54-.01-3.08-.08-4.63-.1-1.92-.02-3.84,0-5.92,0Zm15.02,38.78c.39-.03,.62-.11,.81-.06,1.31,.38,1.76-.21,1.8-1.45,.01-.47,.23-.92,.34-1.39,.37-1.5,1.42-2.77,1.22-4.49-.37-3.21-.56-6.45-.78-9.68-.15-2.25-.23-4.51-.36-6.77-.26-4.71-.53-9.42-.82-14.12-.02-.27-.31-.72-.52-.74-.91-.09-1.83-.13-2.73-.03-.29,.03-.72,.51-.76,.82-.2,1.51-.32,3.04-.4,4.57-.13,2.52-.18,5.05-.31,7.57-.3,6.04-.63,12.07-.94,18.11-.01,.24,.08,.54,.23,.72,1.62,2,2.88,4.18,3.22,6.93Zm19.15-159.82c-.39,4.91-.9,9.71-2.59,14.3-.08,.21,.29,.78,.57,.89,1.22,.47,2.47,.9,3.74,1.2,.37,.09,1.06-.17,1.26-.48,1.48-2.32,2.97-4.65,4.24-7.08,.5-.96,.72-2.26,.54-3.31-.1-.6-1.28-1.01-1.97-1.5-.11-.08-.21-.16-.32-.23-1.78-1.23-3.56-2.46-5.47-3.78Zm-38.48-.1c-2.08,1.32-4.08,2.65-6.15,3.87-.79,.47-.82,1.03-.66,1.76,.82,3.59,2.66,6.66,4.9,9.52,.2,.26,.69,.54,.95,.47,1.29-.37,2.55-.86,3.62-1.23-.91-4.89-1.79-9.64-2.67-14.38Zm23.33-28.29h-8.66c.14,.89,.05,1.78,.42,2.39,.79,1.31,1.82,2.47,2.74,3.7,.51,.69,1.04,.7,1.64,.11,1.12-1.12,2.24-2.23,3.37-3.33,.95-.93,1.07-1.93,.49-2.86Z"/><path class="cls-1" d="M302.39,127.31c-.4-7.36,1.35-14.31,4.5-20.87,2.73-5.68,5.74-11.23,8.75-16.77,.93-1.71,2.21-3.24,3.42-4.79,.22-.28,.88-.38,1.31-.33,7.83,.92,15.67,.95,23.51,.32,.82-.07,1.11,.05,1.45,.95,.6,1.56,1.36,3.22,2.53,4.35,1.6,1.54,2.7,3.33,3.71,5.19,1.75,3.23,3.57,6.45,4.99,9.83,2.57,6.1,4.55,12.41,4.93,19.09,.24,4.15,.5,8.3,.45,12.45-.03,3.26-.31,6.56-.85,9.77-1.19,7.17-2.62,14.3-3.95,21.45-.63,3.41-1.26,6.81-1.9,10.22-.17,.88-.39,1.75-.6,2.63-.29,1.15-1.12,1.71-2.3,1.63-2.75-.17-5.5-.38-8.25-.46-4.03-.12-8.06-.15-12.09-.22-6.67-.11-13.34-.24-20.01-.31-.97-.01-1.39-.28-1.56-1.27-1.01-5.61-2.08-11.2-3.12-16.8-.56-3.01-1.22-6.01-1.67-9.04-.65-4.39-1.12-8.8-1.72-13.19-.47-3.39-1.07-6.75-1.51-10.14-.16-1.21-.03-2.46-.03-3.69Zm8.2,2.29c0,1.45-.01,2.9,0,4.35,0,1.07,.27,2.12,1.42,2.42,4.06,1.04,8.11,2.31,12.24,2.89,4.39,.61,8.85,.89,13.33,.14,4.61-.78,9.08-1.83,13.26-3.98,1.91-.98,3.1-2.04,2.96-4.59-.36-6.51-1.09-12.97-2.86-19.23-2.19-7.74-4.82-15.37-7.24-23.04-.27-.87-.72-1.04-1.65-.97-6.74,.47-13.49,.97-20.23-.04-2.31-.34-2.41-.27-3.36,1.9-2.31,5.29-3.68,10.87-4.88,16.48-.85,3.97-1.13,8.06-1.93,12.05-.78,3.86-1.13,7.71-1.06,11.63Z"/><path class="cls-1" d="M369.13,74.56c-2.69-2.12-5.32-4.17-7.9-6.28-.25-.2-.22-.84-.18-1.26,.05-.48,.27-.93,.42-1.41-.24-.05-.31-.08-.32-.07-1.36,1.56-2.5,.53-3.68-.3-1.36-.96-2.69-1.99-4.13-2.81-1.9-1.08-2.15-2.78-2.08-4.69,.01-.3-.02-.6-.06-.9,0-.06-.13-.1-.34-.25-.16,.91-.28,1.75-.46,2.59-1.2,5.71-2.37,11.43-3.64,17.12-.31,1.39-.92,2.72-1.52,4.02-.15,.32-.79,.53-1.23,.58-3.44,.35-6.88,.89-10.33,.9-4.15,.01-8.3-.45-12.45-.67-.9-.05-1.34-.48-1.79-1.25-3.18-5.48-3.88-11.7-5.39-17.68-.4-1.59-.69-3.21-1.03-4.82l-.38,.02c-.05,.52-.21,1.07-.12,1.56,.21,1.09-.15,1.86-1.04,2.46-1.78,1.2-3.6,2.37-5.31,3.66-1.17,.88-1.79-.1-2.87-.82l.35,1.89c-3.06,1.93-6.13,3.86-9.25,5.83-1.88-3.27-2.63-6.37-.84-9.84,2.24-4.33,4.89-8.37,8.59-11.54,3.12-2.67,6.48-5.12,9.94-7.34,3.39-2.18,7.03-3.95,10.58-5.87,.67-.36,1.41-.59,2.4-1l-2.55,9.74c.97-.42,1.57-.64,2.13-.92,1.77-.88,3.55-1.74,5.29-2.67,.92-.49,1.78-.53,2.78-.21,2.46,.79,4.94,1.49,7.73,2.32l-2.09-8,.36-.24c1.53,.62,3.13,1.09,4.57,1.88,2.68,1.47,5.34,2.99,7.86,4.72,3.75,2.58,7.52,5.18,10.99,8.11,2.28,1.93,4.25,4.31,5.97,6.77,1.59,2.27,2.75,4.87,3.88,7.42,.41,.92,.37,2.17,.19,3.2-.39,2.23-1.29,4.27-3,6.05Z"/><path class="cls-1" d="M328.11,10.03c2.94,2.42,6.26,3.33,9.96,3.02,1.16-.1,1.73,.74,2.2,1.6,.33,.61,.47,1.32,.78,1.95,.2,.39,.49,.86,.86,1.02,1.52,.65,2.05,1.35,1.77,2.6-.35,1.55-.92,1.93-2.87,1.81-.03,.6-.06,1.2-.1,1.8-.07,1.05-.03,2.12-.26,3.14-.51,2.32-1.75,4.05-4.14,4.83-2.99,.98-6.03,1.22-9.03,.29-3.36-1.04-4.57-3.86-5.12-7.04-.21-1.2-.04-2.4-1.61-3.06-1.18-.5-1.24-2.04-.56-3.23,.39-.68,.89-1,1.61-.57,.91,.54,1.34,.04,1.77-.68,.69-1.15,1.42-2.27,2.13-3.4,.84-1.32,1.69-2.65,2.61-4.09Z"/><path class="cls-1" d="M335.97,184.08c1.95,0,3.86,0,5.76,0,1.49,0,2.98,.04,4.46-.07,1.18-.09,1.46,.4,1.32,1.46-.37,2.72-.72,5.45-1.03,8.18-.29,2.52-.52,5.04-.77,7.57-.35,3.56-.7,7.12-1.03,10.69-.08,.83-.01,1.67-.09,2.5-.09,.93-.55,1.39-1.58,1.26-1.34-.16-2.7-.21-4.06-.29-.83-.05-1.26-.42-1.32-1.3-.22-3.54-.49-7.09-.72-10.63-.32-4.99-.64-9.99-.92-14.98-.08-1.51-.01-3.02-.01-4.38Z"/><path class="cls-1" d="M316.97,183.5c2.08,0,4-.01,5.92,0,1.54,.01,3.08,.09,4.63,.1,.78,0,.93,.36,.88,1.08-.18,2.98-.3,5.96-.46,8.94-.3,5.87-.62,11.74-.92,17.61-.08,1.53-.11,3.06-.16,4.6-.03,.85-.46,1.13-1.28,1.07-1-.08-2.03,0-3.02-.15-.37-.06-.9-.55-.96-.9-.92-6.16-1.77-12.33-2.65-18.49-.62-4.29-1.26-8.58-1.89-12.88-.04-.3-.06-.6-.09-.98Z"/><path class="cls-1" d="M332,222.27c-.33-2.76-1.59-4.93-3.22-6.93-.15-.19-.25-.48-.23-.72,.3-6.04,.63-12.07,.94-18.11,.13-2.52,.18-5.05,.31-7.57,.08-1.53,.2-3.05,.4-4.57,.04-.32,.47-.79,.76-.82,.9-.1,1.83-.06,2.73,.03,.2,.02,.5,.47,.52,.74,.3,4.71,.56,9.42,.82,14.12,.13,2.26,.2,4.51,.36,6.77,.22,3.23,.41,6.46,.78,9.68,.2,1.72-.85,2.99-1.22,4.49-.11,.46-.33,.92-.34,1.39-.04,1.23-.49,1.83-1.8,1.45-.19-.06-.42,.02-.81,.06Z"/><path class="cls-1" d="M351.15,62.45c1.91,1.32,3.69,2.55,5.47,3.78,.11,.07,.21,.16,.32,.23,.69,.49,1.87,.9,1.97,1.5,.18,1.05-.04,2.35-.54,3.31-1.27,2.44-2.76,4.76-4.24,7.08-.2,.32-.88,.57-1.26,.48-1.27-.3-2.52-.73-3.74-1.2-.28-.11-.65-.68-.57-.89,1.68-4.59,2.2-9.39,2.59-14.3Z"/><path class="cls-1" d="M312.67,62.35c.88,4.74,1.76,9.49,2.67,14.38-1.07,.38-2.33,.86-3.62,1.23-.26,.07-.75-.21-.95-.47-2.24-2.86-4.07-5.93-4.9-9.52-.17-.73-.14-1.29,.66-1.76,2.07-1.22,4.07-2.55,6.15-3.87Z"/><path class="cls-1" d="M336,34.06c.57,.93,.45,1.93-.49,2.86-1.13,1.11-2.25,2.22-3.37,3.33-.6,.6-1.12,.58-1.64-.11-.92-1.23-1.95-2.39-2.74-3.7-.37-.61-.28-1.5-.42-2.39h8.66Z"/><path class="cls-2" d="M310.59,129.61c-.07-3.92,.29-7.77,1.06-11.63,.8-3.98,1.08-8.08,1.93-12.05,1.2-5.61,2.57-11.19,4.88-16.48,.95-2.17,1.05-2.24,3.36-1.9,6.74,1,13.49,.5,20.23,.04,.93-.06,1.37,.11,1.65,.97,2.42,7.68,5.05,15.3,7.24,23.04,1.77,6.25,2.5,12.71,2.86,19.23,.14,2.55-1.04,3.61-2.96,4.59-4.18,2.15-8.65,3.2-13.26,3.98-4.49,.76-8.94,.48-13.33-.14-4.13-.58-8.18-1.85-12.24-2.89-1.15-.3-1.41-1.35-1.42-2.42-.01-1.45,0-2.9,0-4.35Z"/></g></g><g id="Icono_2.psd-5"><g><path class="cls-3" d="M414.67,89.12c-1.34-.5-2.65-.8-3.77-1.43-4.69-2.65-9.06-5.71-12.36-10.09-1.21-1.61-2.73-3.01-3.8-4.7-1.85-2.95-3.31-6.11-1.77-9.68,.8-1.85,1.79-3.61,2.78-5.36,2.46-4.35,5.76-7.92,9.93-10.72,1.56-1.04,3.09-2.26,4.26-3.71,1.04-1.29,1.63-2.97,2.29-4.53,1.97-4.68,3.93-9.38,5.79-14.11,.48-1.23,.76-2.6,.84-3.93,.26-3.91,.31-7.83,.56-11.74,.23-3.62,1.93-5.72,5.42-6.53,4.34-1,8.72-1.15,13.13-.28,3.28,.65,5.3,2.63,5.79,5.84,.44,2.92,.43,5.91,.63,9.08,1.43,.99,1.78,2.98,.81,4.79-.15,.29-.16,.77-.04,1.08,1.24,3,2.46,6.01,3.8,8.97,1.48,3.28,3.04,6.52,4.63,9.75,.25,.51,.79,.89,1.25,1.27,4.02,3.33,8.33,6.35,11.98,10.05,3.35,3.39,5.94,7.52,7.29,12.21,.32,1.12,.3,2.45,.05,3.6-.76,3.51-2.84,6.28-5.27,8.82-3,3.14-5.92,6.38-9.66,8.68-2.27,1.39-4.57,2.74-7,4.19,.66,1.29,1.3,2.72,2.1,4.05,2.84,4.72,5.2,9.7,6.86,14.91,1.44,4.53,2.39,9.24,3.22,13.93,.64,3.6,1.11,7.3,1,10.93-.13,4.22-.83,8.45-1.57,12.62-.95,5.42-2.2,10.78-3.26,16.17-1.02,5.25-1.94,10.53-2.95,15.78-.22,1.15-.49,2.35-1.06,3.34-.37,.65-1.28,1.18-2.05,1.36-1.17,.27-2.43,.14-3.63,.31-.32,.05-.8,.55-.83,.87-.25,2.82-.38,5.65-.61,8.47-.24,2.96-.53,5.91-.8,8.87-.25,2.76-.51,5.53-.75,8.29-.1,1.17-.24,2.35-.25,3.53,0,.49,.12,1.16,.44,1.43,1.4,1.13,2.8,2.36,4.39,3.16,2.82,1.41,5.79,2.51,8.67,3.8,.44,.2,.73,.71,1.09,1.08l-.2,.32h-1.27c-16.95,0-33.91,0-50.86,0-.35,0-.74,.07-1.04-.06-.2-.09-.42-.52-.37-.72,.09-.32,.34-.71,.64-.85,3.14-1.6,6.36-3.06,9.44-4.77,2.18-1.21,2.37-2.32,1.91-4.79-.55-2.95-.87-5.94-1.28-8.91-.53-3.84-1.01-7.68-1.57-11.52-.38-2.62-.88-5.23-1.3-7.85-.16-1.01-1.13-1.59-2.37-1.35-.17,.03-.32,.14-.49,.17-2.19,.37-3.37-.43-3.74-2.47-.65-3.59-1.32-7.18-1.99-10.77-.9-4.82-1.87-9.64-2.72-14.47-1.04-5.94-2.18-11.87-2.93-17.85-.55-4.38-.85-8.84-.69-13.25,.25-7.01,2.13-13.69,5.38-19.95,1.04-2,1.85-4.11,2.89-6.11,1.59-3.07,3.29-6.08,4.98-9.19Zm-11.29,38.19c0,1.23-.13,2.48,.03,3.69,.44,3.39,1.04,6.75,1.51,10.14,.6,4.39,1.07,8.8,1.72,13.19,.45,3.03,1.1,6.03,1.67,9.04,1.05,5.6,2.12,11.19,3.12,16.8,.18,.99,.59,1.26,1.56,1.27,6.67,.07,13.34,.2,20.01,.31,4.03,.07,8.06,.1,12.09,.22,2.75,.08,5.5,.29,8.25,.46,1.18,.07,2.01-.48,2.3-1.63,.22-.87,.44-1.74,.6-2.63,.65-3.4,1.27-6.81,1.9-10.22,1.33-7.15,2.75-14.28,3.95-21.45,.54-3.22,.81-6.51,.85-9.77,.04-4.15-.22-8.31-.45-12.45-.38-6.68-2.36-12.99-4.93-19.09-1.42-3.38-3.24-6.6-4.99-9.83-1.01-1.87-2.12-3.66-3.71-5.19-1.17-1.13-1.94-2.79-2.53-4.35-.34-.9-.64-1.02-1.45-.95-7.85,.63-15.69,.6-23.51-.32-.43-.05-1.08,.04-1.31,.33-1.21,1.54-2.49,3.07-3.42,4.79-3.01,5.54-6.02,11.09-8.75,16.77-3.15,6.56-4.9,13.51-4.5,20.87Zm66.74-52.75c1.71-1.78,2.62-3.82,3-6.05,.18-1.04,.22-2.28-.19-3.2-1.13-2.55-2.29-5.15-3.88-7.42-1.71-2.46-3.69-4.84-5.97-6.77-3.47-2.94-7.24-5.53-10.99-8.11-2.51-1.73-5.18-3.25-7.86-4.72-1.44-.79-3.04-1.26-4.57-1.88l-.36,.24,2.09,8c-2.78-.83-5.27-1.53-7.73-2.32-.99-.32-1.85-.28-2.78,.21-1.74,.93-3.52,1.8-5.29,2.67-.57,.28-1.16,.51-2.13,.92l2.55-9.74c-.99,.4-1.73,.63-2.4,1-3.55,1.92-7.19,3.7-10.58,5.87-3.46,2.22-6.81,4.67-9.94,7.34-3.69,3.16-6.35,7.2-8.59,11.54-1.79,3.47-1.04,6.57,.84,9.84,3.13-1.97,6.2-3.9,9.25-5.83l-.35-1.89c1.08,.72,1.7,1.7,2.87,.82,1.72-1.29,3.53-2.46,5.31-3.66,.9-.6,1.25-1.37,1.04-2.46-.09-.5,.07-1.04,.12-1.56l.38-.02c.34,1.61,.63,3.23,1.03,4.82,1.51,5.98,2.21,12.2,5.39,17.68,.45,.78,.89,1.21,1.79,1.25,4.15,.23,8.3,.69,12.45,.67,3.44-.01,6.89-.55,10.33-.9,.44-.04,1.09-.26,1.23-.58,.6-1.3,1.21-2.63,1.52-4.02,1.27-5.69,2.44-11.41,3.64-17.12,.17-.83,.3-1.67,.46-2.59,.21,.15,.33,.19,.34,.25,.04,.3,.07,.6,.06,.9-.07,1.9,.19,3.6,2.08,4.69,1.44,.82,2.77,1.85,4.13,2.81,1.18,.83,2.31,1.86,3.68,.3,.01-.02,.08,.02,.32,.07-.15,.48-.37,.94-.42,1.41-.05,.42-.07,1.06,.18,1.26,2.57,2.11,5.2,4.16,7.9,6.28ZM429.11,10.03c-.92,1.45-1.77,2.77-2.61,4.09-.72,1.13-1.45,2.25-2.13,3.4-.43,.72-.86,1.22-1.77,.68-.73-.43-1.22-.11-1.61,.57-.68,1.18-.62,2.73,.56,3.23,1.57,.66,1.4,1.86,1.61,3.06,.55,3.18,1.76,6,5.12,7.04,2.99,.93,6.03,.68,9.03-.29,2.39-.78,3.63-2.52,4.14-4.83,.22-1.01,.18-2.09,.26-3.14,.04-.6,.07-1.2,.1-1.8,1.95,.12,2.53-.27,2.87-1.81,.28-1.25-.25-1.95-1.77-2.6-.37-.16-.66-.63-.86-1.02-.31-.62-.45-1.34-.78-1.95-.47-.86-1.04-1.7-2.2-1.6-3.69,.3-7.02-.61-9.96-3.02Zm7.86,174.04c0,1.35-.07,2.87,.01,4.38,.28,5,.6,9.99,.92,14.98,.23,3.54,.5,7.08,.72,10.63,.05,.88,.49,1.25,1.32,1.3,1.35,.08,2.71,.13,4.06,.29,1.03,.12,1.5-.34,1.58-1.26,.08-.83,.01-1.67,.09-2.5,.33-3.56,.68-7.13,1.03-10.69,.25-2.52,.48-5.05,.77-7.57,.31-2.73,.66-5.45,1.03-8.18,.14-1.06-.14-1.54-1.32-1.46-1.48,.11-2.97,.06-4.46,.07-1.9,0-3.81,0-5.76,0Zm-19-.58c.03,.37,.05,.68,.09,.98,.63,4.29,1.28,8.58,1.89,12.88,.88,6.16,1.73,12.33,2.65,18.49,.05,.35,.59,.84,.96,.9,.99,.15,2.01,.07,3.02,.15,.82,.07,1.26-.22,1.28-1.07,.05-1.53,.08-3.07,.16-4.6,.3-5.87,.62-11.74,.92-17.61,.15-2.98,.27-5.96,.46-8.94,.04-.72-.1-1.08-.88-1.08-1.54-.01-3.08-.08-4.63-.1-1.92-.02-3.84,0-5.92,0Zm15.02,38.78c.39-.03,.62-.11,.81-.06,1.31,.38,1.76-.21,1.8-1.45,.01-.47,.23-.92,.34-1.39,.37-1.5,1.42-2.77,1.22-4.49-.37-3.21-.56-6.45-.78-9.68-.15-2.25-.23-4.51-.36-6.77-.26-4.71-.53-9.42-.82-14.12-.02-.27-.31-.72-.52-.74-.91-.09-1.83-.13-2.73-.03-.29,.03-.72,.51-.76,.82-.2,1.51-.32,3.04-.4,4.57-.13,2.52-.18,5.05-.31,7.57-.3,6.04-.63,12.07-.94,18.11-.01,.24,.08,.54,.23,.72,1.62,2,2.88,4.18,3.22,6.93Zm19.15-159.82c-.39,4.91-.9,9.71-2.59,14.3-.08,.21,.29,.78,.57,.89,1.22,.47,2.47,.9,3.74,1.2,.37,.09,1.06-.17,1.26-.48,1.48-2.32,2.97-4.65,4.24-7.08,.5-.96,.72-2.26,.54-3.31-.1-.6-1.28-1.01-1.97-1.5-.11-.08-.21-.16-.32-.23-1.78-1.23-3.56-2.46-5.47-3.78Zm-38.48-.1c-2.08,1.32-4.08,2.65-6.15,3.87-.79,.47-.82,1.03-.66,1.76,.82,3.59,2.66,6.66,4.9,9.52,.2,.26,.69,.54,.95,.47,1.29-.37,2.55-.86,3.62-1.23-.91-4.89-1.79-9.64-2.67-14.38Zm23.33-28.29h-8.66c.14,.89,.05,1.78,.42,2.39,.79,1.31,1.82,2.47,2.74,3.7,.51,.69,1.04,.7,1.64,.11,1.12-1.12,2.24-2.23,3.37-3.33,.95-.93,1.07-1.93,.49-2.86Z"/><path class="cls-1" d="M403.39,127.31c-.4-7.36,1.35-14.31,4.5-20.87,2.73-5.68,5.74-11.23,8.75-16.77,.93-1.71,2.21-3.24,3.42-4.79,.22-.28,.88-.38,1.31-.33,7.83,.92,15.67,.95,23.51,.32,.82-.07,1.11,.05,1.45,.95,.6,1.56,1.36,3.22,2.53,4.35,1.6,1.54,2.7,3.33,3.71,5.19,1.75,3.23,3.57,6.45,4.99,9.83,2.57,6.1,4.55,12.41,4.93,19.09,.24,4.15,.5,8.3,.45,12.45-.03,3.26-.31,6.56-.85,9.77-1.19,7.17-2.62,14.3-3.95,21.45-.63,3.41-1.26,6.81-1.9,10.22-.17,.88-.39,1.75-.6,2.63-.29,1.15-1.12,1.71-2.3,1.63-2.75-.17-5.5-.38-8.25-.46-4.03-.12-8.06-.15-12.09-.22-6.67-.11-13.34-.24-20.01-.31-.97-.01-1.39-.28-1.56-1.27-1.01-5.61-2.08-11.2-3.12-16.8-.56-3.01-1.22-6.01-1.67-9.04-.65-4.39-1.12-8.8-1.72-13.19-.47-3.39-1.07-6.75-1.51-10.14-.16-1.21-.03-2.46-.03-3.69Zm8.2,2.29c0,1.45-.01,2.9,0,4.35,0,1.07,.27,2.12,1.42,2.42,4.06,1.04,8.11,2.31,12.24,2.89,4.39,.61,8.85,.89,13.33,.14,4.61-.78,9.08-1.83,13.26-3.98,1.91-.98,3.1-2.04,2.96-4.59-.36-6.51-1.09-12.97-2.86-19.23-2.19-7.74-4.82-15.37-7.24-23.04-.27-.87-.72-1.04-1.65-.97-6.74,.47-13.49,.97-20.23-.04-2.31-.34-2.41-.27-3.36,1.9-2.31,5.29-3.68,10.87-4.88,16.48-.85,3.97-1.13,8.06-1.93,12.05-.78,3.86-1.13,7.71-1.06,11.63Z"/><path class="cls-1" d="M470.13,74.56c-2.69-2.12-5.32-4.17-7.9-6.28-.25-.2-.22-.84-.18-1.26,.05-.48,.27-.93,.42-1.41-.24-.05-.31-.08-.32-.07-1.36,1.56-2.5,.53-3.68-.3-1.36-.96-2.69-1.99-4.13-2.81-1.9-1.08-2.15-2.78-2.08-4.69,.01-.3-.02-.6-.06-.9,0-.06-.13-.1-.34-.25-.16,.91-.28,1.75-.46,2.59-1.2,5.71-2.37,11.43-3.64,17.12-.31,1.39-.92,2.72-1.52,4.02-.15,.32-.79,.53-1.23,.58-3.44,.35-6.88,.89-10.33,.9-4.15,.01-8.3-.45-12.45-.67-.9-.05-1.34-.48-1.79-1.25-3.18-5.48-3.88-11.7-5.39-17.68-.4-1.59-.69-3.21-1.03-4.82l-.38,.02c-.05,.52-.21,1.07-.12,1.56,.21,1.09-.15,1.86-1.04,2.46-1.78,1.2-3.6,2.37-5.31,3.66-1.17,.88-1.79-.1-2.87-.82l.35,1.89c-3.06,1.93-6.13,3.86-9.25,5.83-1.88-3.27-2.63-6.37-.84-9.84,2.24-4.33,4.89-8.37,8.59-11.54,3.12-2.67,6.48-5.12,9.94-7.34,3.39-2.18,7.03-3.95,10.58-5.87,.67-.36,1.41-.59,2.4-1l-2.55,9.74c.97-.42,1.57-.64,2.13-.92,1.77-.88,3.55-1.74,5.29-2.67,.92-.49,1.78-.53,2.78-.21,2.46,.79,4.94,1.49,7.73,2.32l-2.09-8,.36-.24c1.53,.62,3.13,1.09,4.57,1.88,2.68,1.47,5.34,2.99,7.86,4.72,3.75,2.58,7.52,5.18,10.99,8.11,2.28,1.93,4.25,4.31,5.97,6.77,1.59,2.27,2.75,4.87,3.88,7.42,.41,.92,.37,2.17,.19,3.2-.39,2.23-1.29,4.27-3,6.05Z"/><path class="cls-1" d="M429.11,10.03c2.94,2.42,6.26,3.33,9.96,3.02,1.16-.1,1.73,.74,2.2,1.6,.33,.61,.47,1.32,.78,1.95,.2,.39,.49,.86,.86,1.02,1.52,.65,2.05,1.35,1.77,2.6-.35,1.55-.92,1.93-2.87,1.81-.03,.6-.06,1.2-.1,1.8-.07,1.05-.03,2.12-.26,3.14-.51,2.32-1.75,4.05-4.14,4.83-2.99,.98-6.03,1.22-9.03,.29-3.36-1.04-4.57-3.86-5.12-7.04-.21-1.2-.04-2.4-1.61-3.06-1.18-.5-1.24-2.04-.56-3.23,.39-.68,.89-1,1.61-.57,.91,.54,1.34,.04,1.77-.68,.69-1.15,1.42-2.27,2.13-3.4,.84-1.32,1.69-2.65,2.61-4.09Z"/><path class="cls-1" d="M436.97,184.08c1.95,0,3.86,0,5.76,0,1.49,0,2.98,.04,4.46-.07,1.18-.09,1.46,.4,1.32,1.46-.37,2.72-.72,5.45-1.03,8.18-.29,2.52-.52,5.04-.77,7.57-.35,3.56-.7,7.12-1.03,10.69-.08,.83-.01,1.67-.09,2.5-.09,.93-.55,1.39-1.58,1.26-1.34-.16-2.7-.21-4.06-.29-.83-.05-1.26-.42-1.32-1.3-.22-3.54-.49-7.09-.72-10.63-.32-4.99-.64-9.99-.92-14.98-.08-1.51-.01-3.02-.01-4.38Z"/><path class="cls-1" d="M417.97,183.5c2.08,0,4-.01,5.92,0,1.54,.01,3.08,.09,4.63,.1,.78,0,.93,.36,.88,1.08-.18,2.98-.3,5.96-.46,8.94-.3,5.87-.62,11.74-.92,17.61-.08,1.53-.11,3.06-.16,4.6-.03,.85-.46,1.13-1.28,1.07-1-.08-2.03,0-3.02-.15-.37-.06-.9-.55-.96-.9-.92-6.16-1.77-12.33-2.65-18.49-.62-4.29-1.26-8.58-1.89-12.88-.04-.3-.06-.6-.09-.98Z"/><path class="cls-1" d="M433,222.27c-.33-2.76-1.59-4.93-3.22-6.93-.15-.19-.25-.48-.23-.72,.3-6.04,.63-12.07,.94-18.11,.13-2.52,.18-5.05,.31-7.57,.08-1.53,.2-3.05,.4-4.57,.04-.32,.47-.79,.76-.82,.9-.1,1.83-.06,2.73,.03,.2,.02,.5,.47,.52,.74,.3,4.71,.56,9.42,.82,14.12,.13,2.26,.2,4.51,.36,6.77,.22,3.23,.41,6.46,.78,9.68,.2,1.72-.85,2.99-1.22,4.49-.11,.46-.33,.92-.34,1.39-.04,1.23-.49,1.83-1.8,1.45-.19-.06-.42,.02-.81,.06Z"/><path class="cls-1" d="M452.15,62.45c1.91,1.32,3.69,2.55,5.47,3.78,.11,.07,.21,.16,.32,.23,.69,.49,1.87,.9,1.97,1.5,.18,1.05-.04,2.35-.54,3.31-1.27,2.44-2.76,4.76-4.24,7.08-.2,.32-.88,.57-1.26,.48-1.27-.3-2.52-.73-3.74-1.2-.28-.11-.65-.68-.57-.89,1.68-4.59,2.2-9.39,2.59-14.3Z"/><path class="cls-1" d="M413.67,62.35c.88,4.74,1.76,9.49,2.67,14.38-1.07,.38-2.33,.86-3.62,1.23-.26,.07-.75-.21-.95-.47-2.24-2.86-4.07-5.93-4.9-9.52-.17-.73-.14-1.29,.66-1.76,2.07-1.22,4.07-2.55,6.15-3.87Z"/><path class="cls-1" d="M437,34.06c.57,.93,.45,1.93-.49,2.86-1.13,1.11-2.25,2.22-3.37,3.33-.6,.6-1.12,.58-1.64-.11-.92-1.23-1.95-2.39-2.74-3.7-.37-.61-.28-1.5-.42-2.39h8.66Z"/><path class="cls-3" d="M411.59,129.61c-.07-3.92,.29-7.77,1.06-11.63,.8-3.98,1.08-8.08,1.93-12.05,1.2-5.61,2.57-11.19,4.88-16.48,.95-2.17,1.05-2.24,3.36-1.9,6.74,1,13.49,.5,20.23,.04,.93-.06,1.37,.11,1.65,.97,2.42,7.68,5.05,15.3,7.24,23.04,1.77,6.25,2.5,12.71,2.86,19.23,.14,2.55-1.04,3.61-2.96,4.59-4.18,2.15-8.65,3.2-13.26,3.98-4.49,.76-8.94,.48-13.33-.14-4.13-.58-8.18-1.85-12.24-2.89-1.15-.3-1.41-1.35-1.42-2.42-.01-1.45,0-2.9,0-4.35Z"/></g></g></svg>