<?xml version="1.0" encoding="utf-8"?>
<!-- Generator: Adobe Illustrator 26.3.1, SVG Export Plug-In . SVG Version: 6.00 Build 0)  -->
<svg version="1.1" id="Capa_4" xmlns="http://www.w3.org/2000/svg" xmlns:xlink="http://www.w3.org/1999/xlink" x="0px" y="0px"
	 viewBox="0 0 150 150" style="enable-background:new 0 0 150 150;" xml:space="preserve">
<style type="text/css">
	.st0{fill:#8080FF;}
	.st1{fill:#FFFFFF;}
</style>
<rect class="st0" width="150" height="150"/>
<g>
	<g>
		<g>
			<path class="st1" d="M19.6,75.4c-0.2,0-0.4-0.1-0.5-0.3c-0.1-0.3,0.1-0.6,0.3-0.6c9.2-3.1,26.6-9,27.3-9.2c0.2-0.1,0.5,0,0.7,0.2
				c0.1,0.2,0.1,0.6-0.2,0.7c-0.1,0-0.2,0.1-27.4,9.3C19.7,75.3,19.7,75.4,19.6,75.4z"/>
		</g>
		<g>
			<path class="st1" d="M130.4,75.4c-0.1,0-0.1,0-0.2,0c-29.4-10.1-29.6-10.2-29.7-10.2c-0.2-0.1-0.3-0.5-0.2-0.7
				c0.1-0.2,0.4-0.3,0.7-0.2c0.7,0.3,19.6,6.7,29.5,10.1c0.3,0.1,0.4,0.4,0.3,0.7C130.8,75.2,130.6,75.4,130.4,75.4z"/>
		</g>
	</g>
	<path class="st1" d="M48.1,64.9c-0.2-0.2,0-0.8,0-1c1-3.2,2-6.5,3-9.7c0.4-1.2,0.6-2.4,1-3.5c0,0,0.1,0,0.1,0.1
		c-0.2,0.2-0.5,0.4-0.7,0.6c-0.9,1-1.8,2-2.7,3c-1.1,1.2-2.2,2.5-3.3,3.7c-0.5,0.6-0.6,1.3-0.7,2c0,0.2-0.1,0.5-0.1,0.7
		c-0.1,0.5-0.4,0.7-0.9,0.6c-0.2,0-0.4,0.1-0.6,0.2c-0.3,0.2-0.5,0.2-0.8,0c-0.4-0.4-0.9-0.8-1.4-1.2c-0.5-0.4-0.5-0.9-0.4-1.4
		c0.2-1.1,0.9-1.9,1.8-2.6c0.2-0.1,0.4-0.3,0.5-0.5c3-4.5,6.1-9.1,9.1-13.6c0.7-1.1,1.7-1.9,2.9-2.4c0.3-0.1,0.5-0.3,0.5-0.7
		c0-0.3,0.1-0.6,0.1-0.9c0-0.2-0.1-0.4-0.1-0.6c-0.2,0.1-0.4,0.2-0.5,0.4c-0.4,0.3-0.7,0.3-1.1,0c-0.1-0.1-0.3-0.2-0.4-0.3
		c-0.4-0.3-0.7-0.5-1.2-0.5c-0.6,0-1-0.5-1.1-1.1c0-0.2-0.1-0.3-0.3-0.4c-1.2-0.9-1.6-2.3-0.8-3.6c0.2-0.3,0.2-0.6,0.1-0.9
		c-0.1-0.7,0-1.3,0.4-1.8c0-0.1,0.1-0.1,0.1-0.2c0.6-0.4,1.2-0.8,1.9-0.9c0.1,0,0.3-0.1,0.4-0.2c0.4-0.3,0.9-0.4,1.4-0.4
		c0.5,0,1,0,1.5-0.2c0.6-0.2,1.1,0,1.5,0.4c0.2,0.3,0.5,0.4,0.9,0.4c0.4,0,0.7,0.3,0.8,0.6c0.1,0.1,0.1,0.3,0.1,0.4
		c0.1,0.4,0.2,0.7,0.6,1c0.6,0.4,0.7,1.1,0.8,1.8c0,0.2,0,0.4,0,0.6c0,0.4,0,0.7,0.4,0.9c-0.1,0.7-0.2,1.4-0.2,2.1
		c-0.1,0.6-0.4,1-1,1.2c-0.2,0.1-0.5,0.2-0.7,0.2c-0.2,0.1-0.3,0.1-0.3,0.4c0,0.2,0,0.5-0.1,0.7c-0.1,0.5,0.1,0.8,0.4,1.2
		c0.9,1.1,1.8,2.3,2.7,3.4c0.5,0.6,0.8,1.3,0.8,2.1c0,0.3,0.1,0.7,0.1,1c0.1-0.1,0.1-0.2,0.2-0.3c0.9-1.7,1.8-3.4,2.8-5.1
		c0.6-1.1,1.3-2.1,2.3-2.8c0.4-0.3,0.7-0.6,1.1-0.9c0.1-0.1,0.1-0.2,0.1-0.3c0.1-1.8,0.1-3.6,0.4-5.3c0.1-0.9,0.2-1.8,0.3-2.7
		c0.1-0.8,0.4-1.3,1.1-1.8c1.5-1,3.1-1.2,4.7-0.7c0.5,0.1,1,0.3,1.5,0.5c0.8,0.4,1.3,1,1.5,1.9c0.2,0.7,0.4,1.4,0.7,2
		c0.1,0.1,0.2,0.3,0.3,0.4c0.3,0.2,0.6,0.3,0.9,0.5c-0.1,0.3-0.3,0.6-0.4,0.9c-0.2,0.5-0.3,1-0.3,1.5c0,0.4-0.1,0.8-0.1,1.2
		c-0.1,0.5-0.3,0.7-0.8,0.8c-0.6,0.1-1.1,0.2-1.7,0.2c-0.4,0-0.6,0.2-0.8,0.5c-0.2,0.3-0.2,0.6,0,0.9c0.2,0.2,0.4,0.5,0.6,0.7
		c1.1,1.4,2,2.9,2.6,4.5c0.2,0.8,0.3,1.6,0.4,2.4c0.1,0.6,0.2,1.3,0.1,1.9c0,0.1,0,0.2,0.1,0.3c0.2-0.2,0.4-0.4,0.6-0.7
		c0.9-1.3,1.7-2.7,2.6-4c-0.5-0.4-1-0.9-1.5-1.4c0.1-0.1,0.1-0.2,0.2-0.3c0.6-0.9,1.2-1.8,1.8-2.7c0.2-0.3,0.3-0.7,0.2-1.1
		c-0.5-1.4-0.7-2.8-0.3-4.3c0.6-2,1.8-3.5,3.9-4c1.2-0.3,2.5-0.2,3.7,0.1c0.5,0.1,0.9,0.4,1.1,0.9c0.3,0.7,0.6,1.4,0.9,2.1
		c0.1,0.1,0.1,0.3,0.1,0.5c0,0.7,0.2,1.1,0.8,1.5c0.4,0.3,0.4,0.4,0,0.7c-0.2,0.1-0.2,0.2-0.2,0.4c0,0.4,0,0.7,0,1.1
		c0,0.4-0.3,0.7-0.6,0.9c-0.5,0.3-1,0.5-1.5,0.8c-0.1,0-0.2,0.1-0.3,0.2c-0.5,0.3-0.5,0.3-0.4,1c0.5-0.2,1-0.4,1.4-0.5
		c0.8-0.3,1.4-0.8,2-1.3c2.2-2.1,4.4-4.1,6.6-6.1c1-0.9,2-1.9,3-2.9c0.1-0.1,0.1-0.2,0.2-0.3c0.2-0.5,0.3-1,0.4-1.5
		c0.1-0.3,0.2-0.4,0.5-0.4c0.1,0.2,0.1,0.3,0.2,0.5c-0.1,0.1-0.2,0.1-0.3,0.2c0.2,0,0.3,0,0.4,0.1c0.1,0.2,0.2,0.5,0.2,0.5
		c0.2,0,0.4-0.1,0.6-0.2c0,0.2-0.1,0.4-0.1,0.6c0,0.1,0,0.3,0.1,0.3c0.1,0,0.2,0,0.3-0.1c0.1,0,0.1-0.1,0.2-0.2c0,0.2,0,0.4,0.1,0.5
		c0.1,0.1,0.2,0.2,0.3,0.3c0.1-0.1,0.2-0.2,0.3-0.3c0.1-0.2,0-0.5,0.1-0.7c0,0-0.1,0-0.1,0c-0.1,0.3-0.1,0.5-0.2,0.8
		c0,0-0.1,0-0.1,0c0-0.1-0.1-0.2-0.1-0.4c0-0.3,0-0.6,0-0.9c0-0.2,0.1-0.3,0.3-0.4c0.2-0.1,0.3,0.1,0.3,0.2c0.1,0.1,0.2,0.2,0.2,0.3
		c0.2,0.3,0.3,0.6,0.1,0.9c-0.2,0.4-0.4,0.9-0.5,1.4c-0.1,0.3-0.3,0.4-0.5,0.6c-0.3,0.1-0.5,0.3-0.7,0.6c-1.8,2.2-3.7,4.4-5.4,6.6
		c-1.7,2-3.3,4.1-4.9,6.2c-0.1,0.1-0.1,0.2-0.1,0.3c0.3,0.8,0.2,1.6,0.1,2.3c0,1.3-0.1,2.7-0.1,4c0,1.4,0,2.7-0.1,4.1
		c0,1,0.1,1.9,0.4,2.8c0.5,1.4,0.9,2.9,1.4,4.3c0.3,1,0.7,1.9,1.1,2.8c0.1,0.2,0.1,0.4,0.2,0.6c-0.3-0.1-0.5-0.2-0.8-0.3
		c-2.1-0.7-4.3-1.3-6.4-2c-2.2-0.8-4.5-1.6-6.7-2.5c-0.3-0.1-0.6-0.2-0.9-0.3c-0.2-0.1-0.2-0.2-0.1-0.4c0.2-0.8,0.4-1.6,0.6-2.4
		c0.4-1.5,0.7-3,1.1-4.4c0.5-1.9,0.9-3.8,1.2-5.7c0,0,0-0.1,0-0.1c0,0-0.1,0-0.1,0.1c-1.3,1.7-2.5,3.4-3.8,5.1
		c-0.7,0.9-1.3,1.8-2,2.7c-0.2,0.2-0.2,0.5-0.1,0.7c0.3,1.4,0.6,2.7,0.9,4.1c0,0.2,0,0.3-0.2,0.3c-0.2,0-0.5,0-0.7-0.1
		c-1.4-0.4-2.9-0.8-4.3-1.2c-0.3-0.1-0.6,0-0.8,0.1c-2.1,0.6-4.3,1.1-6.4,1.7c-0.6,0.1-1.1,0.2-1.7,0.3c-0.1-0.5-0.2-1-0.3-1.4
		c-0.2-0.9-0.4-1.9-0.5-2.8c-0.2-1.2,0.2-2.3,0.5-3.4c0.2-0.8,0.5-1.6,0.8-2.4c0,0-0.1,0-0.1,0c0,0-0.1,0.1-0.1,0.1
		c-1.1,1.6-2.4,3.1-3.6,4.6c-0.3,0.3-0.5,0.7-0.8,1c-0.2,0.2-0.2,0.4-0.1,0.6c0.3,1.4,0.5,2.7,0.8,4.1c0.1,0.4,0.1,0.4-0.3,0.6
		c-2.9,0.9-5.8,1.8-8.7,2.7c-1,0.3-2,0.7-3,1c-0.1,0-0.2,0.1-0.4,0.1c0.1-0.5,0.3-0.9,0.4-1.3c0.1-0.4,0.2-0.8,0.3-1.1
		c0.6-2.2,1.2-4.5,1.8-6.7c0.3-1,0.4-2,0.6-3.1c0.1-0.4,0.2-0.8,0.3-1.3c-0.9,0-1.7,0-2.6,0c-0.1,0-0.2,0.1-0.2,0.2
		c-0.5,1.8-1,3.6-1.5,5.3c-0.6,2.1-1.2,4.3-1.8,6.4c-0.1,0.4-0.2,0.8-0.4,1.2C48.7,64.5,48.5,65,48.1,64.9
		C48.2,64.9,48.1,64.9,48.1,64.9z M68.4,49.7c0.2,0,0.3,0,0.4,0c2.6,0,5.2,0,7.8,0.1c0.9,0,1.9,0,2.8,0c0.2,0,0.3,0,0.3-0.2
		c-0.1-0.8-0.1-1.7-0.2-2.5c-0.2-1.4-0.3-2.7-0.7-4.1c-0.5-1.6-1.1-3.1-2.2-4.4c-0.3-0.3-0.5-0.6-1-0.7c-1.2-0.3-2.4-0.9-3.4-1.7
		c-0.3-0.3-0.6-0.3-0.9-0.1c-0.5,0.3-1,0.5-1.6,0.8c-0.8,0.4-1.6,0.8-2.1,1.6c-0.7,1.1-1.5,2.3-2.3,3.4c0,0.1-0.1,0.1-0.1,0.2
		c1.3,1.7,2.5,3.5,3.8,5.2c0.7-0.9,1.4-1.7,2.1-2.6c0.1,0.1,0.2,0.2,0.2,0.3c-0.1,0.1-0.2,0.3-0.3,0.4c-0.9,1.2-1.7,2.5-2.6,3.7
		C68.5,49.3,68.5,49.5,68.4,49.7z M43.8,60.9c0.1-0.2,0.2-0.3,0.3-0.4c0.1-0.5,0.3-1,0.3-1.5c0-0.6,0.3-1.1,0.7-1.4
		c0.3-0.3,0.6-0.6,0.9-0.9c0.5-0.6,1-1.2,1.5-1.8c0.9-1,1.8-1.9,2.6-2.9c1-1.1,1.9-2.4,2.8-3.5c0.4-0.6,0.9-1.1,1.3-1.6
		c0.2-0.3,0.3-0.2,0.6,0c0,0.1-0.1,0.1-0.1,0.2c-0.4,0.6-0.9,1.1-1.3,1.7c-0.2,0.2-0.2,0.5-0.4,0.9c0.9,0,1.6,0,2.3,0
		c0.3,0,0.4-0.1,0.5-0.4c0.2-0.9,0.4-1.8,0.6-2.7c0.1-0.6,0.2-1.3-0.1-1.9c-0.5-1.3-1-2.7-1.6-4c-0.1-0.2-0.2-0.3-0.4-0.2
		c-0.7,0.3-1.3,0.8-1.7,1.5c-2.8,4.2-5.7,8.4-8.5,12.5c-0.7,1-1.3,2.1-2.4,2.8c-0.1,0.1-0.2,0.1-0.2,0.2c-0.6,0.6-0.9,1.3-0.8,2.1
		c0,0.1,0.1,0.2,0.1,0.3c0,0,0.1,0,0.1,0c0-0.1,0-0.2,0-0.3c0-0.1,0.1-0.1,0.2-0.2c0.1,0.1,0.2,0.1,0.2,0.2c0,0.2,0,0.4,0,0.6
		c0,0.1,0.1,0.2,0.1,0.3c0,0,0.1,0,0.1,0c0-0.2,0-0.4,0.1-0.6c0-0.1,0.1-0.2,0.2-0.3c0.1,0.1,0.1,0.2,0.2,0.3c0,0.3,0,0.5,0,0.8
		c0,0.3,0.1,0.4,0.3,0.5c0.1-0.4-0.1-0.9,0.2-1.2c0,0,0.1,0,0.1,0c0,0.4,0.1,0.8,0.1,1.2c0.3-0.1,0.5-0.2,0.5-0.6c0-0.3,0-0.6,0.3-1
		C43.9,60,43.7,60.4,43.8,60.9z M55.2,34.6c-0.2-0.3-0.4-0.5-0.5-0.7c-0.3-0.3-0.7-0.4-1.1-0.2c-0.3,0.2-0.4,0.7-0.2,1
		c0.3,0.5,0.7,0.9,1.3,1c0,0,0.1,0,0,0c0.1,0.2,0.1,0.3,0.2,0.5c0.2,0.4,0.4,0.7,0.6,1.1c0.1,0.4,0.2,0.8,0.3,1.2
		c0,0.3-0.1,0.6-0.1,0.9c0,0.2-0.1,0.5,0,0.7c0.5,1,1,2,1.5,3c0.1,0.2,0.2,0.3,0.4,0.3c1,0,2,0,3,0c0.1,0,0.2,0,0.3,0
		c0-0.1-0.1-0.2-0.1-0.3c-0.5-1.1-1.2-2.1-2.1-3c-0.4-0.4-0.7-0.9-0.8-1.5c0-0.4,0.1-0.9-0.3-1.2c0.2-0.1,0.2-0.1,0.3-0.1
		c0.5-0.2,1-0.4,1.5-0.5c0.4-0.1,0.6-0.4,0.6-0.8c0.1-0.5,0.1-1,0.2-1.5c0-0.2,0-0.4-0.1-0.5c-0.2-0.2-0.3-0.4-0.3-0.7
		c0-0.3,0-0.7-0.1-1c-0.1-0.4-0.2-0.9-0.4-1.2c-0.6-0.8-0.5-0.8-1.3-0.3c-0.5,0.3-0.9,0.8-1.4,1.2c-0.5,0.4-0.9,0.9-1.1,1.5
		C55.5,33.7,55.3,34.1,55.2,34.6z M72.1,35.4c0.5,0.6,2.6,1.8,3.3,1.8c-0.1-1.4,0.9-2,1.8-2c0.5,0,1.1-0.1,1.7-0.1
		c0-1.4,0-2.6,0.7-3.8c-0.2-0.1-0.3-0.2-0.4-0.3c-0.6-0.3-0.9-0.7-1-1.3c-0.1-0.5-0.2-0.9-0.4-1.4c-0.1-0.4-0.4-0.5-0.7-0.3
		c-1.1,0.5-1.9,1.4-2.7,2.3c-0.3,0.3-0.6,0.7-0.9,1c-0.2-0.1-0.5-0.3-0.7-0.4c-0.1-0.1-0.3-0.1-0.4-0.1c-0.6,0.1-1,0.8-0.6,1.4
		c0.2,0.4,0.5,0.8,0.8,1.2c0.1,0.1,0.1,0.3,0.1,0.5C72.5,34.5,72.3,34.9,72.1,35.4z M63.3,54.9c0.1-0.1,0.2-0.1,0.2-0.2
		c1.7-2.2,3.3-4.3,5-6.5c0.1-0.1,0.1-0.2,0-0.4c-0.2-0.3-0.4-0.6-0.7-0.8c-1-1.3-1.9-2.6-2.9-3.9c0-0.1-0.1-0.1-0.2-0.2
		c-0.1,0.1-0.1,0.2-0.2,0.3c-0.8,1.4-1.5,2.9-2.3,4.4c-0.3,0.6-0.3,1.2-0.2,1.9c0.1,0.7,0.3,1.4,0.4,2
		C62.8,52.6,63.1,53.7,63.3,54.9z M86.9,34.3c0.2,0.3,0.4,0.6,0.6,0.8c0.2,0.2,0.3,0.5,0.3,0.8c0,0.8-0.1,1.7-0.1,2.5
		c0,0.1,0,0.2,0.1,0.3c0.6,0.5,1.2,1,1.8,1.5c0.4,0.3,0.7,0.5,1.2,0.8c0-0.2,0-0.3,0-0.4c0-0.6,0-1.2-0.1-1.8c0-0.5,0-0.5-0.5-0.5
		c0,0-0.1,0-0.2-0.1c0.5-0.3,1-0.6,1.4-0.9c0.5-0.3,1.1-0.6,1.7-0.9c0.2-0.1,0.3-0.3,0.3-0.6c0-0.6-0.2-1.3,0.4-1.8
		c-0.1-0.1-0.2-0.2-0.3-0.2c-0.5-0.3-0.6-0.8-0.6-1.4c-0.1-0.6-0.3-1.2-0.4-1.7c-0.1-0.2-0.2-0.3-0.3-0.5c-1.4,1.4-3.1,2.3-4.2,4
		c-0.2-0.1-0.3-0.2-0.5-0.4C87.3,34,87.1,34.2,86.9,34.3z M83.5,42.8c-0.1,0.2-0.2,0.3-0.3,0.4c-0.9,1.3-1.7,2.5-2.6,3.8
		c-0.6,0.8-0.6,0.8-0.5,1.7c0,0.2,0.1,0.4,0.1,0.5c0.2,1.3,0.5,2.6,0.7,3.9c0,0.1,0.1,0.2,0.1,0.3c0,0,0.1,0,0.1,0
		c1.9-2.4,3.7-4.9,5.6-7.3C85.6,45,84.6,44,83.5,42.8z M101.4,31.1c-2.3,2.2-4.6,4.4-6.9,6.6c1,0.9,2,1.8,3,2.6c2-2.5,4-4.9,5.9-7.4
		C102.8,32.4,102.1,31.7,101.4,31.1z M87.1,29.3c-0.2,0.1-0.3,0.1-0.4,0.2c-0.6,0.5-1.2,1-1.6,1.6c-1.3,1.8-1.7,3.7-0.6,5.8
		c0.2,0.4,0.2,0.8-0.1,1.2c-0.4,0.6-0.9,1.2-1.3,1.9c-0.2,0.3-0.3,0.5-0.4,0.8c0,0.1,0,0.2,0.1,0.3c0.4,0.2,0.8,0.4,1.1,0.6
		c0.1,0,0.1,0,0.1-0.1c0.1-0.1,0.1-0.1,0.2-0.2c0.7-1,1.4-1.9,2.6-2.4c0.4-0.2,0.6-0.6,0.6-1c0.1-0.5,0.1-0.9,0.1-1.4
		c0-0.5,0.1-1.1-0.4-1.5c-0.1,0-0.1-0.1-0.1-0.2c-0.3-0.5-0.1-1.2,0.4-1.5c0.2-0.1,0.2-0.2,0.2-0.4c-0.1-0.9-0.2-1.7-0.2-2.6
		C87.2,30.1,87.1,29.7,87.1,29.3z M92,29.7c-0.2-0.1-0.3-0.3-0.5-0.4c-0.1,0-0.1-0.1-0.2-0.1c-0.4-0.2-0.6-0.1-0.8,0.2
		c-0.6,0.9-1.1,1.8-1.6,2.7c0,0.1,0,0.2,0,0.4C89.9,31.5,91,30.6,92,29.7z"/>
	<path class="st1" d="M105.7,26.3c-0.1-0.2-0.1-0.4-0.2-0.6c-0.2-0.4-0.3-0.7-0.5-1.1c-0.1-0.1-0.3-0.3-0.5-0.3
		c-0.6-0.1-1-0.4-1.2-1c-0.1-0.4-0.2-0.9-0.2-1.3c0-0.5,0.4-0.8,0.9-0.5c0.7,0.3,1.2,0.8,1.4,1.5c0.1,0.2,0,0.6-0.1,0.8
		c-0.1,0.3-0.1,0.5,0,0.7c0.1,0.2,0.2,0.4,0.3,0.5C106.1,25.5,106,25.8,105.7,26.3z M104.9,23.8c0.2-0.1,0.2-0.3,0.2-0.5
		c0-0.5-0.2-0.8-0.5-0.9C104.8,22.9,104.8,23.3,104.9,23.8z"/>
	<path class="st1" d="M105.8,26.7c0.1-0.4,0.3-0.9,0.4-1.3c0-0.1,0.2-0.2,0.3-0.2c0.1,0.1,0.1,0.2,0.2,0.3c0.2,0.2,0.1,0.4-0.1,0.6
		c-0.2,0.2-0.5,0.5-0.7,0.7C105.9,26.8,105.9,26.7,105.8,26.7z"/>
	<path class="st1" d="M107.6,26.1c-0.4,0.1-0.5,0.4-0.5,0.7c0,0.2-0.2,0.4-0.4,0.6c0-0.5,0-1,0.3-1.4
		C107.1,25.8,107.4,25.8,107.6,26.1z"/>
	<path class="st1" d="M39.8,84.4c0,0.2,0,0.4,0,0.6c0,2.5,0,5.1,0,7.6c0,0.3,0,0.5-0.1,0.8c-0.1,0.5-0.4,0.7-0.9,0.7
		c-0.6,0-1.2,0.1-1.8,0.1c-0.8,0-1.1-0.3-1.1-1.1c0-5.9,0-11.9,0-17.8c0-0.7,0-1.4,0.1-2.1c0-0.2,0.2-0.5,0.4-0.6
		c1.9-1.1,4-1.6,6.2-2c1.6-0.2,3.4,0.8,3.7,2.9c0.5,2.7-0.1,5.1-2.1,7.1c-0.4,0.4-0.8,0.8-1.2,1.2c-0.1,0.1-0.2,0.4-0.1,0.6
		c0.7,1.9,1.3,3.8,2,5.7c0.5,1.3,0.9,2.6,1.3,4c0.1,0.3,0.2,0.6,0.3,0.9c0.2,0.6,0,1-0.6,1.1c-0.6,0.1-1.2,0.2-1.8,0.2
		c-0.4,0-0.6-0.1-0.7-0.5c-0.6-1.7-1.3-3.4-1.9-5.1c-0.5-1.4-1-2.8-1.5-4.2c0-0.1-0.1-0.1-0.1-0.2C39.8,84.4,39.8,84.4,39.8,84.4z
		 M39.8,80.6c0,0.1,1.3-0.5,1.4-0.6c0.8-0.6,1-2.2,1.1-3.1c0.1-0.9,0.3-2.8-0.4-3.5c-0.7-0.8-2.1-0.4-2.1,0.7c0,1.4,0,2.8,0,4.3
		C39.8,79.1,39.8,79.8,39.8,80.6z"/>
	<path class="st1" d="M81.5,77.2c1.5,0,2.9,0,4.2,0c0.5,0,0.6-0.2,0.6-0.6c0-2.8,0-6.7,0-9.6c0-0.2,0.2-0.3,0.3-0.2l2.2,0.9
		c0.1,0,0.2,0.1,0.2,0.2c0,2.6,0,5.9,0,8.5c0,0.3,0,0.6,0.4,0.7c0.1,0,0.3,0.3,0.3,0.5c0,0.4,0,0.9,0,1.4c0,0.1-0.1,0.4-0.2,0.4
		C89,79.4,89,79.7,89,80.1c0,4,0,8-0.1,12c0,0.8-0.3,1-1.1,1c-0.3,0-0.6,0-0.8-0.1c-0.5-0.1-0.8-0.4-0.8-1c0-3.9,0-7.8,0-11.8
		c0-0.5-0.1-0.7-0.6-0.6c-1.4,0.1-2.7,0.1-4.2,0.2c0,0.3,0,0.5,0,0.7c0,3.8,0,7.6,0,11.4c0,0.4-0.1,0.5-0.5,0.7
		c-1.1,0.5-2.2,0.4-3.4,0.2c-0.5-0.1-0.7-0.6-0.7-1.1c0-3.1,0-6.2,0-9.4c0-5.6,0-11.2,0-16.8c0-0.3,0-0.6,0-0.9
		c0.1-0.7,0.5-1.1,1.2-1c0.8,0.1,1.6,0.3,2.4,0.6c0.2,0.1,0.4,0.4,0.5,0.6c0.1,0.3,0.1,0.7,0.1,1c0.1,3.4,0.1,6.9,0.2,10.3
		C81.5,76.6,81.5,76.8,81.5,77.2z"/>
	<path class="st1" d="M51.3,82.3c0,0.3,0,0.4,0,0.6c0,3.3,0,6.6,0,9.9c0,0.3,0.1,0.4,0.6,0.6c1.3,0.5,2.6,0.3,4,0.2
		c0.6-0.1,0.8-0.5,0.8-1c0-2.7,0-5.4,0-8.1c0-4.9,0-9.7,0-14.6c0-0.3,0-0.5,0-0.8c-0.1-0.6-0.6-0.9-1.4-0.8c-1,0.1-1.9,0.3-2.8,0.5
		c-0.3,0.1-0.5,0.3-0.6,0.5c-0.1,0.3-0.1,0.6-0.2,0.9c-0.1,3-0.2,6-0.3,9c0,0.2,0,0.4,0,0.7L51.3,82.3z"/>
	<path class="st1" d="M104.6,71.5c-1.7-0.5-3.4-1-5.1-1.5c-0.1,0-0.2-0.1-0.3-0.1l-1.2-0.3c-0.2-0.1-0.3-0.1-0.4-0.1
		c-1.6-0.4-3.1-0.8-4.7-1.2c-0.1,0-0.3-0.1-0.5,0c-0.1,0-0.3,0.1-0.4,0.3c-0.3,0.6-0.6,1.2-0.8,1.8c-0.2,0.5-0.1,0.9,0.2,1
		c0.1,0.1,0.3,0.1,0.4,0.1c1.2,0.4,2.4,0.7,3.6,1.1c0,4.2,0,8.3,0,12.5c0,2.6,0,5.2,0,7.7c0,0.4,0.2,0.9,0.7,0.9
		c1.1,0.1,2.3,0.2,3.4-0.2c0.4-0.1,0.5-0.2,0.5-0.5c0-3.1,0-6.3,0-9.4c0-0.2,0-0.4,0-0.6l0-2.2c0-0.3,0-0.5,0-0.7
		c-0.1-2.1-0.1-4.1-0.2-6.2c1.2,0.4,2.4,0.7,3.6,1.1c0.2,0.1,0.5,0,0.6-0.4c0.3-0.8,0.6-1.7,0.6-2.6
		C104.8,71.6,104.7,71.5,104.6,71.5z"/>
	<path class="st1" d="M73.4,83.6c0-0.7,0-1.5-0.1-2.2c0-0.1,0-0.1-0.1-0.2c0,0-0.1,0-0.1,0l-4.8,0.2c-0.2,0-0.5,0-0.6,0.1
		c0,0.1-0.1,0.1-0.1,0.2c-0.1,0.5-0.1,1-0.1,1.5c0,0.2,0,0.4,0,0.7c0,0.1,0,0.2,0.1,0.3c0.1,0.1,0.2,0.1,0.3,0.1c0.8,0,1.6,0,2.4,0
		c0,0.9-0.1,1.8-0.1,2.1c-0.1,1-0.5,2.4-1.7,2.6c-0.9,0.1-1.7-0.7-2.1-1.5c-0.3-0.3-0.5-1.1-0.6-1.5c-0.1-0.5-0.2-1.1-0.3-1.7
		c-0.1-1.1-0.1-2.3,0-3.4c0.1-2.5,0.2-4.9,0.4-7.4c0.1-1.1,0.2-2.2,0.5-3.3c0.3-1,0.7-2.1,1.5-2.8c0.7-0.6,1.6-0.8,1.9,0.3
		c0.2,0.9,0,1.8,0.1,2.7c0.1,0.7,1,1.3,1.8,1.2c0.7-0.2,0.7-1.1,0.7-1.7c0-0.9-0.1-1.9-0.3-2.8c-0.6-2.4-3.3-4.9-5.8-3.2
		c-0.7,0.5-1.3,1.2-1.8,1.9c-0.9,1.5-1.6,3.1-2,4.8c-0.3,1-0.5,1.9-0.7,2.9c-0.4,2-0.5,3.9-0.6,5.9c0,0.9,0,1.8,0,2.7
		c0.1,2.7,0.4,5.4,1.6,7.9c0.8,1.6,2.1,2.7,3.8,3.1c2.2,0.5,5.3-0.9,6.1-3c0.4-1,0.6-1.9,0.6-3C73.4,86.2,73.5,84.6,73.4,83.6z"/>
	<path class="st1" d="M104.1,90c0,0,0-0.1,0-0.1c0-0.5-0.1-1.5,0.5-1.8c0.7-0.3,1.3-0.1,2.2,0c0.6,0,0.6,1,0.7,1.4
		c0.1,1,0.5,2.2,1.8,1.9c0.6-0.1,1.1-0.5,1.4-1c0.7-0.9,0.9-2.1,0.5-3.1c-0.8-2.1-2.5-2.8-3.8-4.4c-1.4-1.7-1.4-4.2-0.2-6
		c1.2-1.8,3.4-2.4,5.5-2.2c1.5,0.1,2.8,0.9,3.8,2.2c0.4,0.5,0.5,1.3,0.2,1.7c-0.4,0.5-1.4,0.8-2,0.5c-0.2-0.1-0.3-0.3-0.4-0.4
		c-0.3-0.4-0.4-0.9-0.8-1.3c-0.5-0.6-1.3-0.8-2-0.4c-0.5,0.3-0.9,0.9-0.8,1.5c0,0.5,0.3,0.9,0.5,1.4c1.2,2,2.8,3.6,4,5.6
		c1.1,1.8,1.6,4,0.5,5.8c-1.5,2.5-4.3,3.5-7,3.4c-1.5-0.1-3-0.9-3.8-2.2C104.4,91.8,104.2,90.9,104.1,90z"/>
	<g>
		<path class="st1" d="M26.9,111c-0.9,0-1.7-0.2-2.3-0.5c-0.6-0.3-1.1-0.8-1.5-1.5c-0.3-0.7-0.5-1.5-0.6-2.6c0-0.5,0-1,0-1.4
			c0-0.4,0-0.9,0-1.4c0-1,0.2-1.9,0.6-2.6c0.4-0.7,0.9-1.2,1.5-1.5c0.6-0.3,1.4-0.5,2.3-0.5s1.6,0.2,2.3,0.5
			c0.6,0.3,1.2,0.8,1.5,1.5c0.4,0.7,0.6,1.5,0.6,2.6c0,0.5,0,1,0,1.4c0,0.4,0,0.9,0,1.4c0,1-0.2,1.9-0.6,2.6
			c-0.3,0.7-0.8,1.2-1.5,1.5C28.6,110.9,27.9,111,26.9,111z M26.9,110c1,0,1.7-0.3,2.4-0.9c0.6-0.6,0.9-1.5,1-2.8c0-0.5,0-0.9,0-1.3
			c0-0.4,0-0.8,0-1.3c0-0.9-0.2-1.6-0.5-2.1c-0.3-0.5-0.7-0.9-1.2-1.2c-0.5-0.2-1.1-0.4-1.7-0.4c-0.6,0-1.2,0.1-1.7,0.4
			c-0.5,0.2-0.9,0.6-1.2,1.2c-0.3,0.5-0.5,1.2-0.5,2.1c0,0.5,0,0.9,0,1.3c0,0.4,0,0.8,0,1.3c0,1.3,0.4,2.2,1,2.8
			C25.2,109.7,26,110,26.9,110z"/>
		<path class="st1" d="M34.4,110.9c-0.1,0-0.2,0-0.3-0.1c-0.1-0.1-0.1-0.2-0.1-0.3V99.6c0-0.1,0-0.2,0.1-0.3
			c0.1-0.1,0.2-0.1,0.3-0.1h6.4c0.1,0,0.2,0,0.3,0.1c0.1,0.1,0.1,0.2,0.1,0.3v0.2c0,0.1,0,0.2-0.1,0.3c-0.1,0.1-0.2,0.1-0.3,0.1
			h-5.7v4.5h5.4c0.1,0,0.2,0,0.3,0.1c0.1,0.1,0.1,0.2,0.1,0.3v0.3c0,0.1,0,0.2-0.1,0.3c-0.1,0.1-0.2,0.1-0.3,0.1h-5.4v4.8
			c0,0.1,0,0.2-0.1,0.3c-0.1,0.1-0.2,0.1-0.3,0.1H34.4z"/>
		<path class="st1" d="M47.9,110.9c-0.1,0-0.2,0-0.3-0.1c-0.1-0.1-0.1-0.2-0.1-0.3V99.6c0-0.1,0-0.2,0.1-0.3
			c0.1-0.1,0.2-0.1,0.3-0.1h3.5c1.2,0,2.1,0.2,2.8,0.5c0.7,0.3,1.1,0.9,1.4,1.5c0.3,0.7,0.4,1.5,0.4,2.5c0,0.5,0,0.9,0,1.3
			c0,0.4,0,0.8,0,1.3c0,1-0.2,1.9-0.4,2.5c-0.3,0.7-0.7,1.2-1.4,1.5c-0.7,0.3-1.6,0.5-2.7,0.5H47.9z M48.6,109.9h2.9
			c0.9,0,1.6-0.1,2.1-0.4c0.5-0.2,0.9-0.6,1.1-1.1c0.2-0.5,0.3-1.2,0.4-2.1c0-0.3,0-0.6,0-0.9c0-0.3,0-0.5,0-0.7c0-0.2,0-0.5,0-0.9
			c0-1.2-0.3-2.1-0.8-2.7c-0.5-0.6-1.5-0.9-2.8-0.9h-2.8V109.9z"/>
		<path class="st1" d="M62.8,111c-0.9,0-1.7-0.2-2.3-0.5s-1.1-0.8-1.5-1.5s-0.5-1.5-0.6-2.6c0-0.5,0-1,0-1.4c0-0.4,0-0.9,0-1.4
			c0-1,0.2-1.9,0.6-2.6c0.4-0.7,0.9-1.2,1.5-1.5c0.6-0.3,1.4-0.5,2.3-0.5s1.6,0.2,2.3,0.5c0.6,0.3,1.2,0.8,1.5,1.5
			c0.4,0.7,0.6,1.5,0.6,2.6c0,0.5,0,1,0,1.4c0,0.4,0,0.9,0,1.4c0,1-0.2,1.9-0.6,2.6c-0.3,0.7-0.8,1.2-1.5,1.5
			C64.5,110.9,63.7,111,62.8,111z M62.8,110c1,0,1.7-0.3,2.4-0.9c0.6-0.6,0.9-1.5,1-2.8c0-0.5,0-0.9,0-1.3c0-0.4,0-0.8,0-1.3
			c0-0.9-0.2-1.6-0.5-2.1c-0.3-0.5-0.7-0.9-1.2-1.2c-0.5-0.2-1.1-0.4-1.7-0.4c-0.6,0-1.2,0.1-1.7,0.4c-0.5,0.2-0.9,0.6-1.2,1.2
			c-0.3,0.5-0.5,1.2-0.5,2.1c0,0.5,0,0.9,0,1.3c0,0.4,0,0.8,0,1.3c0,1.3,0.4,2.2,1,2.8C61,109.7,61.8,110,62.8,110z"/>
		<path class="st1" d="M70.2,110.9c-0.1,0-0.2,0-0.3-0.1c-0.1-0.1-0.1-0.2-0.1-0.3V99.6c0-0.1,0-0.2,0.1-0.3
			c0.1-0.1,0.2-0.1,0.3-0.1h0.4c0.1,0,0.2,0,0.3,0.1c0.1,0.1,0.1,0.1,0.1,0.1l3.8,7.4l3.8-7.4c0,0,0.1-0.1,0.1-0.1
			c0-0.1,0.1-0.1,0.2-0.1h0.4c0.1,0,0.2,0,0.3,0.1c0.1,0.1,0.1,0.2,0.1,0.3v10.9c0,0.1,0,0.2-0.1,0.3c-0.1,0.1-0.2,0.1-0.3,0.1H79
			c-0.1,0-0.2,0-0.3-0.1c-0.1-0.1-0.1-0.2-0.1-0.3v-9l-3.2,6.3c0,0.1-0.1,0.2-0.2,0.3c-0.1,0.1-0.2,0.1-0.3,0.1h-0.4
			c-0.1,0-0.2,0-0.3-0.1c-0.1-0.1-0.1-0.1-0.2-0.3l-3.2-6.3v9c0,0.1,0,0.2-0.1,0.3c-0.1,0.1-0.2,0.1-0.3,0.1H70.2z"/>
		<path class="st1" d="M83.2,110.9c-0.1,0-0.2,0-0.3-0.1c-0.1-0.1-0.1-0.2-0.1-0.3V99.6c0-0.1,0-0.2,0.1-0.3
			c0.1-0.1,0.2-0.1,0.3-0.1h6.5c0.1,0,0.2,0,0.3,0.1c0.1,0.1,0.1,0.2,0.1,0.3v0.2c0,0.1,0,0.2-0.1,0.3c-0.1,0.1-0.2,0.1-0.3,0.1
			h-5.8v4.2h5.4c0.1,0,0.2,0,0.3,0.1c0.1,0.1,0.1,0.2,0.1,0.3v0.2c0,0.1,0,0.2-0.1,0.3c-0.1,0.1-0.2,0.1-0.3,0.1h-5.4v4.4h5.9
			c0.1,0,0.2,0,0.3,0.1c0.1,0.1,0.1,0.2,0.1,0.3v0.2c0,0.1,0,0.2-0.1,0.3c-0.1,0.1-0.2,0.1-0.3,0.1H83.2z"/>
		<path class="st1" d="M96.2,111c-0.9,0-1.7-0.1-2.3-0.4c-0.6-0.3-1.1-0.7-1.4-1.1c-0.3-0.5-0.5-0.9-0.5-1.4c0-0.1,0-0.2,0.1-0.2
			c0.1-0.1,0.1-0.1,0.2-0.1h0.3c0.1,0,0.2,0,0.3,0.1c0.1,0.1,0.1,0.1,0.1,0.2c0,0.3,0.2,0.6,0.4,0.9c0.2,0.3,0.6,0.6,1,0.8
			c0.5,0.2,1,0.3,1.8,0.3c1.1,0,1.9-0.2,2.4-0.6c0.5-0.4,0.7-0.9,0.7-1.6c0-0.4-0.1-0.8-0.4-1.1c-0.3-0.3-0.7-0.5-1.2-0.7
			c-0.5-0.2-1.2-0.5-2-0.7c-0.8-0.3-1.4-0.5-1.9-0.8c-0.5-0.3-0.9-0.6-1.1-1c-0.2-0.4-0.4-0.9-0.4-1.5c0-0.6,0.1-1.1,0.4-1.5
			c0.3-0.4,0.7-0.8,1.3-1.1c0.6-0.3,1.3-0.4,2.1-0.4c0.7,0,1.2,0.1,1.7,0.3c0.5,0.2,0.9,0.4,1.2,0.7c0.3,0.3,0.6,0.6,0.7,0.9
			s0.3,0.7,0.3,1c0,0.1,0,0.2-0.1,0.2c-0.1,0.1-0.1,0.1-0.3,0.1h-0.3c-0.1,0-0.1,0-0.2-0.1s-0.1-0.1-0.2-0.3c-0.1-0.6-0.4-1-0.9-1.4
			c-0.5-0.4-1.2-0.5-2-0.5c-0.8,0-1.5,0.2-2,0.5c-0.5,0.3-0.8,0.8-0.8,1.5c0,0.4,0.1,0.8,0.4,1.1c0.2,0.3,0.6,0.5,1.1,0.7
			c0.5,0.2,1.1,0.5,1.9,0.7c0.8,0.3,1.5,0.5,2.1,0.8c0.5,0.3,0.9,0.6,1.2,1c0.3,0.4,0.4,0.9,0.4,1.5c0,0.7-0.2,1.3-0.5,1.7
			c-0.3,0.5-0.8,0.8-1.4,1.1C97.8,110.9,97,111,96.2,111z"/>
		<path class="st1" d="M105.5,110.9c-0.1,0-0.2,0-0.3-0.1c-0.1-0.1-0.1-0.2-0.1-0.3v-10.3h-3.3c-0.1,0-0.2,0-0.3-0.1
			c-0.1-0.1-0.1-0.2-0.1-0.3v-0.2c0-0.1,0-0.2,0.1-0.3c0.1-0.1,0.2-0.1,0.3-0.1h7.6c0.1,0,0.2,0,0.3,0.1c0.1,0.1,0.1,0.2,0.1,0.3
			v0.2c0,0.1,0,0.2-0.1,0.3c-0.1,0.1-0.2,0.1-0.3,0.1h-3.3v10.3c0,0.1,0,0.2-0.1,0.3c-0.1,0.1-0.2,0.1-0.3,0.1H105.5z"/>
		<path class="st1" d="M112.3,110.9c-0.1,0-0.2,0-0.3-0.1c-0.1-0.1-0.1-0.2-0.1-0.3V99.6c0-0.1,0-0.2,0.1-0.3
			c0.1-0.1,0.2-0.1,0.3-0.1h0.3c0.1,0,0.2,0,0.3,0.1c0.1,0.1,0.1,0.2,0.1,0.3v10.9c0,0.1,0,0.2-0.1,0.3c-0.1,0.1-0.2,0.1-0.3,0.1
			H112.3z"/>
		<path class="st1" d="M120,111c-1,0-1.8-0.2-2.5-0.6c-0.6-0.4-1.1-0.9-1.4-1.6c-0.3-0.7-0.5-1.4-0.5-2.3c0-0.5,0-0.9,0-1.5
			c0-0.5,0-1,0-1.5c0-0.9,0.2-1.6,0.5-2.3c0.3-0.7,0.8-1.2,1.4-1.6c0.6-0.4,1.5-0.6,2.5-0.6c0.8,0,1.5,0.1,2,0.3
			c0.6,0.2,1,0.5,1.4,0.9c0.3,0.4,0.6,0.7,0.8,1.2c0.2,0.4,0.3,0.8,0.3,1.2c0,0.1,0,0.2-0.1,0.2c-0.1,0.1-0.2,0.1-0.3,0.1h-0.3
			c-0.1,0-0.2,0-0.2-0.1c-0.1,0-0.1-0.1-0.1-0.3c-0.2-1-0.6-1.7-1.2-2c-0.6-0.4-1.3-0.5-2.2-0.5c-1,0-1.8,0.3-2.4,0.9
			c-0.6,0.6-0.9,1.5-1,2.7c0,0.9,0,1.8,0,2.8c0,1.3,0.4,2.2,1,2.7c0.6,0.6,1.4,0.9,2.4,0.9c0.9,0,1.6-0.2,2.2-0.5c0.6-0.4,1-1,1.2-2
			c0-0.1,0.1-0.2,0.1-0.3c0.1,0,0.1-0.1,0.2-0.1h0.3c0.1,0,0.2,0,0.3,0.1c0.1,0.1,0.1,0.1,0.1,0.2c0,0.4-0.1,0.8-0.3,1.2
			c-0.2,0.4-0.4,0.8-0.8,1.2c-0.3,0.4-0.8,0.7-1.4,0.9C121.5,110.9,120.8,111,120,111z"/>
	</g>
	<g>
		<g>
			<path class="st1" d="M36.8,128.2c-0.2,0-0.3,0-0.4-0.1c-0.1-0.1-0.2-0.2-0.2-0.4l-2-10.7c0,0,0-0.1,0-0.1c0,0,0,0,0,0
				c0-0.1,0-0.2,0.1-0.2c0.1-0.1,0.2-0.1,0.2-0.1H36c0.3,0,0.4,0.1,0.5,0.3l1.4,7.5l1.5-4.9c0-0.1,0.1-0.2,0.2-0.3
				c0.1-0.1,0.2-0.1,0.4-0.1h0.9c0.2,0,0.3,0,0.4,0.1c0.1,0.1,0.1,0.2,0.1,0.3l1.5,4.9l1.4-7.5c0-0.2,0.2-0.3,0.5-0.3h1.5
				c0.1,0,0.2,0,0.2,0.1c0.1,0.1,0.1,0.1,0.1,0.2c0,0,0,0,0,0c0,0,0,0.1,0,0.1l-2,10.7c0,0.1-0.1,0.3-0.2,0.4
				c-0.1,0.1-0.2,0.1-0.4,0.1h-1.1c-0.2,0-0.3,0-0.4-0.1c-0.1-0.1-0.2-0.2-0.2-0.3l-1.9-5.6l-1.9,5.6c0,0.1-0.1,0.2-0.2,0.3
				c-0.1,0.1-0.2,0.1-0.4,0.1H36.8z"/>
			<path class="st1" d="M52.8,128.4c-1,0-1.8-0.2-2.5-0.5c-0.7-0.3-1.3-0.8-1.7-1.5c-0.4-0.7-0.6-1.5-0.6-2.6c0-0.5,0-0.9,0-1.4
				c0-0.5,0-0.9,0-1.4c0-1,0.3-1.9,0.7-2.5c0.4-0.7,1-1.2,1.7-1.5c0.7-0.3,1.6-0.5,2.5-0.5c1,0,1.8,0.2,2.5,0.5
				c0.7,0.3,1.3,0.9,1.7,1.5c0.4,0.7,0.6,1.5,0.7,2.5c0,0.5,0,1,0,1.4c0,0.5,0,0.9,0,1.4c0,1-0.3,1.9-0.6,2.6
				c-0.4,0.7-1,1.2-1.7,1.5C54.7,128.2,53.8,128.4,52.8,128.4z M52.8,126.5c0.7,0,1.3-0.2,1.8-0.6c0.5-0.4,0.7-1.1,0.7-2.1
				c0-0.5,0-0.9,0-1.4c0-0.4,0-0.9,0-1.3c0-0.6-0.1-1.2-0.4-1.6c-0.2-0.4-0.5-0.7-0.9-0.9c-0.4-0.2-0.8-0.3-1.3-0.3
				c-0.5,0-0.9,0.1-1.2,0.3c-0.4,0.2-0.7,0.5-0.9,0.9c-0.2,0.4-0.3,0.9-0.4,1.6c0,0.5,0,0.9,0,1.3c0,0.4,0,0.9,0,1.4
				c0,1,0.3,1.7,0.7,2.1C51.5,126.3,52.1,126.5,52.8,126.5z"/>
			<path class="st1" d="M60.3,128.2c-0.1,0-0.2,0-0.3-0.1c-0.1-0.1-0.1-0.2-0.1-0.3V117c0-0.1,0-0.2,0.1-0.3s0.2-0.1,0.3-0.1h4.3
				c1.3,0,2.4,0.3,3.2,0.9c0.8,0.6,1.2,1.5,1.2,2.7c0,0.8-0.2,1.5-0.6,2c-0.4,0.5-0.9,0.9-1.6,1.2l2.4,4.2c0,0.1,0.1,0.1,0.1,0.2
				c0,0.1,0,0.2-0.1,0.2c-0.1,0.1-0.2,0.1-0.2,0.1h-1.5c-0.2,0-0.3-0.1-0.4-0.1c-0.1-0.1-0.2-0.2-0.2-0.3l-2.1-3.9h-2.3v4
				c0,0.1,0,0.2-0.1,0.3c-0.1,0.1-0.2,0.1-0.3,0.1H60.3z M62.2,122h2.3c0.7,0,1.2-0.2,1.5-0.5c0.3-0.3,0.5-0.7,0.5-1.3
				c0-0.6-0.2-1-0.5-1.3c-0.3-0.3-0.8-0.5-1.5-0.5h-2.3V122z"/>
			<path class="st1" d="M71.5,128.2c-0.1,0-0.2,0-0.3-0.1c-0.1-0.1-0.1-0.2-0.1-0.3V117c0-0.1,0-0.2,0.1-0.3
				c0.1-0.1,0.2-0.1,0.3-0.1H73c0.1,0,0.2,0,0.3,0.1c0.1,0.1,0.1,0.2,0.1,0.3v3.9l3.8-4c0-0.1,0.1-0.1,0.2-0.2
				c0.1-0.1,0.2-0.1,0.4-0.1h1.6c0.1,0,0.2,0,0.2,0.1c0.1,0.1,0.1,0.1,0.1,0.2c0,0.1,0,0.1-0.1,0.2l-4.6,5l4.9,5.5
				c0.1,0.1,0.1,0.1,0.1,0.2c0,0.1,0,0.2-0.1,0.2c-0.1,0.1-0.2,0.1-0.2,0.1h-1.7c-0.2,0-0.3,0-0.4-0.1c-0.1-0.1-0.2-0.1-0.2-0.2
				l-4-4.4v4.3c0,0.1,0,0.2-0.1,0.3c-0.1,0.1-0.2,0.1-0.3,0.1H71.5z"/>
			<path class="st1" d="M82.1,128.2c-0.1,0-0.2,0-0.3-0.1c-0.1-0.1-0.1-0.2-0.1-0.3V117c0-0.1,0-0.2,0.1-0.3
				c0.1-0.1,0.2-0.1,0.3-0.1h7.3c0.1,0,0.2,0,0.3,0.1c0.1,0.1,0.1,0.2,0.1,0.3v1.1c0,0.1,0,0.2-0.1,0.3c-0.1,0.1-0.2,0.1-0.3,0.1
				h-5.5v2.9H89c0.1,0,0.2,0,0.3,0.1c0.1,0.1,0.1,0.2,0.1,0.3v1c0,0.1,0,0.2-0.1,0.3c-0.1,0.1-0.2,0.1-0.3,0.1h-5.1v3h5.6
				c0.1,0,0.2,0,0.3,0.1c0.1,0.1,0.1,0.2,0.1,0.3v1.1c0,0.1,0,0.2-0.1,0.3c-0.1,0.1-0.2,0.1-0.3,0.1H82.1z"/>
			<path class="st1" d="M92.4,128.2c-0.1,0-0.2,0-0.3-0.1c-0.1-0.1-0.1-0.2-0.1-0.3V117c0-0.1,0-0.2,0.1-0.3
				c0.1-0.1,0.2-0.1,0.3-0.1h4.3c1.3,0,2.4,0.3,3.2,0.9c0.8,0.6,1.2,1.5,1.2,2.7c0,0.8-0.2,1.5-0.6,2c-0.4,0.5-0.9,0.9-1.6,1.2
				l2.4,4.2c0,0.1,0.1,0.1,0.1,0.2c0,0.1,0,0.2-0.1,0.2c-0.1,0.1-0.2,0.1-0.2,0.1h-1.5c-0.2,0-0.3-0.1-0.4-0.1
				c-0.1-0.1-0.2-0.2-0.2-0.3l-2.1-3.9h-2.3v4c0,0.1,0,0.2-0.1,0.3c-0.1,0.1-0.2,0.1-0.3,0.1H92.4z M94.3,122h2.3
				c0.7,0,1.2-0.2,1.5-0.5c0.3-0.3,0.5-0.7,0.5-1.3c0-0.6-0.2-1-0.5-1.3c-0.3-0.3-0.8-0.5-1.5-0.5h-2.3V122z"/>
			<path class="st1" d="M107.3,128.4c-1,0-1.9-0.2-2.6-0.5c-0.7-0.3-1.2-0.7-1.6-1.2c-0.4-0.5-0.6-1-0.6-1.6c0-0.1,0-0.2,0.1-0.2
				c0.1-0.1,0.1-0.1,0.3-0.1h1.5c0.1,0,0.3,0,0.3,0.1c0.1,0.1,0.1,0.1,0.2,0.2c0.1,0.2,0.2,0.4,0.4,0.6c0.2,0.2,0.4,0.4,0.8,0.5
				c0.3,0.1,0.7,0.2,1.2,0.2c0.8,0,1.4-0.1,1.8-0.4c0.4-0.3,0.6-0.6,0.6-1.1c0-0.3-0.1-0.6-0.3-0.8c-0.2-0.2-0.5-0.4-1-0.5
				c-0.4-0.2-1-0.3-1.7-0.5c-0.8-0.2-1.5-0.4-2.1-0.7c-0.6-0.3-1-0.6-1.3-1.1c-0.3-0.4-0.4-1-0.4-1.6c0-0.6,0.2-1.2,0.5-1.7
				c0.4-0.5,0.8-0.9,1.5-1.2c0.6-0.3,1.4-0.4,2.3-0.4c0.7,0,1.4,0.1,1.9,0.3c0.6,0.2,1,0.4,1.4,0.8c0.4,0.3,0.6,0.7,0.8,1
				c0.2,0.4,0.3,0.7,0.3,1.1c0,0.1,0,0.2-0.1,0.2c-0.1,0.1-0.1,0.1-0.3,0.1h-1.5c-0.1,0-0.2,0-0.3-0.1c-0.1,0-0.2-0.1-0.2-0.2
				c-0.1-0.3-0.3-0.6-0.7-0.9c-0.4-0.2-0.8-0.4-1.4-0.4c-0.6,0-1.1,0.1-1.4,0.3c-0.4,0.2-0.5,0.6-0.5,1c0,0.3,0.1,0.6,0.3,0.8
				c0.2,0.2,0.5,0.4,0.9,0.5c0.4,0.2,0.9,0.3,1.6,0.5c0.9,0.2,1.7,0.5,2.3,0.7c0.6,0.3,1,0.6,1.3,1.1c0.3,0.4,0.4,1,0.4,1.6
				c0,0.7-0.2,1.4-0.6,1.9c-0.4,0.5-0.9,0.9-1.7,1.2C109,128.3,108.2,128.4,107.3,128.4z"/>
		</g>
	</g>
</g>
</svg>
