<?xml version="1.0" encoding="UTF-8"?><svg id="Capa_4" xmlns="http://www.w3.org/2000/svg" viewBox="0 0 1404 667"><defs><style>.cls-1{opacity:.05;}.cls-1,.cls-2,.cls-3{fill:#fff;}.cls-2{opacity:.12;}.cls-3{opacity:.1;}</style></defs><path class="cls-1" d="M1113.06,83.5c0,76.49,61.86,138.5,138.17,138.5s138.17-62.01,138.17-138.5c0-31.36-10.4-60.29-27.94-83.5h-220.47c-17.53,23.22-27.94,52.14-27.94,83.5Z"/><path class="cls-1" d="M915.37,333.08c-117.91,0-213.49,95.81-213.49,214,0,44.44,13.51,85.71,36.64,119.91h353.7c23.13-34.21,36.64-75.48,36.64-119.91,0-118.19-95.58-214-213.49-214Z"/><ellipse class="cls-2" cx="135.48" cy="466.68" rx="41.22" ry="41.13"/><ellipse class="cls-3" cx="646.44" cy="89.89" rx="64.99" ry="65.15" transform="translate(125.77 483.43) rotate(-45)"/></svg>