<?xml version="1.0" encoding="UTF-8"?><svg id="Footer" xmlns="http://www.w3.org/2000/svg" viewBox="0 0 1400 380"><defs><style>.cls-1{fill:#fff;opacity:.15;}</style></defs><ellipse class="cls-1" cx="327.77" cy="103.23" rx="72.02" ry="71.87"/><ellipse class="cls-1" cx="985.77" cy="103.23" rx="72.02" ry="71.87"/><path class="cls-1" d="M100.25,211.45c-53.3,0-96.5,43.1-96.5,96.27,0,28.79,12.67,54.63,32.76,72.27h127.49c20.08-17.64,32.76-43.48,32.76-72.27,0-53.17-43.2-96.27-96.5-96.27Z"/><ellipse class="cls-1" cx="521.77" cy="264.23" rx="19.28" ry="19.23"/><path class="cls-1" d="M1400,14.63c-2.2-5.04-4.67-9.92-7.41-14.63h-245.45c-12.22,21.02-19.23,45.45-19.23,71.53,0,78.57,63.56,142.26,141.96,142.26,58.21,0,108.23-35.12,130.14-85.36V14.63Z"/><ellipse class="cls-1" cx="737.84" cy="295.93" rx="37.99" ry="38.07"/></svg>