<?xml version="1.0" encoding="utf-8"?>
<!-- Generator: Adobe Illustrator 26.3.1, SVG Export Plug-In . SVG Version: 6.00 Build 0)  -->
<svg version="1.1" id="Capa_4" xmlns="http://www.w3.org/2000/svg" xmlns:xlink="http://www.w3.org/1999/xlink" x="0px" y="0px"
	 viewBox="0 0 150 150" style="enable-background:new 0 0 150 150;" xml:space="preserve">
<style type="text/css">
	.st0{fill:#8080FF;}
	.st1{fill:#FFFFFF;}
</style>
<rect y="0" class="st0" width="150" height="150"/>
<g>
	<path class="st1" d="M19.5,75.6c-0.2,0-0.4-0.1-0.5-0.3c-0.1-0.3,0.1-0.6,0.3-0.7c9.2-3.1,26.7-9,27.3-9.3c0.2-0.1,0.5,0,0.7,0.2
		c0.1,0.2,0.1,0.6-0.2,0.7c-0.1,0-0.2,0.1-27.4,9.3C19.6,75.6,19.6,75.6,19.5,75.6"/>
	<path class="st1" d="M130.5,75.6c-0.1,0-0.1,0-0.2,0c-29.5-10.1-29.7-10.2-29.7-10.2c-0.2-0.1-0.3-0.5-0.2-0.7
		c0.1-0.2,0.4-0.3,0.7-0.2c0.7,0.3,19.6,6.7,29.6,10.2c0.3,0.1,0.4,0.4,0.3,0.7C130.9,75.4,130.7,75.6,130.5,75.6"/>
	<path class="st1" d="M111.1,121.8c1,0,1.9,0,2.8,0c0.7-0.1,1.2-0.6,1.3-1.4c0.1-0.9-0.2-1.7-0.8-2c0,0-0.1,0-0.1,0
		c-1-0.2-2-0.2-3.1,0V121.8z M109.7,128.4c-0.7-0.2-0.8-0.6-0.8-1.3c0-3.3,0-6.6,0-9.9c0-0.3,0.1-0.5,0.1-0.8c0.6,0,1.2,0,1.7,0
		c1,0,2,0,3.1,0c2.4,0,3.8,1.8,3.5,4.2c-0.2,1.4-0.5,1.9-1.9,2.9c0.2,0.4,0.4,0.9,0.6,1.3c0.4,0.9,0.9,1.7,1.3,2.6
		c0.1,0.2,0.1,0.4,0.2,0.6c-0.3,0.1-0.5,0.2-0.7,0.3h-0.6c-0.8-0.1-1.1-0.6-1.4-1.3c-0.4-0.8-0.8-1.7-1.2-2.5
		c-0.5-1-1.3-1.2-2.4-0.7c0,0.3-0.1,0.5-0.1,0.8c0,0.8,0,1.7,0,2.5c0,0.4-0.1,0.8-0.5,1H109.7z"/>
	<path class="st1" d="M90.1,128.4c-0.1,0-0.2-0.1-0.3-0.1c-1.7-0.3-3-1.6-3.1-3.3c-0.1-1.7-0.2-3.5,0-5.2c0.2-2,1.7-3.4,3.8-3.6
		c1.5-0.1,2.8,0.2,4,1.2c0.7,0.6,1.2,1.2,1.1,2.2c0,0.1,0,0.2-0.1,0.4c-0.5,0-1,0.1-1.5,0c-0.3-0.1-0.6-0.4-0.7-0.6
		c-0.8-1.1-1.9-1.5-3.1-1c-0.7,0.3-1.1,0.7-1.2,1.4c-0.3,1.6-0.3,3.3,0,4.9c0.2,1.3,1.4,2,2.8,1.7c1.3-0.2,2-1.3,1.8-2.7
		c0-0.1-0.1-0.3-0.1-0.4c-0.7-0.2-1.4,0.2-2-0.3v-1.2c0.5-0.3,3.6-0.4,4.3-0.1c0,0.1,0.1,0.3,0.1,0.4c0,0.9,0,1.7-0.1,2.6
		c-0.3,1.8-1.3,3-3.1,3.5c-0.1,0-0.2,0.1-0.3,0.1H90.1z"/>
	<path class="st1" d="M77.8,122.3C77.8,122.3,77.7,122.3,77.8,122.3c-0.1,0.8-0.1,1.6,0,2.4c0.1,1,1,1.7,2.1,1.7
		c1.3,0,2.1-0.5,2.3-1.8c0.1-0.7,0.2-1.4,0.2-2.1c0-1-0.1-2-0.3-3c-0.3-1.1-1.3-1.6-2.4-1.5c-1,0.1-1.8,1-1.9,2
		C77.8,120.9,77.8,121.6,77.8,122.3 M78.7,128.4c0,0-0.1-0.1-0.1-0.1c-1.9-0.5-2.7-1.8-3-3.6c-0.3-1.7-0.2-3.4,0.1-5.2
		c0.3-1.7,1.3-2.8,3-3.2c0.9-0.2,1.8-0.3,2.7,0c1.6,0.5,2.6,1.6,3,3.2c0.4,1.9,0.4,3.9,0,5.8c-0.3,1.6-1.3,2.6-3,3
		c-0.1,0-0.1,0.1-0.2,0.1H78.7z"/>
	<path class="st1" d="M64.9,128.4c-0.2-0.1-0.3-0.2-0.5-0.3v-11.7h1.9c0,0.2,0.1,0.4,0.1,0.7c0,1.1,0,2.2,0,3.3v0.7h4.5v-4.7h2
		c0,0.2,0.1,0.4,0.1,0.6c0,3.5,0,7,0,10.4c0,0.3-0.1,0.5-0.2,0.8h-1.9v-4.7c-0.5-0.3-3-0.4-4.5-0.2c0,0.3-0.1,0.5-0.1,0.8
		c0,1.1,0,2.2,0,3.2c0,0.3-0.1,0.5-0.2,0.8c-0.3,0.1-0.5,0.1-0.8,0.2H64.9z"/>
	<path class="st1" d="M103.6,123.9c-0.1-1-1.3-4.3-1.7-4.8c-0.6,1.2-1.6,4.2-1.6,4.9C101.4,123.9,102.5,124.1,103.6,123.9
		 M97.5,128.4c-0.2-0.1-0.4-0.2-0.6-0.3c0.1-0.3,0.1-0.6,0.2-0.9c1.1-3.3,2.2-6.6,3.4-9.9c0.3-0.8,0.3-0.8,1.2-0.8
		c0.4,0,0.8,0,1.2,0c0.1,0,0.2,0,0.3,0c0.1,0.2,0.2,0.3,0.3,0.5c1.2,3.6,2.4,7.1,3.7,10.7c0,0.1,0,0.1,0,0.2
		c-0.2,0.2-0.5,0.3-0.7,0.5h-0.8c-0.9-0.6-0.9-1.6-1.3-2.4h-4.6c-0.2,0.4-0.3,0.8-0.5,1.3c-0.2,0.5-0.4,0.9-0.9,1.1H97.5z"/>
	<path class="st1" d="M32.6,127.2c1.2,0,2.3,0.1,3.4,0c1.5-0.1,2.4-1.1,2.5-2.6c0-0.4,0.1-0.7,0.1-1.1c0-1.3-0.1-2.7-0.2-4
		c-0.1-1.1-0.8-1.8-2-1.9c-1.1-0.1-2.2-0.1-3.3-0.1c-0.1,0-0.3,0-0.4,0.1V127.2z M34.3,128.4c-0.6,0-1.2,0-1.8-0.1
		c-0.2,0-0.5,0-0.7-0.1c-0.2-0.6-0.3-10.3-0.1-11.8c0.1,0,0.3,0,0.4,0c1.2,0,2.5,0,3.7,0c2.1,0,3.1,0.8,3.5,2.9
		c0.4,2.1,0.4,4.1,0,6.2c-0.4,1.8-1.3,2.6-3.3,2.8c-0.5,0.1-1,0.1-1.5,0.1H34.3z"/>
	<path class="st1" d="M47.6,128.4c-0.3,0-0.6-0.1-1-0.1c-1.1,0-2.2,0-3.3,0c-0.3,0-0.5,0-0.8-0.1c-0.3-0.6-0.2-11.3,0-11.8h6.4
		c0.3,0.7,0.1,1-0.6,1c-1.4,0-2.8,0-4.3,0h-0.7v4.2c0.3,0,0.7,0.1,1,0.1c1.1,0,2.3,0,3.4,0c0.2,0,0.5,0,0.8,0c0,0.3,0.1,0.6,0.1,1
		h-5.2v4.4c0.3,0,0.5,0.1,0.8,0.1c1.4,0,2.8,0,4.2,0c0.7,0,0.9,0.3,0.6,1c-0.2,0.1-0.4,0.1-0.6,0.2H47.6z"/>
	<path class="st1" d="M54.7,128.4c-0.6,0-1.2,0-1.8-0.1c-0.3,0-0.6,0-0.9-0.1v-11.8h0.9c0.2,3.5,0,7.1,0.1,10.7c0.2,0,0.4,0,0.7,0
		c1.4,0,2.7,0,4.1,0c0.1,0,0.3,0,0.4,0c0.2,0.1,0.4,0.3,0.5,0.5c0,0.2-0.2,0.4-0.3,0.6c0,0.1-0.2,0.1-0.2,0.2h-0.2h-0.9H54.7z"/>
	<path class="st1" d="M48.4,104.8c1.1,0,2.3,0,3.4,0c1,0,1.6-0.7,1.7-1.7c0.1-1-0.4-1.7-1.4-1.9c-1.1-0.2-2.3-0.1-3.4-0.2
		C48.3,101.5,48.2,103.5,48.4,104.8 M48.4,110c1.3,0,2.5,0,3.6,0c0.1,0,0.2,0,0.3-0.1c1-0.3,1.4-1.1,1.3-2.4c-0.1-1-0.7-1.6-1.8-1.6
		c-1,0-2.1,0-3.1,0c-0.1,0-0.2,0.1-0.3,0.1V110z M53.3,105.4c0.6,0.5,1,1.1,1.2,1.9c0.4,2-0.9,3.7-2.9,3.7c-1.1,0-2.2,0-3.3,0
		c-0.2,0-0.5-0.1-0.7-0.1c0-0.3,0-0.5,0-0.7c0-3,0-6.1,0-9.1c0-0.9,0.1-1.1,1.1-1.1c1.1,0,2.1,0.1,3.2,0.1c2.1,0,3.2,2.4,2.3,4.1
		C53.8,104.6,53.6,105,53.3,105.4"/>
	<path class="st1" d="M85.6,110c1,0,2,0,3,0c1.4,0,2.4-0.8,2.5-2.2c0.1-1.4,0.1-2.7,0.1-4.1c0-0.5-0.2-1-0.5-1.5
		c-0.3-0.6-0.7-1-1.4-1.1c-1.2-0.1-2.4-0.2-3.6-0.2c-0.1,0.4-0.1,0.6-0.1,0.9c0,1.8,0,3.7,0,5.5V110 M84.9,100.3
		c0.2,0,0.4-0.1,0.6-0.1c1.3,0,2.7,0,4,0.1c1.2,0.1,2.2,1.1,2.4,2.5c0.3,2.1,0.4,4.2-0.2,6.3c-0.3,1-1,1.7-2,1.9
		c-1.6,0.3-3.1,0.2-4.7,0.1c-0.1-0.3-0.2-0.6-0.2-0.9c0-3.1,0-6.2,0-9.3C84.8,100.7,84.8,100.5,84.9,100.3"/>
	<path class="st1" d="M29.6,105.5c0.8,0.2,2.9,0.1,3.6-0.1c0.6-0.2,1-0.6,1.2-1.2c0.1-0.4,0.1-0.7,0.1-1.1c0-0.9-0.5-1.7-1.4-1.8
		c-1.1-0.1-2.3-0.1-3.3-0.2C29.3,101.6,29.2,104.8,29.6,105.5 M35.5,111c-0.6,0.2-0.8-0.1-1-0.4c-0.6-1.1-1.2-2.3-1.8-3.4
		c-0.1-0.2-0.2-0.4-0.4-0.6h-2.8c-0.2,1.5,0,2.9-0.1,4.4c-0.2,0-0.4,0-0.7,0.1v-10.7c0.3,0,0.5-0.1,0.8-0.1c0.9,0,1.8,0,2.7,0
		c2.9-0.2,3.7,2.4,3.2,4.2c-0.2,0.7-0.5,1.2-1.2,1.6c-0.2,0.1-0.4,0.3-0.7,0.4c0.4,0.7,0.7,1.3,1,2c0.3,0.5,0.6,1,0.8,1.5
		C35.4,110.2,35.4,110.6,35.5,111"/>
	<path class="st1" d="M105.5,105.5c1.2,0,2.4,0.2,3.5-0.2c0.9-0.3,1.4-1.2,1.4-2.1c0-0.9-0.6-1.8-1.5-2c-0.4-0.1-0.9-0.1-1.4-0.2
		c-0.8,0-1.5,0-2.3,0C105.2,102.4,105.3,105,105.5,105.5 M104.6,100.3c0.1,0,0.3-0.1,0.5-0.1c1.3,0,2.6,0,3.9,0.1
		c1.2,0.1,2.1,1,2.2,2.2c0.1,0.6,0.1,1.2,0,1.8c-0.1,0.8-0.5,1.4-1.2,1.8c-0.2,0.1-0.4,0.3-0.7,0.4c0.7,1.5,1.6,2.9,2.2,4.4
		c-0.3,0.1-0.4,0.2-0.6,0.3c-1.1-1.5-1.7-3.1-2.7-4.7c-0.8,0-1.5,0-2.3,0c-0.4,0-0.6,0.3-0.6,0.7c0,1.1,0,2.1,0,3.2
		c0,0.2-0.1,0.5-0.2,0.7c-0.5,0-0.6-0.2-0.6-0.5c0-3.3,0-6.7,0-10C104.5,100.4,104.5,100.4,104.6,100.3"/>
	<path class="st1" d="M95.3,105.5L95.3,105.5c0,0.7,0,1.3,0,2c0.1,1.4,0.9,2.4,2,2.7c1.7,0.4,3.1-0.4,3.4-2.2
		c0.2-1.2,0.1-2.4,0.1-3.6c0-0.5-0.1-1-0.2-1.5c-0.4-1.3-1.6-2.2-2.7-2.1c-1.6,0.2-2.6,1.3-2.7,2.8
		C95.3,104.3,95.3,104.9,95.3,105.5 M94.5,105.7c0-0.8,0-1.6,0-2.4c0-1.5,1.4-3.3,3.5-3.3c2.4,0,3.5,1.5,3.7,3.3
		c0.2,1.7,0.1,3.4-0.1,5c-0.1,1.3-0.9,2.2-2.1,2.7c-1.4,0.5-2.8,0.3-3.9-0.6c-0.7-0.6-1-1.4-1.1-2.3
		C94.4,107.3,94.5,106.5,94.5,105.7L94.5,105.7"/>
	<path class="st1" d="M123.3,108.3c0.1,0.1,0.1,0.2,0.2,0.3c0.7,1.5,2.7,2.2,4.2,1.4c0.7-0.3,1.1-0.9,1.1-1.6c0-0.8-0.4-1.4-1.1-1.7
		c-0.8-0.4-1.7-0.7-2.5-1.1c-0.4-0.2-0.9-0.4-1.2-0.7c-1.2-0.8-1.4-2.4-0.6-3.6c0.4-0.6,0.9-1.1,1.7-1.1c0.6-0.1,1.3-0.1,1.9-0.1
		c1.5,0.1,2.6,1.4,2.6,2.8c-0.4,0.4-0.6,0.3-0.9-0.1c-0.1-0.1-0.1-0.3-0.2-0.4c-0.3-0.8-0.9-1.2-1.8-1.2c-0.4,0-0.9,0-1.3,0
		c-0.8,0-1.2,0.5-1.5,1.1c-0.3,0.6-0.2,1.2,0.3,1.7c0.3,0.3,0.7,0.6,1.1,0.8c1,0.5,2,0.9,3.1,1.3c0.9,0.4,1.3,1,1.3,2
		c0,2-0.7,2.8-2.6,3.2c-1.3,0.2-2.5,0-3.5-0.8c-0.6-0.5-1-1.2-1-2H123.3z"/>
	<path class="st1" d="M119.3,107.4c-0.7-2-1.4-4-2.1-5.9c0,0-0.1,0-0.1,0c-0.7,1.9-1.4,3.9-2.1,5.9H119.3z M114.6,108.4
		c-0.3,0.9-0.7,1.8-1,2.7c-0.2,0-0.5-0.1-0.8-0.2c1.3-3.6,2.5-7.2,3.8-10.7c0.4,0,0.7,0,1,0.1c0.5,0.7,3.7,9.9,3.7,10.7
		c-0.2,0-0.4,0-0.6,0c-0.3-0.9-0.7-1.7-1-2.6H114.6z"/>
	<path class="st1" d="M41.3,101.6c-0.1,0-0.1,0-0.2,0c-0.7,1.9-1.4,3.8-2.1,5.8c1.5,0,2.9,0.2,4.3-0.1
		C42.6,105.3,42.1,103.4,41.3,101.6 M40.7,100.3c0.4,0,0.7,0,1.1-0.1c1.3,3.5,2.5,7.1,3.8,10.6c-0.2,0.1-0.3,0.1-0.4,0.2
		c-0.1,0-0.2,0.1-0.4,0.1c-0.4-0.9-0.7-1.8-1.1-2.7h-5c-0.3,0.8-0.6,1.7-1,2.6c-0.2,0-0.4,0-0.7,0c0.1-0.5,0.1-0.9,0.2-1.3
		c1-2.8,2-5.7,3-8.5C40.4,100.9,40.6,100.6,40.7,100.3"/>
	<path class="st1" d="M80.7,107.4c-0.7-2-1.4-3.9-2.2-6c-0.1,0.2-0.2,0.3-0.2,0.3c-0.6,1.7-1.2,3.3-1.8,5c-0.1,0.2,0,0.4,0,0.6H80.7
		z M78,100.2h1.1c1.3,3.6,2.5,7.1,3.8,10.6c-0.3,0.1-0.5,0.2-0.8,0.3c-0.4-0.9-0.7-1.9-1.1-2.8h-4.9c-0.3,0.9-0.7,1.7-1,2.6h-0.7
		c0.1-0.3,0.1-0.7,0.2-1c1.1-3,2.1-6.1,3.2-9.1C77.8,100.7,77.9,100.5,78,100.2"/>
	<path class="st1" d="M62.4,107.4c-0.7-2-1.4-4-2-5.9l-0.2,0c-0.7,2-1.4,3.9-2.1,5.9H62.4z M57.9,108.3c-0.6,0.9-0.6,2.1-1.4,2.8
		c-0.5-0.2-0.5-0.6-0.4-0.9c0.4-1.1,0.7-2.1,1.1-3.2c0.7-2,1.4-4,2.2-6.1c0.3-0.8,0.5-0.9,1.3-0.6c0.4,0.6,3.6,10,3.6,10.6h-0.7
		c-0.3-0.9-0.6-1.7-1-2.6C61.1,108.2,59.5,108.3,57.9,108.3"/>
	<path class="st1" d="M71.5,101.1h-5.2v-0.8h6.2c0.1,0.3,0.1,0.5,0.1,0.7c0,2.2,0,4.4-0.1,6.7c0,0.4-0.1,0.7-0.2,1.1
		c-0.8,2.8-3.7,3.1-5.6,1.8c-0.8-0.6-1-1.4-1.1-2.3c0.1-0.2,0.2-0.3,0.4-0.5c0.4,0.1,0.5,0.4,0.6,0.7c0.4,1.6,1.5,2.2,3.1,1.8
		c1-0.2,1.8-1.1,1.8-2.3c0.1-2.2,0-4.4,0-6.6C71.6,101.3,71.5,101.2,71.5,101.1"/>
	<path class="st1" d="M22.6,111v-1c0-2.7,0-5.4,0-8c0-0.3-0.1-0.6-0.2-0.9h-2.9v-0.9h2.9c1.1,0,2.2,0,3.3,0c0.5,0,0.6,0.1,0.8,0.7
		c-0.9,0.4-1.9,0-3,0.3c0,0.3-0.1,0.6-0.1,1c0,2.6,0,5.2,0,7.8v1C23.1,110.9,22.9,111,22.6,111"/>
	<path class="st1" d="M92,29.8c-0.2-0.1-0.3-0.3-0.5-0.4c-0.1,0-0.1-0.1-0.2-0.1c-0.4-0.2-0.6-0.1-0.8,0.2c-0.6,0.9-1.1,1.8-1.6,2.7
		c0,0.1,0,0.2,0,0.4C90,31.6,91,30.7,92,29.8 M87.1,29.4c-0.2,0.1-0.3,0.1-0.4,0.2c-0.6,0.5-1.2,1-1.7,1.6C83.7,33,83.4,35,84.4,37
		c0.2,0.4,0.2,0.8-0.1,1.2c-0.4,0.6-0.9,1.2-1.3,1.9c-0.2,0.3-0.3,0.5-0.4,0.8c0,0.1,0,0.2,0.1,0.3c0.4,0.2,0.8,0.4,1.1,0.6
		c0.1,0,0.1,0,0.1-0.1c0.1-0.1,0.1-0.1,0.2-0.2c0.7-1,1.4-1.9,2.6-2.4c0.4-0.2,0.6-0.6,0.6-1c0.1-0.5,0.1-0.9,0.1-1.4
		c0-0.5,0.1-1.1-0.4-1.5c-0.1,0-0.1-0.1-0.1-0.2c-0.3-0.5-0.1-1.2,0.4-1.5c0.2-0.1,0.2-0.2,0.2-0.4c-0.1-0.9-0.2-1.7-0.2-2.6
		C87.2,30.3,87.1,29.9,87.1,29.4 M101.5,31.2c-2.3,2.2-4.6,4.4-6.9,6.6c1,0.9,2,1.8,3,2.7c2-2.5,4-5,5.9-7.4
		C102.8,32.5,102.2,31.9,101.5,31.2 M83.5,43c-0.1,0.2-0.2,0.3-0.3,0.4c-0.9,1.3-1.7,2.5-2.6,3.8c-0.6,0.8-0.6,0.8-0.5,1.7
		c0,0.2,0.1,0.4,0.1,0.5c0.2,1.3,0.5,2.6,0.7,3.9c0,0.1,0.1,0.2,0.1,0.3c0,0,0.1,0,0.1,0c1.9-2.4,3.7-4.9,5.6-7.3
		C85.6,45.2,84.6,44.1,83.5,43 M86.9,34.5c0.2,0.3,0.4,0.6,0.6,0.8c0.2,0.2,0.3,0.5,0.3,0.8c0,0.8-0.1,1.7-0.1,2.5
		c0,0.1,0,0.2,0.1,0.3c0.6,0.5,1.2,1,1.8,1.5c0.4,0.3,0.7,0.5,1.2,0.8c0-0.2,0-0.3,0-0.4c0-0.6,0-1.2-0.1-1.8c0-0.5,0-0.5-0.5-0.5
		c0,0-0.1,0-0.2-0.1c0.5-0.3,1-0.6,1.4-0.9c0.6-0.3,1.1-0.6,1.7-0.9c0.2-0.1,0.3-0.3,0.3-0.6c0-0.6-0.2-1.3,0.4-1.8
		c-0.1-0.1-0.2-0.2-0.3-0.2c-0.5-0.3-0.6-0.8-0.6-1.4c-0.1-0.6-0.3-1.2-0.4-1.7c-0.1-0.2-0.2-0.3-0.3-0.5c-1.4,1.4-3.1,2.3-4.2,4
		c-0.2-0.1-0.3-0.2-0.5-0.4C87.3,34.2,87.2,34.3,86.9,34.5 M63.3,55.1c0.1-0.1,0.2-0.1,0.2-0.2c1.7-2.2,3.3-4.4,5-6.5
		c0.1-0.1,0.1-0.2,0-0.4c-0.2-0.3-0.4-0.6-0.7-0.8c-1-1.3-1.9-2.6-2.9-3.9c0-0.1-0.1-0.1-0.2-0.2c-0.1,0.1-0.1,0.2-0.2,0.3
		c-0.8,1.5-1.5,2.9-2.3,4.4c-0.3,0.6-0.3,1.3-0.2,1.9c0.1,0.7,0.3,1.4,0.4,2C62.8,52.7,63.1,53.9,63.3,55.1 M72.1,35.6
		c0.5,0.6,2.6,1.8,3.4,1.8c-0.1-1.4,0.9-2,1.8-2c0.5,0,1.1-0.1,1.7-0.1c0-1.4,0-2.7,0.7-3.8c-0.2-0.1-0.3-0.2-0.4-0.3
		c-0.6-0.3-0.9-0.7-1-1.4c-0.1-0.5-0.2-0.9-0.4-1.4c-0.1-0.4-0.4-0.5-0.7-0.3c-1.1,0.5-1.9,1.4-2.7,2.3c-0.3,0.3-0.6,0.7-0.9,1
		c-0.2-0.1-0.5-0.3-0.7-0.4c-0.1-0.1-0.3-0.1-0.4-0.1c-0.6,0.1-1,0.8-0.6,1.4c0.2,0.4,0.5,0.8,0.8,1.2c0.1,0.1,0.1,0.3,0.1,0.5
		C72.5,34.6,72.3,35.1,72.1,35.6 M55.2,34.7c-0.2-0.3-0.4-0.5-0.5-0.7c-0.3-0.3-0.7-0.4-1.1-0.2c-0.3,0.2-0.5,0.7-0.2,1
		c0.3,0.5,0.7,0.9,1.3,1c0,0,0.1,0,0,0c0.1,0.2,0.1,0.3,0.2,0.5c0.2,0.4,0.4,0.7,0.6,1.1c0.1,0.4,0.2,0.8,0.3,1.2
		c0,0.3-0.1,0.6-0.1,0.9c0,0.2-0.1,0.5,0,0.7c0.5,1,1,2,1.5,3c0.1,0.2,0.2,0.3,0.4,0.3c1,0,2,0,3,0c0.1,0,0.2,0,0.3,0
		c0-0.1-0.1-0.2-0.1-0.3c-0.5-1.1-1.2-2.1-2.1-3c-0.4-0.4-0.7-0.9-0.8-1.5c0-0.4,0.1-0.9-0.3-1.2c0.2-0.1,0.2-0.1,0.3-0.1
		c0.5-0.2,1-0.4,1.5-0.5c0.4-0.1,0.6-0.4,0.6-0.8c0.1-0.5,0.1-1,0.2-1.5c0-0.2,0-0.4-0.1-0.5c-0.2-0.2-0.3-0.4-0.3-0.7
		c0-0.3,0-0.7-0.1-1c-0.1-0.4-0.2-0.9-0.4-1.2c-0.6-0.8-0.5-0.8-1.3-0.3c-0.5,0.3-0.9,0.8-1.4,1.2c-0.5,0.4-0.9,0.9-1.1,1.5
		C55.4,33.9,55.3,34.3,55.2,34.7 M43.8,61.1c0.1-0.2,0.3-0.3,0.3-0.4c0.1-0.5,0.3-1,0.3-1.5c0-0.6,0.3-1.1,0.7-1.4
		c0.3-0.3,0.6-0.6,0.9-0.9c0.5-0.6,1-1.2,1.5-1.8c0.9-1,1.8-1.9,2.6-2.9c1-1.1,1.9-2.4,2.8-3.5c0.4-0.6,0.9-1.1,1.3-1.6
		c0.2-0.3,0.3-0.2,0.6,0c0,0.1-0.1,0.1-0.1,0.2c-0.4,0.6-0.9,1.1-1.3,1.7c-0.2,0.2-0.2,0.5-0.4,0.9c0.9,0,1.6,0,2.3,0
		c0.3,0,0.4-0.1,0.5-0.4c0.2-0.9,0.4-1.8,0.6-2.7c0.1-0.6,0.2-1.3-0.1-1.9c-0.5-1.3-1-2.7-1.6-4c-0.1-0.2-0.2-0.3-0.4-0.2
		c-0.7,0.3-1.3,0.8-1.7,1.5c-2.8,4.2-5.7,8.4-8.5,12.6c-0.7,1-1.4,2.1-2.4,2.8c-0.1,0.1-0.2,0.1-0.2,0.2c-0.6,0.6-0.9,1.3-0.8,2.1
		c0,0.1,0.1,0.2,0.1,0.3c0,0,0.1,0,0.1,0c0-0.1,0-0.2,0-0.3c0-0.1,0.1-0.1,0.2-0.2c0.1,0.1,0.2,0.1,0.2,0.2c0,0.2,0,0.4,0,0.6
		c0,0.1,0.1,0.2,0.1,0.3c0,0,0.1,0,0.1,0c0-0.2,0-0.4,0.1-0.6c0-0.1,0.1-0.2,0.2-0.3c0.1,0.1,0.1,0.2,0.2,0.3c0,0.3,0,0.5,0,0.8
		c0,0.3,0.1,0.4,0.3,0.5c0.1-0.4-0.1-0.9,0.2-1.2c0,0,0.1,0,0.1,0c0,0.4,0.1,0.8,0.1,1.2c0.3-0.1,0.5-0.2,0.5-0.6c0-0.3,0-0.6,0.3-1
		C43.9,60.2,43.7,60.6,43.8,61.1 M68.4,49.9c0.2,0,0.3,0,0.4,0c2.6,0,5.2,0,7.8,0.1c0.9,0,1.9,0,2.8,0c0.2,0,0.3,0,0.3-0.2
		c-0.1-0.8-0.1-1.7-0.2-2.5c-0.2-1.4-0.3-2.7-0.7-4.1c-0.5-1.6-1.1-3.1-2.2-4.4c-0.3-0.3-0.5-0.6-1-0.7c-1.2-0.3-2.4-0.9-3.4-1.7
		c-0.3-0.3-0.6-0.3-0.9-0.1c-0.5,0.3-1.1,0.5-1.6,0.8c-0.8,0.4-1.6,0.9-2.1,1.6c-0.7,1.1-1.5,2.3-2.3,3.4c0,0.1-0.1,0.1-0.1,0.2
		c1.3,1.7,2.5,3.5,3.8,5.2c0.7-0.9,1.4-1.7,2.1-2.6c0.1,0.1,0.1,0.2,0.2,0.3c-0.1,0.1-0.2,0.3-0.3,0.4c-0.9,1.2-1.7,2.5-2.6,3.7
		C68.5,49.5,68.5,49.7,68.4,49.9 M48,65.1c-0.2-0.2,0-0.8,0-1c1-3.3,2-6.5,3-9.8c0.3-1.2,0.6-2.4,1-3.5l0.1,0.1
		c-0.2,0.2-0.5,0.4-0.7,0.6c-0.9,1-1.8,2-2.7,3c-1.1,1.2-2.2,2.5-3.3,3.7c-0.5,0.6-0.7,1.3-0.7,2c0,0.2-0.1,0.5-0.1,0.7
		c-0.1,0.5-0.4,0.7-0.9,0.7c-0.2,0-0.4,0.1-0.6,0.2c-0.3,0.2-0.5,0.2-0.8-0.1c-0.4-0.4-0.9-0.8-1.4-1.2c-0.5-0.4-0.5-0.9-0.4-1.4
		c0.2-1.1,0.9-1.9,1.8-2.6c0.2-0.1,0.4-0.3,0.5-0.5c3-4.5,6.1-9.1,9.1-13.7c0.7-1.1,1.7-1.9,2.9-2.4c0.3-0.1,0.5-0.3,0.5-0.7
		c0-0.3,0.1-0.6,0.1-0.9c0-0.2-0.1-0.4-0.1-0.6c-0.2,0.1-0.4,0.2-0.5,0.4c-0.4,0.3-0.7,0.3-1.1,0c-0.1-0.1-0.3-0.2-0.4-0.3
		c-0.4-0.3-0.7-0.5-1.2-0.5c-0.6,0-1-0.5-1.1-1.1c0-0.2-0.1-0.3-0.3-0.4c-1.2-0.9-1.6-2.3-0.8-3.6c0.2-0.3,0.2-0.6,0.1-0.9
		c-0.1-0.7,0-1.3,0.4-1.8c0-0.1,0.1-0.1,0.1-0.2c0.6-0.4,1.2-0.8,1.9-0.9c0.1,0,0.3-0.1,0.4-0.2c0.4-0.3,0.9-0.5,1.4-0.4
		c0.5,0,1,0,1.5-0.2c0.6-0.2,1.1,0,1.5,0.4c0.2,0.3,0.5,0.4,0.9,0.5c0.4,0,0.7,0.3,0.8,0.6c0.1,0.1,0.1,0.3,0.1,0.4
		c0.1,0.4,0.2,0.7,0.6,1c0.6,0.4,0.7,1.1,0.8,1.8c0,0.2,0,0.4,0,0.6c0,0.4,0,0.7,0.4,0.9c-0.1,0.7-0.2,1.4-0.2,2.1
		c-0.1,0.6-0.4,1-1,1.2c-0.2,0.1-0.5,0.2-0.7,0.2c-0.2,0.1-0.3,0.1-0.3,0.4c0,0.2,0,0.5-0.1,0.7c-0.1,0.5,0.1,0.8,0.4,1.2
		c0.9,1.1,1.8,2.3,2.7,3.4c0.5,0.6,0.8,1.3,0.8,2.1c0,0.3,0.1,0.7,0.1,1c0.1-0.1,0.1-0.2,0.2-0.3c0.9-1.7,1.8-3.4,2.8-5.1
		c0.6-1.1,1.3-2.1,2.3-2.8c0.4-0.3,0.7-0.6,1.1-0.9c0.1-0.1,0.1-0.2,0.1-0.3c0.1-1.8,0.1-3.6,0.4-5.3c0.1-0.9,0.2-1.8,0.3-2.7
		c0.1-0.8,0.4-1.3,1.1-1.8c1.5-1,3.1-1.2,4.7-0.7c0.5,0.1,1,0.3,1.5,0.5c0.8,0.4,1.3,1,1.5,1.9c0.2,0.7,0.4,1.4,0.7,2
		c0,0.1,0.2,0.3,0.3,0.4c0.3,0.2,0.6,0.3,0.9,0.5c-0.1,0.3-0.3,0.6-0.4,0.9c-0.2,0.5-0.3,1-0.3,1.5c0,0.4-0.1,0.8-0.1,1.2
		c-0.1,0.5-0.3,0.7-0.8,0.8C78,35.9,77.4,36,76.9,36c-0.4,0-0.6,0.2-0.8,0.5c-0.2,0.3-0.2,0.6,0,0.9c0.2,0.2,0.4,0.5,0.6,0.7
		c1.1,1.4,2,2.9,2.6,4.5c0.3,0.8,0.3,1.6,0.4,2.4c0.1,0.6,0.2,1.3,0.1,1.9c0,0.1,0,0.2,0.1,0.3c0.2-0.2,0.4-0.4,0.6-0.7
		c0.9-1.3,1.7-2.7,2.6-4c-0.5-0.4-1-0.9-1.5-1.4c0.1-0.1,0.1-0.2,0.2-0.3c0.6-0.9,1.2-1.8,1.8-2.7c0.2-0.3,0.3-0.7,0.2-1.1
		c-0.5-1.4-0.7-2.8-0.3-4.3c0.6-2,1.8-3.5,4-4c1.2-0.3,2.5-0.2,3.8,0.1c0.5,0.1,0.9,0.4,1.1,0.9c0.3,0.7,0.6,1.4,0.9,2.1
		c0.1,0.1,0.1,0.3,0.1,0.5c0,0.7,0.2,1.2,0.8,1.5c0.4,0.3,0.4,0.4,0,0.7c-0.2,0.1-0.2,0.2-0.2,0.4c0,0.4,0,0.7,0,1.1
		c0,0.4-0.3,0.7-0.6,0.9c-0.5,0.3-1,0.5-1.5,0.8c-0.1,0-0.2,0.1-0.3,0.2c-0.5,0.3-0.5,0.3-0.4,1c0.5-0.2,1-0.4,1.4-0.5
		c0.8-0.3,1.4-0.8,2-1.3c2.2-2.1,4.4-4.1,6.6-6.1c1-0.9,2-1.9,3-2.9c0.1-0.1,0.1-0.2,0.2-0.3c0.2-0.5,0.3-1,0.4-1.5
		c0.1-0.3,0.2-0.4,0.5-0.4c0.1,0.2,0.1,0.3,0.2,0.5c-0.1,0.1-0.2,0.1-0.3,0.2c0.2,0,0.3,0,0.4,0.1c0.1,0.2,0.2,0.5,0.2,0.5
		c0.2,0,0.4-0.1,0.6-0.2c0,0.2-0.1,0.4-0.1,0.6c0,0.1,0,0.3,0.1,0.3c0.1,0,0.2,0,0.3-0.1c0.1,0,0.1-0.1,0.2-0.2c0,0.2,0,0.4,0.1,0.5
		c0.1,0.1,0.2,0.2,0.3,0.3c0.1-0.1,0.2-0.2,0.3-0.3c0.1-0.2,0-0.5,0.1-0.7c0,0-0.1,0-0.1,0c-0.1,0.3-0.1,0.5-0.2,0.8
		c0,0-0.1,0-0.1,0c0-0.1-0.1-0.2-0.1-0.4c0-0.3,0-0.6,0-0.9c0-0.2,0.1-0.3,0.3-0.4c0.2-0.1,0.3,0.1,0.4,0.2c0.1,0.1,0.2,0.2,0.2,0.3
		c0.2,0.3,0.3,0.6,0.1,0.9c-0.2,0.4-0.4,0.9-0.5,1.4c-0.1,0.3-0.3,0.4-0.5,0.6c-0.3,0.1-0.5,0.3-0.7,0.6c-1.8,2.2-3.7,4.4-5.5,6.6
		c-1.7,2-3.3,4.1-4.9,6.2c-0.1,0.1-0.1,0.2-0.1,0.3c0.3,0.8,0.2,1.6,0.1,2.3c0,1.3-0.1,2.7-0.1,4c0,1.4,0,2.7-0.1,4.1
		c0,1,0.1,1.9,0.5,2.8c0.5,1.4,0.9,2.9,1.4,4.3c0.3,1,0.7,1.9,1.1,2.9c0.1,0.2,0.1,0.4,0.2,0.6c-0.3-0.1-0.5-0.2-0.8-0.3
		c-2.2-0.7-4.3-1.3-6.5-2c-2.3-0.8-4.5-1.6-6.7-2.5c-0.3-0.1-0.6-0.2-0.9-0.3c-0.2-0.1-0.2-0.2-0.1-0.4c0.2-0.8,0.4-1.6,0.6-2.4
		c0.4-1.5,0.7-3,1.1-4.4c0.5-1.9,0.9-3.8,1.2-5.7c0,0,0-0.1,0-0.1c0,0-0.1,0-0.1,0.1c-1.3,1.7-2.5,3.4-3.8,5.1
		c-0.7,0.9-1.3,1.8-2,2.7c-0.2,0.2-0.2,0.5-0.1,0.7c0.3,1.4,0.6,2.7,0.9,4.1c0,0.2,0,0.3-0.2,0.3c-0.3,0-0.5,0-0.7-0.1
		c-1.4-0.4-2.9-0.8-4.3-1.2c-0.3-0.1-0.6,0-0.8,0.1c-2.1,0.6-4.3,1.1-6.4,1.7c-0.6,0.1-1.1,0.2-1.7,0.3c-0.1-0.5-0.2-1-0.3-1.4
		c-0.2-0.9-0.4-1.9-0.5-2.8c-0.2-1.2,0.2-2.3,0.5-3.4c0.3-0.8,0.5-1.6,0.8-2.4c0,0,0,0-0.1,0c0,0-0.1,0.1-0.1,0.1
		c-1.1,1.6-2.4,3.1-3.6,4.6c-0.3,0.3-0.5,0.7-0.8,1c-0.2,0.2-0.2,0.4-0.1,0.6c0.3,1.4,0.5,2.7,0.8,4.1c0.1,0.4,0.1,0.4-0.3,0.6
		c-2.9,0.9-5.8,1.8-8.7,2.7c-1,0.3-2,0.7-3,1c-0.1,0-0.2,0.1-0.4,0.1c0.1-0.5,0.3-0.9,0.4-1.3c0.1-0.4,0.2-0.8,0.3-1.1
		c0.6-2.2,1.2-4.5,1.8-6.7c0.3-1,0.4-2,0.6-3.1c0.1-0.4,0.2-0.9,0.3-1.3c-0.9,0-1.7,0-2.6,0c-0.1,0-0.2,0.1-0.2,0.2
		c-0.5,1.8-1,3.6-1.5,5.4c-0.6,2.1-1.2,4.3-1.8,6.4c-0.1,0.4-0.2,0.8-0.4,1.2C48.6,64.7,48.5,65.2,48,65.1
		C48.1,65.2,48.1,65.1,48,65.1"/>
	<path class="st1" d="M105,23.9c0.2-0.1,0.2-0.3,0.2-0.5c0-0.5-0.2-0.8-0.5-0.9C104.8,23,104.9,23.4,105,23.9 M105.8,26.4
		c-0.1-0.2-0.1-0.4-0.2-0.6c-0.2-0.4-0.3-0.7-0.5-1.1c-0.1-0.1-0.3-0.3-0.5-0.3c-0.6-0.1-1-0.4-1.2-1c-0.1-0.4-0.2-0.9-0.2-1.3
		c0-0.5,0.4-0.8,0.9-0.5c0.7,0.3,1.2,0.8,1.4,1.5c0.1,0.2,0,0.6-0.1,0.8c-0.1,0.3-0.1,0.5,0,0.7c0.1,0.2,0.2,0.4,0.3,0.5
		C106.1,25.6,106,26,105.8,26.4"/>
	<path class="st1" d="M105.9,26.9c0.1-0.4,0.3-0.9,0.4-1.3c0-0.1,0.2-0.2,0.3-0.2c0.1,0.1,0.1,0.2,0.2,0.3c0.2,0.2,0.1,0.4-0.1,0.6
		c-0.2,0.2-0.5,0.5-0.7,0.7C106,26.9,105.9,26.9,105.9,26.9"/>
	<path class="st1" d="M107.6,26.3c-0.4,0.1-0.5,0.4-0.5,0.7c0,0.2-0.2,0.4-0.4,0.6c0-0.5,0-1,0.3-1.4
		C107.2,25.9,107.4,25.9,107.6,26.3"/>
	<path class="st1" d="M51.8,79.3c0,0.1,1.6-0.6,1.7-0.7c1-0.8,1.3-2.6,1.3-3.8c0.1-1.1,0.3-3.4-0.5-4.3c-0.8-1-2.6-0.5-2.6,0.8
		c0,1.7,0,3.5,0,5.2V79.3 M51.8,83.9v0.7c0,3.1,0,6.2,0,9.3c0,0.3-0.1,0.7-0.1,1c-0.1,0.6-0.5,0.9-1.1,0.9c-0.7,0-1.5,0.1-2.2,0.1
		c-0.9,0-1.3-0.4-1.3-1.3c0-7.3,0-14.5,0-21.8c0-0.8,0-1.7,0.1-2.5c0-0.2,0.2-0.6,0.4-0.7c2.4-1.3,4.9-2,7.6-2.4
		c2-0.3,4.1,1,4.5,3.5c0.6,3.3-0.1,6.2-2.5,8.6c-0.5,0.5-1,0.9-1.5,1.5c-0.1,0.2-0.2,0.5-0.1,0.7c0.8,2.3,1.6,4.6,2.4,6.9
		c0.6,1.6,1,3.2,1.6,4.8c0.1,0.4,0.3,0.7,0.4,1.1c0.3,0.7,0,1.2-0.7,1.4c-0.7,0.1-1.5,0.2-2.2,0.3c-0.4,0-0.7-0.2-0.9-0.6
		c-0.8-2.1-1.5-4.2-2.3-6.2c-0.6-1.7-1.2-3.4-1.9-5.1c0-0.1-0.1-0.1-0.1-0.2C51.9,83.9,51.8,83.9,51.8,83.9"/>
	<path class="st1" d="M93.5,79.1c1.6,0,3,0,4.5,0c0.5,0,0.6-0.2,0.6-0.7c0-3,0-7.2,0-10.3c0-0.2,0.2-0.3,0.4-0.2l2.4,0.9
		c0.1,0,0.2,0.1,0.2,0.2c0,2.8,0,6.3,0,9.1c0,0.3,0,0.6,0.4,0.7c0.2,0,0.3,0.3,0.3,0.5c0.1,0.5,0,1,0,1.4c0,0.2-0.1,0.4-0.3,0.4
		c-0.5,0.1-0.5,0.5-0.5,0.9c0,4.3,0,8.6-0.1,12.8c0,0.8-0.3,1.1-1.2,1.1c-0.3,0-0.6,0-0.9-0.1c-0.5-0.1-0.8-0.4-0.8-1.1
		c0-4.2,0-8.4,0-12.6c0-0.5-0.1-0.7-0.7-0.7c-1.5,0.1-2.9,0.1-4.5,0.2v0.8c0,4.1,0,8.1,0,12.2c0,0.4-0.1,0.5-0.5,0.7
		c-1.2,0.6-2.4,0.4-3.6,0.2c-0.5-0.1-0.7-0.6-0.7-1.2c0-3.3,0-6.7,0-10c0-6,0-12,0-17.9c0-0.3,0-0.6,0-0.9c0.1-0.8,0.5-1.2,1.3-1
		c0.9,0.1,1.7,0.4,2.6,0.6c0.2,0.1,0.4,0.4,0.5,0.7c0.1,0.3,0.1,0.7,0.1,1.1c0.1,3.7,0.2,7.4,0.2,11C93.5,78.4,93.5,78.6,93.5,79.1"
		/>
	<path class="st1" d="M73.4,80.4c0.1-4.4,0.6-8.4,2.2-12.4c0.9-2.4,2.7-6.1,5.8-5.6c1.8,0.3,3.2,1.4,3.7,3c0.5,1.7,0.8,3.4,0.7,5.1
		c-0.1,1.1-0.3,1.3-1.4,1c-1.2-0.3-1.3-0.5-1.4-1.7c0-0.8,0-1.7-0.1-2.5c-0.2-1.4-1.2-1.2-2.1-0.4c-2.1,1.9-2.2,5.4-2.3,8
		c-0.2,2.5-0.3,5.1-0.3,7.6c0,2.4-0.1,4.8,1,7c0.5,0.9,1.3,1.8,2.3,1.6c1.3-0.2,1.7-1.9,1.8-3c0.1-0.6-0.2-3.1,0.8-3
		c0.8,0.1,1.6-0.1,1.7,0.6c0.2,1.1,0.1,2.4,0,3.2c0,1.2-0.1,2.4-0.5,3.5c-1,2.4-3.5,3.6-6,3.1c-1.8-0.4-3.3-1.7-4.2-3.4
		C73.4,88.6,73.3,84.2,73.4,80.4"/>
	<path class="st1" d="M66.1,75.3c1.1-0.3,2.1-0.5,3.1-0.8c0.8-0.2,1-0.1,1,0.7c0,0.9,0,1.4,0,1.7c0,0.2-0.2,0.4-0.4,0.5
		c-0.9,0.3-2.6,0.7-3.2,0.9c-0.5,0.1-0.6,0.4-0.6,0.9c0,4.2,0,8.4,0,12.6V93c1.2-0.1,2.3,0.1,3.4,0c0.6,0,1.3-0.1,1.9,0
		c0.5,0,0.8,0.3,0.8,0.7c0,0.8,0.1,1.3,0,2.1c0,0.1-0.5,0.3-0.7,0.3c-1.8,0-3.7,0-5.5,0c-1,0-2-0.1-2.9-0.2c-0.6,0-1-0.3-1.1-1
		c0-0.3,0-0.6,0-0.9c0-9.2,0-18.3,0-27.5c0-1.1,0-1.2,1.1-1.6c2.3-0.8,4.7-1.7,7-2.5c0.2-0.1,1.1-0.3,1.3-0.3c0.7,0,0.6,2.8,0.6,3.2
		c0,0.7,0,0.5-0.9,0.8c-1.4,0.4-2.8,0.9-4.2,1.3c-0.6,0.2-0.8,0.3-0.8,1c0.1,1.9,0,3.9,0,5.8V75.3"/>
	<path class="st1" d="M114.4,84.4c0.1-1.6,0-3.2-0.4-4.7c-0.3-1.4-0.7-3.2-1.7-4.2c-0.9-0.8-1.8-0.3-2.4,0.6
		c-1.3,2.3-1.7,5.3-1.9,7.9c-0.2,2-0.3,4.4,0.5,6.3c0.2,0.4,0.4,0.8,0.8,1c0.3,0.1,0.6,0.2,0.9,0.1c2.3-0.3,3.6-3.3,4-5.3
		C114.3,85.6,114.4,85,114.4,84.4 M117,83.7c0,2.9-0.4,5.8-1.6,8.3c-1.3,2.8-3.1,4-5.9,3.8c-3.3-0.3-4.7-4.2-5.1-7
		c-0.5-3.9,0.1-8.3,1.1-12.1c0.5-1.9,1.4-3.6,3.1-4.8c4.2-3,7.5,4.5,8,7.6C116.9,80.9,117,82.3,117,83.7"/>
	<path class="st1" d="M23.5,79.8v12.7c0.2-0.1,0.3-0.1,0.4-0.1c2.7-1.9,2.9-4.8,2.6-7.9C26.4,82.8,25.6,79.9,23.5,79.8 M19.5,86.2
		c0-2.6,0-4.1,0-6.7c0-0.3,0.1-0.5,0.1-0.8c0-0.6,0.4-0.5,0.9-0.7c1.7-0.8,3-1.1,4.5-0.8c6.7,1.2,8.4,11,4,15.5
		c-2.3,2.3-5.5,3.2-8.6,2.8c-0.7-0.1-0.8-0.7-0.8-1.2c0-2.2,0-4.3,0-6.5C19.5,87.2,19.5,86.7,19.5,86.2"/>
	<path class="st1" d="M38.4,92.5c1.6,0,3.3,0,5,0c1,0,1.2,0.2,1.1,1.2c0,0.3,0,0.5-0.1,0.8c-0.1,0.8-0.6,1.2-1.4,1.2
		c-2.4,0-4.9,0-7.3,0c-1.2,0-1.3-0.2-1.3-1.3c0-6.3,0-12.6,0-18.9c0-0.1,0-0.3,0-0.4c0-1.4,0.1-1.5,1.4-1.9c2.3-0.7,4.1-1.4,7-2.2
		c0.6-0.2,0.9-0.1,1,0.6c0.1,0.5,0.1,0.8,0.1,1.4c0,0.3-0.1,0.8-0.2,1.1c-0.3,0.5-1.1,0.6-1.7,0.8c-1.1,0.3-2.2,0.6-3.3,0.9
		c-0.4,0.1-0.5,0.3-0.5,0.7c0,1.4,0,2.9,0,4.5c1.1-0.2,2.1-0.4,3.1-0.7c0.7-0.2,0.9-0.1,1,0.6c0.2,2,0.4,1.9-1.5,2.3
		c-0.7,0.1-1.4,0.4-2.1,0.6c-0.2,0.1-0.4,0.1-0.4,0.3c0,2.7,0,5.6,0,8.3C38.3,92.2,38.3,92.3,38.4,92.5"/>
	<path class="st1" d="M116.9,91.4c0,0,0-0.1,0-0.1c0-0.5-0.1-1.5,0.5-1.8c0.7-0.3,1.3-0.1,2.2,0c0.6,0,0.6,1,0.7,1.4
		c0.1,1,0.5,2.2,1.8,1.9c0.6-0.1,1.1-0.5,1.4-1c0.7-0.9,0.9-2.1,0.5-3.1c-0.8-2.1-2.5-2.8-3.8-4.5c-1.4-1.7-1.4-4.2-0.2-6
		c1.2-1.8,3.4-2.4,5.5-2.2c1.5,0.1,2.8,0.9,3.8,2.2c0.4,0.5,0.5,1.3,0.2,1.7c-0.4,0.5-1.4,0.8-2,0.5c-0.2-0.1-0.3-0.3-0.4-0.4
		c-0.3-0.4-0.4-0.9-0.8-1.3c-0.5-0.6-1.3-0.8-2-0.4c-0.5,0.3-0.9,0.9-0.8,1.5c0,0.5,0.3,1,0.5,1.4c1.2,2,2.8,3.6,4,5.6
		c1.1,1.8,1.6,4,0.5,5.9c-1.5,2.5-4.3,3.6-7,3.4c-1.5-0.1-3-0.9-3.8-2.2C117.2,93.2,117,92.3,116.9,91.4"/>
</g>
</svg>
